<svg width="28" height="24" viewBox="0 0 28 24" fill="none" xmlns="http://www.w3.org/2000/svg">
<g id="Logotype">
<path id="Vector" d="M19.1467 0H7.86196C7.06887 0 6.33601 0.423379 5.93947 1.11066L0.297405 10.8892C-0.0991293 11.5765 -0.099136 12.4232 0.297391 13.1105L5.93947 22.8893C6.33602 23.5766 7.06887 24 7.86198 24H19.1467C19.9398 24 20.6726 23.5766 21.0692 22.8893L26.7113 13.1105C27.1078 12.4232 27.1078 11.5765 26.7112 10.8892L21.0692 1.11066C20.6726 0.423382 19.9398 0 19.1467 0ZM14.946 12.8328H24.9491L19.9477 21.5012L14.946 12.8328ZM24.9491 11.1669H15.2665C14.4734 11.1669 13.7405 10.7435 13.344 10.0563L8.50268 1.66588H18.1855C18.9786 1.66588 19.7114 2.08926 20.108 2.77653L24.9491 11.1669ZM12.0624 11.1669H2.05955L7.06091 2.49879L12.0624 11.1669ZM2.05953 12.8328H11.742C12.5351 12.8328 13.2679 13.2561 13.6645 13.9434L18.506 22.3341H8.82317C8.03006 22.3341 7.2972 21.9107 6.90066 21.2234L2.05953 12.8328Z" fill="#A1FFFF"/>
</g>
</svg>
