<svg width="488" height="226" viewBox="0 0 488 226" fill="none" xmlns="http://www.w3.org/2000/svg">
<path d="M0 8C0 3.58173 3.58172 0 8 0H480C484.418 0 488 3.58172 488 8V218C488 222.418 484.418 226 480 226H7.99999C3.58171 226 0 222.418 0 218V8Z" fill="white"/>
<path d="M8 0.5H480C484.142 0.5 487.5 3.85786 487.5 8V218C487.5 222.142 484.142 225.5 480 225.5H8C3.85787 225.5 0.5 222.142 0.5 218V8C0.500002 3.85787 3.85787 0.5 8 0.5Z" stroke="#FD9C28" stroke-opacity="0.5"/>
<path d="M18.25 21C18.25 20.8342 18.3158 20.6753 18.4331 20.5581C18.5503 20.4408 18.7092 20.375 18.875 20.375H28.875C29.0408 20.375 29.1997 20.4408 29.3169 20.5581C29.4342 20.6753 29.5 20.8342 29.5 21C29.5 21.1658 29.4342 21.3247 29.3169 21.4419C29.1997 21.5592 29.0408 21.625 28.875 21.625H18.875C18.7092 21.625 18.5503 21.5592 18.4331 21.4419C18.3158 21.3247 18.25 21.1658 18.25 21ZM28.875 25.375H18.875C18.7092 25.375 18.5503 25.4408 18.4331 25.5581C18.3158 25.6753 18.25 25.8342 18.25 26C18.25 26.1658 18.3158 26.3247 18.4331 26.4419C18.5503 26.5592 18.7092 26.625 18.875 26.625H28.875C29.0408 26.625 29.1997 26.5592 29.3169 26.4419C29.4342 26.3247 29.5 26.1658 29.5 26C29.5 25.8342 29.4342 25.6753 29.3169 25.5581C29.1997 25.4408 29.0408 25.375 28.875 25.375ZM28.875 30.375H18.875C18.7092 30.375 18.5503 30.4408 18.4331 30.5581C18.3158 30.6753 18.25 30.8342 18.25 31C18.25 31.1658 18.3158 31.3247 18.4331 31.4419C18.5503 31.5592 18.7092 31.625 18.875 31.625H28.875C29.0408 31.625 29.1997 31.5592 29.3169 31.4419C29.4342 31.3247 29.5 31.1658 29.5 31C29.5 30.8342 29.4342 30.6753 29.3169 30.5581C29.1997 30.4408 29.0408 30.375 28.875 30.375ZM15.4375 20.0625C15.2521 20.0625 15.0708 20.1175 14.9167 20.2205C14.7625 20.3235 14.6423 20.4699 14.5714 20.6412C14.5004 20.8125 14.4818 21.001 14.518 21.1829C14.5542 21.3648 14.6435 21.5318 14.7746 21.6629C14.9057 21.794 15.0727 21.8833 15.2546 21.9195C15.4365 21.9557 15.625 21.9371 15.7963 21.8661C15.9676 21.7952 16.114 21.675 16.217 21.5208C16.32 21.3667 16.375 21.1854 16.375 21C16.375 20.7514 16.2762 20.5129 16.1004 20.3371C15.9246 20.1613 15.6861 20.0625 15.4375 20.0625ZM15.4375 25.0625C15.2521 25.0625 15.0708 25.1175 14.9167 25.2205C14.7625 25.3235 14.6423 25.4699 14.5714 25.6412C14.5004 25.8125 14.4818 26.001 14.518 26.1829C14.5542 26.3648 14.6435 26.5318 14.7746 26.6629C14.9057 26.794 15.0727 26.8833 15.2546 26.9195C15.4365 26.9557 15.625 26.9371 15.7963 26.8661C15.9676 26.7952 16.114 26.675 16.217 26.5208C16.32 26.3667 16.375 26.1854 16.375 26C16.375 25.7514 16.2762 25.5129 16.1004 25.3371C15.9246 25.1613 15.6861 25.0625 15.4375 25.0625ZM15.4375 30.0625C15.2521 30.0625 15.0708 30.1175 14.9167 30.2205C14.7625 30.3235 14.6423 30.4699 14.5714 30.6412C14.5004 30.8125 14.4818 31.001 14.518 31.1829C14.5542 31.3648 14.6435 31.5318 14.7746 31.6629C14.9057 31.794 15.0727 31.8833 15.2546 31.9195C15.4365 31.9557 15.625 31.9371 15.7963 31.8661C15.9676 31.7952 16.114 31.675 16.217 31.5208C16.32 31.3667 16.375 31.1854 16.375 31C16.375 30.7514 16.2762 30.5129 16.1004 30.3371C15.9246 30.1613 15.6861 30.0625 15.4375 30.0625Z" fill="#D18B28"/>
<path d="M44.806 32V20.894H40.504V19.04H51.448V20.894H47.146V32H44.806ZM51.1552 32V22.82H53.3692V25.034H53.4232V32H51.1552ZM53.4232 27.212L53.1892 25.034C53.4052 24.254 53.7712 23.66 54.2872 23.252C54.8032 22.844 55.4212 22.64 56.1412 22.64C56.3932 22.64 56.5732 22.664 56.6812 22.712V24.854C56.6212 24.83 56.5372 24.818 56.4292 24.818C56.3212 24.806 56.1892 24.8 56.0332 24.8C55.1572 24.8 54.5032 24.992 54.0712 25.376C53.6392 25.76 53.4232 26.372 53.4232 27.212ZM63.5765 32C63.5165 31.76 63.4685 31.496 63.4325 31.208C63.4085 30.92 63.3965 30.572 63.3965 30.164H63.3245V25.808C63.3245 25.328 63.1865 24.968 62.9105 24.728C62.6465 24.476 62.2385 24.35 61.6865 24.35C61.1465 24.35 60.7145 24.452 60.3905 24.656C60.0785 24.848 59.8865 25.13 59.8145 25.502H57.6365C57.7325 24.65 58.1405 23.96 58.8605 23.432C59.5805 22.904 60.5465 22.64 61.7585 22.64C63.0185 22.64 63.9725 22.928 64.6205 23.504C65.2685 24.068 65.5925 24.902 65.5925 26.006V30.164C65.5925 30.452 65.6105 30.746 65.6465 31.046C65.6945 31.346 65.7605 31.664 65.8445 32H63.5765ZM60.3905 32.18C59.4665 32.18 58.7285 31.952 58.1765 31.496C57.6365 31.028 57.3665 30.404 57.3665 29.624C57.3665 28.784 57.6725 28.118 58.2845 27.626C58.8965 27.134 59.7605 26.804 60.8765 26.636L63.7385 26.204V27.644L61.2545 28.022C60.7145 28.106 60.3065 28.256 60.0305 28.472C59.7665 28.688 59.6345 28.988 59.6345 29.372C59.6345 29.72 59.7605 29.99 60.0125 30.182C60.2645 30.362 60.6125 30.452 61.0565 30.452C61.7045 30.452 62.2445 30.29 62.6765 29.966C63.1085 29.642 63.3245 29.246 63.3245 28.778L63.5765 30.164C63.3365 30.824 62.9405 31.328 62.3885 31.676C61.8485 32.012 61.1825 32.18 60.3905 32.18ZM74.301 32V29.93L74.481 29.966C74.325 30.638 73.947 31.178 73.347 31.586C72.747 31.982 72.033 32.18 71.205 32.18C70.365 32.18 69.633 31.988 69.009 31.604C68.397 31.208 67.923 30.656 67.587 29.948C67.251 29.24 67.083 28.406 67.083 27.446C67.083 26.474 67.257 25.628 67.605 24.908C67.953 24.188 68.439 23.63 69.063 23.234C69.699 22.838 70.437 22.64 71.277 22.64C72.141 22.64 72.855 22.85 73.419 23.27C73.983 23.678 74.331 24.248 74.463 24.98L74.229 24.998V19.04H76.515V32H74.301ZM71.871 30.326C72.603 30.326 73.185 30.074 73.617 29.57C74.061 29.054 74.283 28.334 74.283 27.41C74.283 26.486 74.061 25.772 73.617 25.268C73.173 24.764 72.585 24.512 71.853 24.512C71.133 24.512 70.551 24.77 70.107 25.286C69.663 25.79 69.441 26.504 69.441 27.428C69.441 28.352 69.663 29.066 70.107 29.57C70.551 30.074 71.139 30.326 71.871 30.326ZM83.0507 32.18C82.0787 32.18 81.2267 31.976 80.4947 31.568C79.7747 31.16 79.2107 30.596 78.8027 29.876C78.4067 29.156 78.2087 28.328 78.2087 27.392C78.2087 26.456 78.4067 25.634 78.8027 24.926C79.2107 24.206 79.7747 23.648 80.4947 23.252C81.2147 22.844 82.0547 22.64 83.0147 22.64C83.9267 22.64 84.7187 22.832 85.3907 23.216C86.0627 23.588 86.5847 24.116 86.9567 24.8C87.3287 25.484 87.5147 26.282 87.5147 27.194C87.5147 27.362 87.5087 27.518 87.4967 27.662C87.4847 27.806 87.4667 27.95 87.4427 28.094H79.6127V26.51H85.6967L85.2287 26.942C85.2287 26.078 85.0307 25.43 84.6347 24.998C84.2387 24.566 83.6867 24.35 82.9787 24.35C82.2107 24.35 81.5987 24.614 81.1427 25.142C80.6987 25.67 80.4767 26.432 80.4767 27.428C80.4767 28.412 80.6987 29.168 81.1427 29.696C81.5987 30.212 82.2407 30.47 83.0687 30.47C83.5487 30.47 83.9687 30.38 84.3287 30.2C84.6887 30.02 84.9527 29.744 85.1207 29.372H87.2627C86.9627 30.236 86.4527 30.92 85.7327 31.424C85.0247 31.928 84.1307 32.18 83.0507 32.18ZM89.2119 32V22.82H91.4259V25.034H91.4799V32H89.2119ZM91.4799 27.212L91.2459 25.034C91.4619 24.254 91.8279 23.66 92.3439 23.252C92.8599 22.844 93.4779 22.64 94.1979 22.64C94.4499 22.64 94.6299 22.664 94.7379 22.712V24.854C94.6779 24.83 94.5939 24.818 94.4859 24.818C94.3779 24.806 94.2459 24.8 94.0899 24.8C93.2139 24.8 92.5599 24.992 92.1279 25.376C91.6959 25.76 91.4799 26.372 91.4799 27.212ZM99.5773 32.18C98.3053 32.18 97.2913 31.916 96.5353 31.388C95.7793 30.848 95.3653 30.104 95.2933 29.156H97.3633C97.4233 29.624 97.6453 29.978 98.0293 30.218C98.4133 30.458 98.9293 30.578 99.5773 30.578C100.165 30.578 100.603 30.488 100.891 30.308C101.191 30.116 101.341 29.846 101.341 29.498C101.341 29.246 101.257 29.042 101.089 28.886C100.921 28.718 100.603 28.58 100.135 28.472L98.6593 28.13C97.6513 27.914 96.9013 27.578 96.4093 27.122C95.9293 26.654 95.6893 26.072 95.6893 25.376C95.6893 24.524 96.0133 23.858 96.6613 23.378C97.3213 22.886 98.2273 22.64 99.3793 22.64C100.519 22.64 101.431 22.886 102.115 23.378C102.811 23.858 103.195 24.524 103.267 25.376H101.197C101.137 25.004 100.945 24.722 100.621 24.53C100.309 24.338 99.8773 24.242 99.3253 24.242C98.8093 24.242 98.4193 24.326 98.1553 24.494C97.8913 24.65 97.7593 24.884 97.7593 25.196C97.7593 25.436 97.8613 25.64 98.0653 25.808C98.2693 25.964 98.6113 26.102 99.0913 26.222L100.675 26.582C101.575 26.786 102.253 27.14 102.709 27.644C103.177 28.148 103.411 28.742 103.411 29.426C103.411 30.302 103.075 30.98 102.403 31.46C101.731 31.94 100.789 32.18 99.5773 32.18ZM108.352 32V19.04H110.692V32H108.352ZM109.468 32V30.146H117.064V32H109.468ZM122.443 32.18C121.471 32.18 120.619 31.976 119.887 31.568C119.167 31.16 118.603 30.596 118.195 29.876C117.799 29.156 117.601 28.328 117.601 27.392C117.601 26.456 117.799 25.634 118.195 24.926C118.603 24.206 119.167 23.648 119.887 23.252C120.607 22.844 121.447 22.64 122.407 22.64C123.319 22.64 124.111 22.832 124.783 23.216C125.455 23.588 125.977 24.116 126.349 24.8C126.721 25.484 126.907 26.282 126.907 27.194C126.907 27.362 126.901 27.518 126.889 27.662C126.877 27.806 126.859 27.95 126.835 28.094H119.005V26.51H125.089L124.621 26.942C124.621 26.078 124.423 25.43 124.027 24.998C123.631 24.566 123.079 24.35 122.371 24.35C121.603 24.35 120.991 24.614 120.535 25.142C120.091 25.67 119.869 26.432 119.869 27.428C119.869 28.412 120.091 29.168 120.535 29.696C120.991 30.212 121.633 30.47 122.461 30.47C122.941 30.47 123.361 30.38 123.721 30.2C124.081 30.02 124.345 29.744 124.513 29.372H126.655C126.355 30.236 125.845 30.92 125.125 31.424C124.417 31.928 123.523 32.18 122.443 32.18ZM134.188 32C134.128 31.76 134.08 31.496 134.044 31.208C134.02 30.92 134.008 30.572 134.008 30.164H133.936V25.808C133.936 25.328 133.798 24.968 133.522 24.728C133.258 24.476 132.85 24.35 132.298 24.35C131.758 24.35 131.326 24.452 131.002 24.656C130.69 24.848 130.498 25.13 130.426 25.502H128.248C128.344 24.65 128.752 23.96 129.472 23.432C130.192 22.904 131.158 22.64 132.37 22.64C133.63 22.64 134.584 22.928 135.232 23.504C135.88 24.068 136.204 24.902 136.204 26.006V30.164C136.204 30.452 136.222 30.746 136.258 31.046C136.306 31.346 136.372 31.664 136.456 32H134.188ZM131.002 32.18C130.078 32.18 129.34 31.952 128.788 31.496C128.248 31.028 127.978 30.404 127.978 29.624C127.978 28.784 128.284 28.118 128.896 27.626C129.508 27.134 130.372 26.804 131.488 26.636L134.35 26.204V27.644L131.866 28.022C131.326 28.106 130.918 28.256 130.642 28.472C130.378 28.688 130.246 28.988 130.246 29.372C130.246 29.72 130.372 29.99 130.624 30.182C130.876 30.362 131.224 30.452 131.668 30.452C132.316 30.452 132.856 30.29 133.288 29.966C133.72 29.642 133.936 29.246 133.936 28.778L134.188 30.164C133.948 30.824 133.552 31.328 133 31.676C132.46 32.012 131.794 32.18 131.002 32.18ZM144.912 32V29.93L145.092 29.966C144.936 30.638 144.558 31.178 143.958 31.586C143.358 31.982 142.644 32.18 141.816 32.18C140.976 32.18 140.244 31.988 139.62 31.604C139.008 31.208 138.534 30.656 138.198 29.948C137.862 29.24 137.694 28.406 137.694 27.446C137.694 26.474 137.868 25.628 138.216 24.908C138.564 24.188 139.05 23.63 139.674 23.234C140.31 22.838 141.048 22.64 141.888 22.64C142.752 22.64 143.466 22.85 144.03 23.27C144.594 23.678 144.942 24.248 145.074 24.98L144.84 24.998V19.04H147.126V32H144.912ZM142.482 30.326C143.214 30.326 143.796 30.074 144.228 29.57C144.672 29.054 144.894 28.334 144.894 27.41C144.894 26.486 144.672 25.772 144.228 25.268C143.784 24.764 143.196 24.512 142.464 24.512C141.744 24.512 141.162 24.77 140.718 25.286C140.274 25.79 140.052 26.504 140.052 27.428C140.052 28.352 140.274 29.066 140.718 29.57C141.162 30.074 141.75 30.326 142.482 30.326ZM153.662 32.18C152.69 32.18 151.838 31.976 151.106 31.568C150.386 31.16 149.822 30.596 149.414 29.876C149.018 29.156 148.82 28.328 148.82 27.392C148.82 26.456 149.018 25.634 149.414 24.926C149.822 24.206 150.386 23.648 151.106 23.252C151.826 22.844 152.666 22.64 153.626 22.64C154.538 22.64 155.33 22.832 156.002 23.216C156.674 23.588 157.196 24.116 157.568 24.8C157.94 25.484 158.126 26.282 158.126 27.194C158.126 27.362 158.12 27.518 158.108 27.662C158.096 27.806 158.078 27.95 158.054 28.094H150.224V26.51H156.308L155.84 26.942C155.84 26.078 155.642 25.43 155.246 24.998C154.85 24.566 154.298 24.35 153.59 24.35C152.822 24.35 152.21 24.614 151.754 25.142C151.31 25.67 151.088 26.432 151.088 27.428C151.088 28.412 151.31 29.168 151.754 29.696C152.21 30.212 152.852 30.47 153.68 30.47C154.16 30.47 154.58 30.38 154.94 30.2C155.3 30.02 155.564 29.744 155.732 29.372H157.874C157.574 30.236 157.064 30.92 156.344 31.424C155.636 31.928 154.742 32.18 153.662 32.18ZM159.823 32V22.82H162.037V25.034H162.091V32H159.823ZM162.091 27.212L161.857 25.034C162.073 24.254 162.439 23.66 162.955 23.252C163.471 22.844 164.089 22.64 164.809 22.64C165.061 22.64 165.241 22.664 165.349 22.712V24.854C165.289 24.83 165.205 24.818 165.097 24.818C164.989 24.806 164.857 24.8 164.701 24.8C163.825 24.8 163.171 24.992 162.739 25.376C162.307 25.76 162.091 26.372 162.091 27.212ZM172.075 32.18C171.199 32.18 170.479 31.976 169.915 31.568C169.363 31.148 169.021 30.572 168.889 29.84L169.051 29.822V32H166.837V19.04H169.105V24.89L168.943 24.854C169.099 24.17 169.465 23.63 170.041 23.234C170.629 22.838 171.355 22.64 172.219 22.64C173.035 22.64 173.743 22.838 174.343 23.234C174.955 23.618 175.429 24.164 175.765 24.872C176.101 25.58 176.269 26.414 176.269 27.374C176.269 28.346 176.095 29.192 175.747 29.912C175.399 30.632 174.913 31.19 174.289 31.586C173.665 31.982 172.927 32.18 172.075 32.18ZM171.499 30.308C172.231 30.308 172.813 30.056 173.245 29.552C173.677 29.036 173.893 28.316 173.893 27.392C173.893 26.468 173.671 25.754 173.227 25.25C172.795 24.746 172.213 24.494 171.481 24.494C170.761 24.494 170.179 24.752 169.735 25.268C169.291 25.772 169.069 26.486 169.069 27.41C169.069 28.334 169.291 29.048 169.735 29.552C170.179 30.056 170.767 30.308 171.499 30.308ZM182.316 32.18C181.344 32.18 180.486 31.976 179.742 31.568C179.01 31.16 178.44 30.596 178.032 29.876C177.624 29.144 177.42 28.31 177.42 27.374C177.42 26.438 177.624 25.616 178.032 24.908C178.44 24.2 179.01 23.648 179.742 23.252C180.486 22.844 181.344 22.64 182.316 22.64C183.3 22.64 184.158 22.844 184.89 23.252C185.622 23.648 186.192 24.2 186.6 24.908C187.008 25.616 187.212 26.438 187.212 27.374C187.212 28.31 187.002 29.144 186.582 29.876C186.174 30.596 185.604 31.16 184.872 31.568C184.14 31.976 183.288 32.18 182.316 32.18ZM182.316 30.362C182.796 30.362 183.228 30.242 183.612 30.002C183.996 29.75 184.296 29.402 184.512 28.958C184.728 28.502 184.836 27.968 184.836 27.356C184.836 26.456 184.596 25.748 184.116 25.232C183.648 24.716 183.048 24.458 182.316 24.458C181.584 24.458 180.978 24.716 180.498 25.232C180.018 25.748 179.778 26.456 179.778 27.356C179.778 27.968 179.886 28.502 180.102 28.958C180.33 29.402 180.63 29.75 181.002 30.002C181.386 30.242 181.824 30.362 182.316 30.362ZM194.569 32C194.509 31.76 194.461 31.496 194.425 31.208C194.401 30.92 194.389 30.572 194.389 30.164H194.317V25.808C194.317 25.328 194.179 24.968 193.903 24.728C193.639 24.476 193.231 24.35 192.679 24.35C192.139 24.35 191.707 24.452 191.383 24.656C191.071 24.848 190.879 25.13 190.807 25.502H188.629C188.725 24.65 189.133 23.96 189.853 23.432C190.573 22.904 191.539 22.64 192.751 22.64C194.011 22.64 194.965 22.928 195.613 23.504C196.261 24.068 196.585 24.902 196.585 26.006V30.164C196.585 30.452 196.603 30.746 196.639 31.046C196.687 31.346 196.753 31.664 196.837 32H194.569ZM191.383 32.18C190.459 32.18 189.721 31.952 189.169 31.496C188.629 31.028 188.359 30.404 188.359 29.624C188.359 28.784 188.665 28.118 189.277 27.626C189.889 27.134 190.753 26.804 191.869 26.636L194.731 26.204V27.644L192.247 28.022C191.707 28.106 191.299 28.256 191.023 28.472C190.759 28.688 190.627 28.988 190.627 29.372C190.627 29.72 190.753 29.99 191.005 30.182C191.257 30.362 191.605 30.452 192.049 30.452C192.697 30.452 193.237 30.29 193.669 29.966C194.101 29.642 194.317 29.246 194.317 28.778L194.569 30.164C194.329 30.824 193.933 31.328 193.381 31.676C192.841 32.012 192.175 32.18 191.383 32.18ZM198.882 32V22.82H201.096V25.034H201.15V32H198.882ZM201.15 27.212L200.916 25.034C201.132 24.254 201.498 23.66 202.014 23.252C202.53 22.844 203.148 22.64 203.868 22.64C204.12 22.64 204.3 22.664 204.408 22.712V24.854C204.348 24.83 204.264 24.818 204.156 24.818C204.048 24.806 203.916 24.8 203.76 24.8C202.884 24.8 202.23 24.992 201.798 25.376C201.366 25.76 201.15 26.372 201.15 27.212ZM212.237 32V29.93L212.417 29.966C212.261 30.638 211.883 31.178 211.283 31.586C210.683 31.982 209.969 32.18 209.141 32.18C208.301 32.18 207.569 31.988 206.945 31.604C206.333 31.208 205.859 30.656 205.523 29.948C205.187 29.24 205.019 28.406 205.019 27.446C205.019 26.474 205.193 25.628 205.541 24.908C205.889 24.188 206.375 23.63 206.999 23.234C207.635 22.838 208.373 22.64 209.213 22.64C210.077 22.64 210.791 22.85 211.355 23.27C211.919 23.678 212.267 24.248 212.399 24.98L212.165 24.998V19.04H214.451V32H212.237ZM209.807 30.326C210.539 30.326 211.121 30.074 211.553 29.57C211.997 29.054 212.219 28.334 212.219 27.41C212.219 26.486 211.997 25.772 211.553 25.268C211.109 24.764 210.521 24.512 209.789 24.512C209.069 24.512 208.487 24.77 208.043 25.286C207.599 25.79 207.377 26.504 207.377 27.428C207.377 28.352 207.599 29.066 208.043 29.57C208.487 30.074 209.075 30.326 209.807 30.326Z" fill="#4D4D50"/>
<path d="M16.152 73.108C15.032 73.108 14.136 72.86 13.464 72.364C12.792 71.86 12.4 71.152 12.288 70.24H14.064C14.12 70.704 14.344 71.072 14.736 71.344C15.128 71.608 15.628 71.74 16.236 71.74C16.732 71.74 17.112 71.652 17.376 71.476C17.648 71.3 17.784 71.064 17.784 70.768C17.784 70.488 17.704 70.264 17.544 70.096C17.384 69.92 17.108 69.78 16.716 69.676L15.108 69.232C14.284 69 13.68 68.684 13.296 68.284C12.92 67.876 12.732 67.368 12.732 66.76C12.732 66.24 12.864 65.792 13.128 65.416C13.4 65.032 13.78 64.74 14.268 64.54C14.756 64.332 15.328 64.228 15.984 64.228C16.992 64.228 17.796 64.468 18.396 64.948C18.996 65.42 19.336 66.048 19.416 66.832H17.64C17.56 66.408 17.364 66.096 17.052 65.896C16.748 65.696 16.356 65.596 15.876 65.596C15.46 65.596 15.128 65.676 14.88 65.836C14.632 65.996 14.508 66.212 14.508 66.484C14.508 66.692 14.576 66.884 14.712 67.06C14.848 67.228 15.132 67.372 15.564 67.492L17.172 67.936C18.02 68.168 18.628 68.488 18.996 68.896C19.372 69.296 19.56 69.804 19.56 70.42C19.56 71.284 19.26 71.948 18.66 72.412C18.06 72.876 17.224 73.108 16.152 73.108ZM23.3935 73.132C22.6095 73.132 22.0255 72.944 21.6415 72.568C21.2655 72.184 21.0775 71.604 21.0775 70.828V65.512L22.8775 64.84V70.888C22.8775 71.16 22.9535 71.364 23.1055 71.5C23.2575 71.636 23.4935 71.704 23.8135 71.704C23.9335 71.704 24.0455 71.692 24.1495 71.668C24.2535 71.644 24.3575 71.616 24.4615 71.584V72.952C24.3575 73.008 24.2095 73.052 24.0175 73.084C23.8335 73.116 23.6255 73.132 23.3935 73.132ZM19.9375 68.248V66.88H24.4615V68.248H19.9375ZM29.2751 73C29.2271 72.824 29.1911 72.636 29.1671 72.436C29.1511 72.236 29.1431 72.004 29.1431 71.74H29.0951V68.848C29.0951 68.6 29.0111 68.408 28.8431 68.272C28.6831 68.128 28.4431 68.056 28.1231 68.056C27.8191 68.056 27.5751 68.108 27.3911 68.212C27.2151 68.316 27.0991 68.468 27.0431 68.668H25.3271C25.4071 68.116 25.6911 67.66 26.1791 67.3C26.6671 66.94 27.3351 66.76 28.1831 66.76C29.0631 66.76 29.7351 66.956 30.1991 67.348C30.6631 67.74 30.8951 68.304 30.8951 69.04V71.74C30.8951 71.94 30.9071 72.144 30.9311 72.352C30.9631 72.552 31.0111 72.768 31.0751 73H29.2751ZM27.1391 73.12C26.5311 73.12 26.0471 72.968 25.6871 72.664C25.3271 72.352 25.1471 71.94 25.1471 71.428C25.1471 70.86 25.3591 70.404 25.7831 70.06C26.2151 69.708 26.8151 69.48 27.5831 69.376L29.3711 69.124V70.168L27.8831 70.396C27.5631 70.444 27.3271 70.532 27.1751 70.66C27.0231 70.788 26.9471 70.964 26.9471 71.188C26.9471 71.388 27.0191 71.54 27.1631 71.644C27.3071 71.748 27.4991 71.8 27.7391 71.8C28.1151 71.8 28.4351 71.7 28.6991 71.5C28.9631 71.292 29.0951 71.052 29.0951 70.78L29.2631 71.74C29.0871 72.196 28.8191 72.54 28.4591 72.772C28.0991 73.004 27.6591 73.12 27.1391 73.12ZM34.7607 73.132C33.9767 73.132 33.3927 72.944 33.0087 72.568C32.6327 72.184 32.4447 71.604 32.4447 70.828V65.512L34.2447 64.84V70.888C34.2447 71.16 34.3207 71.364 34.4727 71.5C34.6247 71.636 34.8607 71.704 35.1807 71.704C35.3007 71.704 35.4127 71.692 35.5167 71.668C35.6207 71.644 35.7247 71.616 35.8287 71.584V72.952C35.7247 73.008 35.5767 73.052 35.3847 73.084C35.2007 73.116 34.9927 73.132 34.7607 73.132ZM31.3047 68.248V66.88H35.8287V68.248H31.3047ZM38.7469 73.12C38.3149 73.12 37.9429 73.028 37.6309 72.844C37.3269 72.652 37.0949 72.4 36.9349 72.088C36.7749 71.768 36.6949 71.412 36.6949 71.02V66.88H38.4949V70.672C38.4949 71.008 38.5789 71.26 38.7469 71.428C38.9149 71.596 39.1509 71.68 39.4549 71.68C39.7269 71.68 39.9669 71.616 40.1749 71.488C40.3829 71.36 40.5469 71.184 40.6669 70.96C40.7949 70.728 40.8589 70.464 40.8589 70.168L41.0149 71.644C40.8149 72.084 40.5229 72.44 40.1389 72.712C39.7549 72.984 39.2909 73.12 38.7469 73.12ZM40.8949 73V71.56H40.8589V66.88H42.6589V73H40.8949ZM46.4928 73.12C45.5968 73.12 44.8848 72.94 44.3568 72.58C43.8288 72.22 43.5408 71.724 43.4928 71.092H45.1008C45.1408 71.364 45.2768 71.572 45.5088 71.716C45.7488 71.852 46.0768 71.92 46.4928 71.92C46.8688 71.92 47.1408 71.868 47.3088 71.764C47.4848 71.652 47.5728 71.496 47.5728 71.296C47.5728 71.144 47.5208 71.028 47.4168 70.948C47.3208 70.86 47.1408 70.788 46.8768 70.732L45.8928 70.528C45.1648 70.376 44.6288 70.148 44.2848 69.844C43.9408 69.532 43.7688 69.132 43.7688 68.644C43.7688 68.052 43.9968 67.592 44.4528 67.264C44.9088 66.928 45.5448 66.76 46.3608 66.76C47.1688 66.76 47.8128 66.924 48.2928 67.252C48.7728 67.572 49.0368 68.02 49.0848 68.596H47.4768C47.4448 68.388 47.3328 68.232 47.1408 68.128C46.9488 68.016 46.6768 67.96 46.3248 67.96C46.0048 67.96 45.7648 68.008 45.6048 68.104C45.4528 68.192 45.3768 68.32 45.3768 68.488C45.3768 68.632 45.4408 68.748 45.5688 68.836C45.6968 68.916 45.9088 68.988 46.2048 69.052L47.3088 69.28C47.9248 69.408 48.3888 69.648 48.7008 70C49.0208 70.344 49.1808 70.752 49.1808 71.224C49.1808 71.824 48.9448 72.292 48.4728 72.628C48.0088 72.956 47.3488 73.12 46.4928 73.12Z" fill="#7A7A7D"/>
<path d="M58.288 73L61.384 64.36H62.968L60.124 73H58.288ZM64.624 73L61.792 64.36H63.448L66.544 73H64.624ZM59.92 69.652H64.768V71.092H59.92V69.652ZM69.9412 73.12C69.3012 73.12 68.7372 72.984 68.2492 72.712C67.7612 72.44 67.3772 72.064 67.0972 71.584C66.8252 71.104 66.6892 70.556 66.6892 69.94C66.6892 69.324 66.8252 68.776 67.0972 68.296C67.3772 67.816 67.7612 67.44 68.2492 67.168C68.7372 66.896 69.3012 66.76 69.9412 66.76C70.4772 66.76 70.9572 66.86 71.3812 67.06C71.8132 67.252 72.1652 67.52 72.4372 67.864C72.7172 68.208 72.8972 68.612 72.9772 69.076H71.2372C71.1492 68.78 70.9892 68.556 70.7572 68.404C70.5332 68.252 70.2692 68.176 69.9652 68.176C69.6772 68.176 69.4252 68.248 69.2092 68.392C69.0012 68.536 68.8412 68.74 68.7292 69.004C68.6172 69.268 68.5612 69.58 68.5612 69.94C68.5612 70.3 68.6172 70.612 68.7292 70.876C68.8412 71.14 69.0012 71.344 69.2092 71.488C69.4252 71.632 69.6772 71.704 69.9652 71.704C70.2692 71.704 70.5332 71.628 70.7572 71.476C70.9892 71.324 71.1492 71.1 71.2372 70.804H72.9772C72.8972 71.268 72.7172 71.672 72.4372 72.016C72.1652 72.36 71.8132 72.632 71.3812 72.832C70.9572 73.024 70.4772 73.12 69.9412 73.12ZM76.7295 73.132C75.9455 73.132 75.3615 72.944 74.9775 72.568C74.6015 72.184 74.4135 71.604 74.4135 70.828V65.512L76.2135 64.84V70.888C76.2135 71.16 76.2895 71.364 76.4415 71.5C76.5935 71.636 76.8295 71.704 77.1495 71.704C77.2695 71.704 77.3815 71.692 77.4855 71.668C77.5895 71.644 77.6935 71.616 77.7975 71.584V72.952C77.6935 73.008 77.5455 73.052 77.3535 73.084C77.1695 73.116 76.9615 73.132 76.7295 73.132ZM73.2735 68.248V66.88H77.7975V68.248H73.2735ZM78.8177 73V66.88H80.6177V73H78.8177ZM78.7577 66.064V64.12H80.6777V66.064H78.7577ZM83.6146 73L81.2026 66.88H83.1346L85.0186 72.592H84.0106L85.8826 66.88H87.7666L85.3546 73H83.6146ZM91.1547 73.12C90.4747 73.12 89.8827 72.988 89.3787 72.724C88.8747 72.452 88.4827 72.076 88.2027 71.596C87.9307 71.116 87.7947 70.564 87.7947 69.94C87.7947 69.308 87.9307 68.756 88.2027 68.284C88.4827 67.804 88.8707 67.432 89.3667 67.168C89.8627 66.896 90.4387 66.76 91.0947 66.76C91.7267 66.76 92.2747 66.888 92.7387 67.144C93.2027 67.4 93.5627 67.756 93.8187 68.212C94.0747 68.668 94.2027 69.204 94.2027 69.82C94.2027 69.948 94.1987 70.068 94.1907 70.18C94.1827 70.284 94.1707 70.384 94.1547 70.48H88.8507V69.292H92.7027L92.3907 69.508C92.3907 69.012 92.2707 68.648 92.0307 68.416C91.7987 68.176 91.4787 68.056 91.0707 68.056C90.5987 68.056 90.2307 68.216 89.9667 68.536C89.7107 68.856 89.5827 69.336 89.5827 69.976C89.5827 70.6 89.7107 71.064 89.9667 71.368C90.2307 71.672 90.6227 71.824 91.1427 71.824C91.4307 71.824 91.6787 71.776 91.8867 71.68C92.0947 71.584 92.2507 71.428 92.3547 71.212H94.0467C93.8467 71.804 93.5027 72.272 93.0147 72.616C92.5347 72.952 91.9147 73.12 91.1547 73.12Z" fill="#070707"/>
<path d="M118 70.5H115.472C115.49 70.3339 115.5 70.167 115.5 70C115.5 68.8065 115.026 67.6619 114.182 66.818C113.338 65.9741 112.193 65.5 111 65.5C109.807 65.5 108.662 65.9741 107.818 66.818C106.974 67.6619 106.5 68.8065 106.5 70C106.5 70.167 106.51 70.3339 106.528 70.5H104C103.867 70.5 103.74 70.5526 103.646 70.6464C103.553 70.7402 103.5 70.8673 103.5 71C103.5 71.1326 103.553 71.2597 103.646 71.3535C103.74 71.4473 103.867 71.5 104 71.5H118C118.133 71.5 118.26 71.4473 118.354 71.3535C118.447 71.2597 118.5 71.1326 118.5 71C118.5 70.8673 118.447 70.7402 118.354 70.6464C118.26 70.5526 118.133 70.5 118 70.5ZM107.5 70C107.499 69.5186 107.597 69.0423 107.789 68.6007C107.98 68.1592 108.261 67.7618 108.613 67.4336C108.965 67.1053 109.381 66.8532 109.835 66.693C110.289 66.5327 110.771 66.4678 111.251 66.5023C111.731 66.5367 112.199 66.6699 112.625 66.8933C113.051 67.1167 113.427 67.4257 113.728 67.8009C114.03 68.1761 114.251 68.6094 114.377 69.0738C114.504 69.5382 114.533 70.0237 114.463 70.5H107.537C107.513 70.3344 107.5 70.1673 107.5 70ZM116.5 73.5C116.5 73.6326 116.447 73.7597 116.354 73.8535C116.26 73.9473 116.133 74 116 74H106C105.867 74 105.74 73.9473 105.646 73.8535C105.553 73.7597 105.5 73.6326 105.5 73.5C105.5 73.3673 105.553 73.2402 105.646 73.1464C105.74 73.0526 105.867 73 106 73H116C116.133 73 116.26 73.0526 116.354 73.1464C116.447 73.2402 116.5 73.3673 116.5 73.5ZM107.552 63.7237C107.493 63.605 107.483 63.4676 107.525 63.3417C107.567 63.2159 107.658 63.1118 107.776 63.0525C107.895 62.9931 108.032 62.9833 108.158 63.0253C108.284 63.0673 108.388 63.1575 108.448 63.2762L108.948 64.2762C108.977 64.335 108.994 64.3989 108.999 64.4645C109.004 64.53 108.995 64.5958 108.975 64.6582C108.954 64.7205 108.921 64.7781 108.878 64.8278C108.835 64.8774 108.783 64.9181 108.724 64.9475C108.665 64.9768 108.601 64.9944 108.535 64.999C108.47 65.0037 108.404 64.9954 108.342 64.9746C108.279 64.9538 108.222 64.921 108.172 64.8779C108.123 64.8349 108.082 64.7825 108.052 64.7237L107.552 63.7237ZM104.053 66.7762C104.082 66.7175 104.123 66.6651 104.172 66.6221C104.222 66.5791 104.28 66.5463 104.342 66.5256C104.404 66.5048 104.47 66.4966 104.536 66.5013C104.601 66.506 104.665 66.5236 104.724 66.5531L105.724 67.0531C105.842 67.1124 105.933 67.2164 105.974 67.3423C106.016 67.4681 106.007 67.6054 105.947 67.724C105.888 67.8426 105.784 67.9328 105.658 67.9747C105.532 68.0166 105.395 68.0068 105.276 67.9475L104.276 67.4475C104.217 67.4181 104.165 67.3774 104.122 67.3278C104.079 67.2782 104.046 67.2206 104.025 67.1582C104.004 67.0959 103.996 67.03 104.001 66.9645C104.006 66.8989 104.023 66.835 104.053 66.7762ZM116.052 67.7237C115.993 67.6051 115.984 67.4678 116.026 67.3421C116.067 67.2163 116.158 67.1124 116.276 67.0531L117.276 66.5531C117.335 66.5237 117.399 66.5062 117.464 66.5015C117.53 66.4968 117.596 66.5051 117.658 66.5258C117.72 66.5466 117.778 66.5794 117.828 66.6224C117.877 66.6654 117.918 66.7178 117.947 66.7765C117.977 66.8352 117.994 66.8992 117.999 66.9647C118.003 67.0302 117.995 67.096 117.974 67.1583C117.954 67.2206 117.921 67.2782 117.878 67.3278C117.835 67.3774 117.782 67.4181 117.724 67.4475L116.724 67.9475C116.665 67.9769 116.601 67.9944 116.535 67.9991C116.47 68.0038 116.404 67.9955 116.342 67.9747C116.279 67.9539 116.222 67.9211 116.172 67.878C116.123 67.8349 116.082 67.7825 116.052 67.7237ZM113.052 64.2762L113.552 63.2762C113.612 63.1575 113.716 63.0673 113.842 63.0253C113.968 62.9833 114.105 62.9931 114.224 63.0525C114.342 63.1118 114.433 63.2159 114.475 63.3417C114.517 63.4676 114.507 63.605 114.448 63.7237L113.948 64.7237C113.888 64.8424 113.784 64.9326 113.658 64.9746C113.532 65.0166 113.395 65.0068 113.276 64.9475C113.158 64.8881 113.067 64.7841 113.025 64.6582C112.983 64.5323 112.993 64.3949 113.052 64.2762Z" fill="#4D4D50"/>
<path d="M124.728 73V71.56H126.912C127.536 71.56 128.064 71.436 128.496 71.188C128.936 70.932 129.268 70.584 129.492 70.144C129.724 69.704 129.84 69.2 129.84 68.632C129.84 68.072 129.728 67.58 129.504 67.156C129.28 66.732 128.948 66.4 128.508 66.16C128.076 65.92 127.544 65.8 126.912 65.8H124.764V64.36H126.912C127.88 64.36 128.724 64.536 129.444 64.888C130.164 65.232 130.72 65.728 131.112 66.376C131.512 67.016 131.712 67.776 131.712 68.656C131.712 69.536 131.512 70.304 131.112 70.96C130.712 71.608 130.152 72.112 129.432 72.472C128.72 72.824 127.884 73 126.924 73H124.728ZM123.6 73V64.36H125.448V73H123.6ZM136.455 73C136.407 72.824 136.371 72.636 136.347 72.436C136.331 72.236 136.323 72.004 136.323 71.74H136.275V68.848C136.275 68.6 136.191 68.408 136.023 68.272C135.863 68.128 135.623 68.056 135.303 68.056C134.999 68.056 134.755 68.108 134.571 68.212C134.395 68.316 134.279 68.468 134.223 68.668H132.507C132.587 68.116 132.871 67.66 133.359 67.3C133.847 66.94 134.515 66.76 135.363 66.76C136.243 66.76 136.915 66.956 137.379 67.348C137.843 67.74 138.075 68.304 138.075 69.04V71.74C138.075 71.94 138.087 72.144 138.111 72.352C138.143 72.552 138.191 72.768 138.255 73H136.455ZM134.319 73.12C133.711 73.12 133.227 72.968 132.867 72.664C132.507 72.352 132.327 71.94 132.327 71.428C132.327 70.86 132.539 70.404 132.963 70.06C133.395 69.708 133.995 69.48 134.763 69.376L136.551 69.124V70.168L135.063 70.396C134.743 70.444 134.507 70.532 134.355 70.66C134.203 70.788 134.127 70.964 134.127 71.188C134.127 71.388 134.199 71.54 134.343 71.644C134.487 71.748 134.679 71.8 134.919 71.8C135.295 71.8 135.615 71.7 135.879 71.5C136.143 71.292 136.275 71.052 136.275 70.78L136.443 71.74C136.267 72.196 135.999 72.54 135.639 72.772C135.279 73.004 134.839 73.12 134.319 73.12ZM139.2 73V66.88H141V73H139.2ZM139.14 66.064V64.12H141.06V66.064H139.14ZM142.435 73V64.36H144.235V73H142.435ZM145.981 75.46L147.673 71.716L147.985 71.2L149.569 66.88H151.489L147.781 75.46H145.981ZM147.277 72.88L144.925 66.88H146.869L148.801 72.352L147.277 72.88Z" fill="#070707"/>
<g filter="url(#filter0_dii_40002745_43276)">
<path d="M396 69C396 61.8203 401.82 56 409 56H417C424.18 56 430 61.8203 430 69C430 76.1797 424.18 82 417 82H409C401.82 82 396 76.1797 396 69Z" fill="#EFEFEF"/>
<path d="M409 56.5H417C423.904 56.5 429.5 62.0964 429.5 69C429.5 75.9036 423.904 81.5 417 81.5H409C402.096 81.5 396.5 75.9036 396.5 69C396.5 62.0964 402.096 56.5 409 56.5Z" stroke="#E0E0E0" stroke-opacity="0.04"/>
<path d="M407.75 65.5C407.75 65.384 407.796 65.2727 407.878 65.1906C407.96 65.1086 408.071 65.0625 408.188 65.0625H417.812C417.929 65.0625 418.04 65.1086 418.122 65.1906C418.204 65.2727 418.25 65.384 418.25 65.5C418.25 65.616 418.204 65.7273 418.122 65.8094C418.04 65.8914 417.929 65.9375 417.812 65.9375H408.188C408.071 65.9375 407.96 65.8914 407.878 65.8094C407.796 65.7273 407.75 65.616 407.75 65.5ZM408.188 69.4375H412.125C412.241 69.4375 412.352 69.3914 412.434 69.3094C412.516 69.2273 412.562 69.116 412.562 69C412.562 68.884 412.516 68.7727 412.434 68.6906C412.352 68.6086 412.241 68.5625 412.125 68.5625H408.188C408.071 68.5625 407.96 68.6086 407.878 68.6906C407.796 68.7727 407.75 68.884 407.75 69C407.75 69.116 407.796 69.2273 407.878 69.3094C407.96 69.3914 408.071 69.4375 408.188 69.4375ZM413 72.0625H408.188C408.071 72.0625 407.96 72.1086 407.878 72.1906C407.796 72.2727 407.75 72.384 407.75 72.5C407.75 72.616 407.796 72.7273 407.878 72.8094C407.96 72.8914 408.071 72.9375 408.188 72.9375H413C413.116 72.9375 413.227 72.8914 413.309 72.8094C413.391 72.7273 413.438 72.616 413.438 72.5C413.438 72.384 413.391 72.2727 413.309 72.1906C413.227 72.1086 413.116 72.0625 413 72.0625ZM418.997 72.8095C418.956 72.8502 418.908 72.8825 418.855 72.9045C418.802 72.9265 418.745 72.9378 418.688 72.9378C418.63 72.9378 418.573 72.9265 418.52 72.9045C418.467 72.8825 418.419 72.8502 418.378 72.8095L417.266 71.6994C416.813 71.9978 416.266 72.1177 415.731 72.0359C415.195 71.954 414.709 71.6762 414.366 71.2563C414.023 70.8363 413.849 70.3042 413.876 69.7629C413.904 69.2217 414.131 68.7099 414.514 68.3267C414.897 67.9435 415.409 67.7161 415.95 67.6888C416.492 67.6614 417.024 67.8359 417.444 68.1785C417.864 68.521 418.141 69.0073 418.223 69.543C418.305 70.0787 418.185 70.6258 417.887 71.0781L418.997 72.1883C419.038 72.229 419.071 72.2773 419.093 72.3307C419.115 72.384 419.126 72.4412 419.126 72.4989C419.126 72.5567 419.115 72.6138 419.093 72.6672C419.071 72.7205 419.038 72.7689 418.997 72.8095ZM416.062 71.1875C416.322 71.1875 416.576 71.1105 416.792 70.9663C417.008 70.8221 417.176 70.6171 417.275 70.3773C417.374 70.1374 417.4 69.8735 417.35 69.6189C417.299 69.3643 417.174 69.1305 416.991 68.9469C416.807 68.7634 416.573 68.6384 416.319 68.5877C416.064 68.5371 415.8 68.5631 415.56 68.6624C415.32 68.7617 415.115 68.93 414.971 69.1458C414.827 69.3617 414.75 69.6154 414.75 69.875C414.75 70.2231 414.888 70.5569 415.134 70.8031C415.381 71.0492 415.714 71.1875 416.062 71.1875Z" fill="#7A7A7D"/>
</g>
<g filter="url(#filter1_dii_40002745_43276)">
<path d="M442 69C442 61.8203 447.82 56 455 56H463C470.18 56 476 61.8203 476 69C476 76.1797 470.18 82 463 82H455C447.82 82 442 76.1797 442 69Z" fill="#EFEFEF"/>
<path d="M455 56.5H463C469.904 56.5 475.5 62.0964 475.5 69C475.5 75.9036 469.904 81.5 463 81.5H455C448.096 81.5 442.5 75.9036 442.5 69C442.5 62.0964 448.096 56.5 455 56.5Z" stroke="#E0E0E0" stroke-opacity="0.04"/>
<path d="M464.25 68.9999C464.25 69.116 464.203 69.2273 464.121 69.3093C464.039 69.3914 463.928 69.4374 463.812 69.4374H457.687C457.571 69.4374 457.46 69.3914 457.378 69.3093C457.296 69.2273 457.25 69.116 457.25 68.9999C457.25 68.8839 457.296 68.7726 457.378 68.6906C457.46 68.6085 457.571 68.5624 457.687 68.5624H463.812C463.928 68.5624 464.039 68.6085 464.121 68.6906C464.203 68.7726 464.25 68.8839 464.25 68.9999ZM457.687 65.9374H463.812C463.928 65.9374 464.039 65.8914 464.121 65.8093C464.203 65.7273 464.25 65.616 464.25 65.4999C464.25 65.3839 464.203 65.2726 464.121 65.1906C464.039 65.1085 463.928 65.0624 463.812 65.0624H457.687C457.571 65.0624 457.46 65.1085 457.378 65.1906C457.296 65.2726 457.25 65.3839 457.25 65.4999C457.25 65.616 457.296 65.7273 457.378 65.8093C457.46 65.8914 457.571 65.9374 457.687 65.9374ZM463.812 72.0624H457.687C457.571 72.0624 457.46 72.1085 457.378 72.1906C457.296 72.2726 457.25 72.3839 457.25 72.4999C457.25 72.616 457.296 72.7273 457.378 72.8093C457.46 72.8914 457.571 72.9374 457.687 72.9374H463.812C463.928 72.9374 464.039 72.8914 464.121 72.8093C464.203 72.7273 464.25 72.616 464.25 72.4999C464.25 72.3839 464.203 72.2726 464.121 72.1906C464.039 72.1085 463.928 72.0624 463.812 72.0624ZM454.383 65.0165L454.625 64.8951V67.6874C454.625 67.8035 454.671 67.9148 454.753 67.9968C454.835 68.0789 454.946 68.1249 455.062 68.1249C455.178 68.1249 455.289 68.0789 455.371 67.9968C455.453 67.9148 455.5 67.8035 455.5 67.6874V64.1874C455.5 64.1128 455.481 64.0394 455.444 63.9743C455.408 63.9091 455.356 63.8543 455.292 63.815C455.229 63.7758 455.156 63.7534 455.082 63.7501C455.007 63.7467 454.933 63.7625 454.866 63.7959L453.991 64.2334C453.887 64.2853 453.808 64.3764 453.772 64.4865C453.754 64.541 453.746 64.5986 453.75 64.656C453.754 64.7133 453.77 64.7693 453.795 64.8207C453.821 64.8721 453.857 64.918 453.9 64.9557C453.944 64.9933 453.994 65.0221 454.049 65.0403C454.159 65.077 454.279 65.0684 454.383 65.0165ZM456.362 70.5706C456.338 70.3973 456.279 70.2307 456.189 70.0808C456.098 69.9309 455.979 69.8008 455.837 69.6983C455.553 69.4921 455.2 69.4037 454.853 69.4516C454.505 69.4995 454.189 69.68 453.972 69.9553C453.888 70.0621 453.823 70.1814 453.776 70.3086C453.752 70.3634 453.74 70.4225 453.739 70.4824C453.739 70.5422 453.751 70.6015 453.774 70.6565C453.798 70.7116 453.832 70.7612 453.876 70.8024C453.919 70.8436 453.971 70.8754 454.027 70.8959C454.083 70.9164 454.143 70.9252 454.203 70.9216C454.262 70.9181 454.321 70.9023 454.374 70.8753C454.428 70.8483 454.475 70.8106 454.513 70.7646C454.551 70.7186 454.58 70.6652 454.597 70.6078C454.612 70.5658 454.634 70.5265 454.661 70.4913C454.738 70.3951 454.85 70.3324 454.972 70.3162C455.094 70.3 455.218 70.3316 455.317 70.4043C455.365 70.4382 455.406 70.4815 455.436 70.5315C455.467 70.5815 455.487 70.6372 455.496 70.6953C455.503 70.751 455.5 70.8078 455.485 70.8621C455.47 70.9164 455.445 70.9672 455.41 71.0114C455.408 71.0133 455.407 71.0153 455.405 71.0174L453.836 73.113C453.788 73.178 453.758 73.2553 453.751 73.3362C453.744 73.4171 453.759 73.4984 453.796 73.571C453.832 73.6436 453.888 73.7046 453.957 73.7473C454.026 73.7899 454.106 73.8125 454.187 73.8124H455.937C456.053 73.8124 456.164 73.7664 456.246 73.6843C456.328 73.6023 456.375 73.491 456.375 73.3749C456.375 73.2589 456.328 73.1476 456.246 73.0656C456.164 72.9835 456.053 72.9374 455.937 72.9374H455.062L456.105 71.5413C456.211 71.405 456.289 71.2488 456.333 71.082C456.377 70.9153 456.387 70.7413 456.362 70.5706Z" fill="#7A7A7D"/>
</g>
<path d="M17.032 114V105.36H18.016V114H17.032ZM17.536 110.292V109.428H22.192V110.292H17.536ZM17.536 106.224V105.36H22.528V106.224H17.536ZM25.5848 114.12C25.1848 114.12 24.8288 114.04 24.5168 113.88C24.2048 113.712 23.9608 113.48 23.7848 113.184C23.6088 112.88 23.5208 112.532 23.5208 112.14V107.88H24.4808V111.888C24.4808 112.352 24.5928 112.7 24.8168 112.932C25.0488 113.164 25.3768 113.28 25.8008 113.28C26.1848 113.28 26.5248 113.192 26.8208 113.016C27.1168 112.84 27.3488 112.596 27.5168 112.284C27.6928 111.964 27.7808 111.6 27.7808 111.192L27.9368 112.644C27.7368 113.1 27.4248 113.46 27.0008 113.724C26.5768 113.988 26.1048 114.12 25.5848 114.12ZM27.8408 114V112.56H27.7808V107.88H28.7408V114H27.8408ZM30.6592 114V107.88H31.5592V109.32H31.6192V114H30.6592ZM35.0392 114V109.992C35.0392 109.528 34.9232 109.18 34.6912 108.948C34.4592 108.716 34.1152 108.6 33.6592 108.6C33.2592 108.6 32.9032 108.688 32.5912 108.864C32.2872 109.04 32.0472 109.284 31.8712 109.596C31.7032 109.908 31.6192 110.272 31.6192 110.688L31.4632 109.236C31.6712 108.78 31.9872 108.42 32.4112 108.156C32.8432 107.892 33.3312 107.76 33.8752 107.76C34.5152 107.76 35.0272 107.944 35.4112 108.312C35.8032 108.672 35.9992 109.148 35.9992 109.74V114H35.0392ZM42.2948 114V112.572L42.4148 112.608C42.2628 113.072 41.9828 113.44 41.5748 113.712C41.1748 113.984 40.6948 114.12 40.1348 114.12C39.5828 114.12 39.0988 113.988 38.6828 113.724C38.2748 113.46 37.9548 113.092 37.7228 112.62C37.4988 112.148 37.3868 111.596 37.3868 110.964C37.3868 110.324 37.5028 109.764 37.7348 109.284C37.9668 108.804 38.2908 108.432 38.7068 108.168C39.1228 107.904 39.6108 107.772 40.1708 107.772C40.7468 107.772 41.2308 107.912 41.6228 108.192C42.0148 108.472 42.2828 108.868 42.4268 109.38L42.2348 109.404V105.36H43.1948V114H42.2948ZM40.3148 113.28C40.9308 113.28 41.4108 113.072 41.7548 112.656C42.1068 112.232 42.2828 111.656 42.2828 110.928C42.2828 110.216 42.1068 109.652 41.7548 109.236C41.4028 108.82 40.9228 108.612 40.3148 108.612C39.7068 108.612 39.2308 108.82 38.8868 109.236C38.5428 109.652 38.3708 110.228 38.3708 110.964C38.3708 111.684 38.5428 112.252 38.8868 112.668C39.2308 113.076 39.7068 113.28 40.3148 113.28ZM47.6282 114.12C47.0442 114.12 46.5282 113.984 46.0802 113.712C45.6322 113.432 45.2802 113.052 45.0242 112.572C44.7682 112.092 44.6402 111.54 44.6402 110.916C44.6402 110.292 44.7642 109.744 45.0122 109.272C45.2682 108.792 45.6242 108.42 46.0802 108.156C46.5362 107.892 47.0602 107.76 47.6522 107.76C48.2202 107.76 48.7122 107.884 49.1282 108.132C49.5522 108.38 49.8762 108.728 50.1002 109.176C50.3322 109.624 50.4482 110.152 50.4482 110.76C50.4482 110.84 50.4442 110.916 50.4362 110.988C50.4362 111.06 50.4282 111.14 50.4122 111.228H45.3602V110.424H49.8242L49.5122 110.868C49.5122 110.132 49.3482 109.568 49.0202 109.176C48.7002 108.776 48.2442 108.576 47.6522 108.576C47.0442 108.576 46.5522 108.788 46.1762 109.212C45.8082 109.628 45.6242 110.192 45.6242 110.904C45.6242 111.632 45.8082 112.216 46.1762 112.656C46.5522 113.088 47.0522 113.304 47.6762 113.304C48.0682 113.304 48.4122 113.22 48.7082 113.052C49.0042 112.876 49.2202 112.628 49.3562 112.308H50.2682C50.0682 112.868 49.7322 113.312 49.2602 113.64C48.7962 113.96 48.2522 114.12 47.6282 114.12ZM56.3456 114V112.572L56.4656 112.608C56.3136 113.072 56.0336 113.44 55.6256 113.712C55.2256 113.984 54.7456 114.12 54.1856 114.12C53.6336 114.12 53.1496 113.988 52.7336 113.724C52.3256 113.46 52.0056 113.092 51.7736 112.62C51.5496 112.148 51.4376 111.596 51.4376 110.964C51.4376 110.324 51.5536 109.764 51.7856 109.284C52.0176 108.804 52.3416 108.432 52.7576 108.168C53.1736 107.904 53.6616 107.772 54.2216 107.772C54.7976 107.772 55.2816 107.912 55.6736 108.192C56.0656 108.472 56.3336 108.868 56.4776 109.38L56.2856 109.404V105.36H57.2456V114H56.3456ZM54.3656 113.28C54.9816 113.28 55.4616 113.072 55.8056 112.656C56.1576 112.232 56.3336 111.656 56.3336 110.928C56.3336 110.216 56.1576 109.652 55.8056 109.236C55.4536 108.82 54.9736 108.612 54.3656 108.612C53.7576 108.612 53.2816 108.82 52.9376 109.236C52.5936 109.652 52.4216 110.228 52.4216 110.964C52.4216 111.684 52.5936 112.252 52.9376 112.668C53.2816 113.076 53.7576 113.28 54.3656 113.28Z" fill="#070707"/>
<path d="M67.75 110C67.75 110.148 67.706 110.293 67.6236 110.417C67.5412 110.54 67.4241 110.636 67.287 110.693C67.15 110.75 66.9992 110.765 66.8537 110.736C66.7082 110.707 66.5746 110.635 66.4697 110.53C66.3648 110.425 66.2934 110.292 66.2644 110.146C66.2355 110.001 66.2503 109.85 66.3071 109.713C66.3639 109.576 66.46 109.459 66.5833 109.376C66.7067 109.294 66.8517 109.25 67 109.25C67.1989 109.25 67.3897 109.329 67.5303 109.47C67.671 109.61 67.75 109.801 67.75 110Z" fill="#7A7A7D"/>
<path d="M76.104 114V112.896L78.78 110.052C79.236 109.564 79.568 109.132 79.776 108.756C79.984 108.372 80.088 108.004 80.088 107.652C80.088 107.164 79.952 106.78 79.68 106.5C79.416 106.22 79.052 106.08 78.588 106.08C78.076 106.08 77.672 106.224 77.376 106.512C77.088 106.8 76.944 107.196 76.944 107.7H75.864C75.88 107.172 76 106.716 76.224 106.332C76.456 105.94 76.772 105.64 77.172 105.432C77.58 105.224 78.052 105.12 78.588 105.12C79.116 105.12 79.572 105.224 79.956 105.432C80.348 105.632 80.648 105.92 80.856 106.296C81.064 106.672 81.168 107.12 81.168 107.64C81.168 108.136 81.036 108.628 80.772 109.116C80.508 109.604 80.076 110.16 79.476 110.784L77.316 113.016H81.312V114H76.104ZM85.7953 114.12C85.2593 114.12 84.7913 114.016 84.3913 113.808C83.9993 113.592 83.6953 113.292 83.4793 112.908C83.2633 112.516 83.1553 112.06 83.1553 111.54V107.7C83.1553 107.172 83.2633 106.716 83.4793 106.332C83.6953 105.948 83.9993 105.652 84.3913 105.444C84.7913 105.228 85.2593 105.12 85.7953 105.12C86.3393 105.12 86.8073 105.228 87.1993 105.444C87.5913 105.652 87.8953 105.948 88.1113 106.332C88.3273 106.716 88.4353 107.172 88.4353 107.7V111.54C88.4353 112.06 88.3273 112.516 88.1113 112.908C87.8953 113.292 87.5873 113.592 87.1873 113.808C86.7953 114.016 86.3313 114.12 85.7953 114.12ZM85.7953 113.196C86.2753 113.196 86.6593 113.044 86.9473 112.74C87.2433 112.428 87.3913 112.028 87.3913 111.54V107.7C87.3913 107.212 87.2433 106.816 86.9473 106.512C86.6593 106.2 86.2753 106.044 85.7953 106.044C85.3153 106.044 84.9273 106.2 84.6313 106.512C84.3433 106.816 84.1993 107.212 84.1993 107.7V111.54C84.1993 112.028 84.3433 112.428 84.6313 112.74C84.9273 113.044 85.3153 113.196 85.7953 113.196ZM85.7953 110.328C85.5793 110.328 85.4033 110.26 85.2673 110.124C85.1393 109.988 85.0753 109.808 85.0753 109.584C85.0753 109.368 85.1393 109.196 85.2673 109.068C85.4033 108.932 85.5793 108.864 85.7953 108.864C86.0113 108.864 86.1833 108.932 86.3113 109.068C86.4473 109.196 86.5153 109.368 86.5153 109.584C86.5153 109.808 86.4473 109.988 86.3113 110.124C86.1833 110.26 86.0113 110.328 85.7953 110.328ZM92.9906 114.12C92.4546 114.12 91.9866 114.016 91.5866 113.808C91.1946 113.592 90.8906 113.292 90.6746 112.908C90.4586 112.516 90.3506 112.06 90.3506 111.54V107.7C90.3506 107.172 90.4586 106.716 90.6746 106.332C90.8906 105.948 91.1946 105.652 91.5866 105.444C91.9866 105.228 92.4546 105.12 92.9906 105.12C93.5346 105.12 94.0026 105.228 94.3946 105.444C94.7866 105.652 95.0906 105.948 95.3066 106.332C95.5226 106.716 95.6306 107.172 95.6306 107.7V111.54C95.6306 112.06 95.5226 112.516 95.3066 112.908C95.0906 113.292 94.7826 113.592 94.3826 113.808C93.9906 114.016 93.5266 114.12 92.9906 114.12ZM92.9906 113.196C93.4706 113.196 93.8546 113.044 94.1426 112.74C94.4386 112.428 94.5866 112.028 94.5866 111.54V107.7C94.5866 107.212 94.4386 106.816 94.1426 106.512C93.8546 106.2 93.4706 106.044 92.9906 106.044C92.5106 106.044 92.1226 106.2 91.8266 106.512C91.5386 106.816 91.3946 107.212 91.3946 107.7V111.54C91.3946 112.028 91.5386 112.428 91.8266 112.74C92.1226 113.044 92.5106 113.196 92.9906 113.196ZM92.9906 110.328C92.7746 110.328 92.5986 110.26 92.4626 110.124C92.3346 109.988 92.2706 109.808 92.2706 109.584C92.2706 109.368 92.3346 109.196 92.4626 109.068C92.5986 108.932 92.7746 108.864 92.9906 108.864C93.2066 108.864 93.3786 108.932 93.5066 109.068C93.6426 109.196 93.7106 109.368 93.7106 109.584C93.7106 109.808 93.6426 109.988 93.5066 110.124C93.3786 110.26 93.2066 110.328 92.9906 110.328ZM100.186 114.12C99.6499 114.12 99.1819 114.016 98.7819 113.808C98.3899 113.592 98.0859 113.292 97.8699 112.908C97.6539 112.516 97.5459 112.06 97.5459 111.54V107.7C97.5459 107.172 97.6539 106.716 97.8699 106.332C98.0859 105.948 98.3899 105.652 98.7819 105.444C99.1819 105.228 99.6499 105.12 100.186 105.12C100.73 105.12 101.198 105.228 101.59 105.444C101.982 105.652 102.286 105.948 102.502 106.332C102.718 106.716 102.826 107.172 102.826 107.7V111.54C102.826 112.06 102.718 112.516 102.502 112.908C102.286 113.292 101.978 113.592 101.578 113.808C101.186 114.016 100.722 114.12 100.186 114.12ZM100.186 113.196C100.666 113.196 101.05 113.044 101.338 112.74C101.634 112.428 101.782 112.028 101.782 111.54V107.7C101.782 107.212 101.634 106.816 101.338 106.512C101.05 106.2 100.666 106.044 100.186 106.044C99.7059 106.044 99.3179 106.2 99.0219 106.512C98.7339 106.816 98.5899 107.212 98.5899 107.7V111.54C98.5899 112.028 98.7339 112.428 99.0219 112.74C99.3179 113.044 99.7059 113.196 100.186 113.196ZM100.186 110.328C99.9699 110.328 99.7939 110.26 99.6579 110.124C99.5299 109.988 99.4659 109.808 99.4659 109.584C99.4659 109.368 99.5299 109.196 99.6579 109.068C99.7939 108.932 99.9699 108.864 100.186 108.864C100.402 108.864 100.574 108.932 100.702 109.068C100.838 109.196 100.906 109.368 100.906 109.584C100.906 109.808 100.838 109.988 100.702 110.124C100.574 110.26 100.402 110.328 100.186 110.328Z" fill="#070707"/>
<circle cx="116" cy="110" r="8" fill="black"/>
<path fill-rule="evenodd" clip-rule="evenodd" d="M112.936 112.205C112.966 112.172 113.003 112.146 113.044 112.127C113.085 112.109 113.129 112.1 113.174 112.1L120.505 112.106C120.536 112.106 120.567 112.115 120.593 112.132C120.619 112.149 120.64 112.174 120.652 112.202C120.665 112.231 120.669 112.262 120.664 112.293C120.659 112.324 120.645 112.353 120.624 112.376L119.063 114.095C119.033 114.128 118.996 114.154 118.955 114.172C118.914 114.191 118.87 114.2 118.825 114.2L111.494 114.194C111.463 114.194 111.432 114.185 111.406 114.168C111.38 114.151 111.359 114.126 111.347 114.098C111.334 114.069 111.33 114.037 111.335 114.007C111.34 113.976 111.354 113.947 111.375 113.924L112.936 112.205ZM120.624 110.774C120.645 110.797 120.659 110.826 120.664 110.857C120.669 110.887 120.665 110.919 120.652 110.948C120.64 110.976 120.619 111.001 120.593 111.018C120.567 111.035 120.536 111.044 120.505 111.044L113.174 111.05C113.129 111.05 113.085 111.041 113.044 111.022C113.003 111.004 112.966 110.978 112.936 110.945L111.375 109.225C111.354 109.202 111.34 109.173 111.335 109.142C111.33 109.111 111.334 109.08 111.347 109.051C111.359 109.023 111.38 108.998 111.406 108.981C111.432 108.964 111.463 108.955 111.494 108.955L118.825 108.949C118.87 108.949 118.914 108.958 118.955 108.976C118.996 108.995 119.033 109.021 119.063 109.054L120.624 110.774ZM112.936 105.905C112.966 105.872 113.003 105.846 113.044 105.827C113.085 105.809 113.129 105.8 113.174 105.8L120.505 105.806C120.536 105.806 120.567 105.815 120.593 105.832C120.619 105.849 120.64 105.874 120.652 105.902C120.665 105.931 120.669 105.962 120.664 105.993C120.659 106.024 120.645 106.053 120.624 106.076L119.063 107.795C119.033 107.828 118.996 107.854 118.955 107.872C118.914 107.891 118.87 107.9 118.825 107.9L111.494 107.894C111.463 107.894 111.432 107.885 111.406 107.868C111.38 107.851 111.359 107.826 111.347 107.798C111.334 107.769 111.33 107.737 111.335 107.707C111.34 107.676 111.354 107.647 111.375 107.624L112.936 105.905Z" fill="url(#paint0_linear_40002745_43276)"/>
<path d="M131.96 114.108C130.952 114.108 130.148 113.86 129.548 113.364C128.956 112.868 128.608 112.16 128.504 111.24H129.464C129.552 111.904 129.804 112.404 130.22 112.74C130.636 113.076 131.212 113.244 131.948 113.244C132.572 113.244 133.04 113.128 133.352 112.896C133.672 112.656 133.832 112.308 133.832 111.852C133.832 111.46 133.724 111.148 133.508 110.916C133.292 110.684 132.956 110.492 132.5 110.34L131.048 109.836C130.312 109.58 129.768 109.272 129.416 108.912C129.064 108.544 128.888 108.08 128.888 107.52C128.888 107.056 129.004 106.656 129.236 106.32C129.468 105.976 129.796 105.708 130.22 105.516C130.644 105.324 131.136 105.228 131.696 105.228C132.56 105.228 133.252 105.456 133.772 105.912C134.292 106.36 134.592 107 134.672 107.832H133.712C133.608 107.232 133.392 106.792 133.064 106.512C132.744 106.232 132.28 106.092 131.672 106.092C131.096 106.092 130.648 106.208 130.328 106.44C130.008 106.672 129.848 107 129.848 107.424C129.848 107.784 129.96 108.072 130.184 108.288C130.408 108.504 130.756 108.692 131.228 108.852L132.776 109.392C133.448 109.624 133.952 109.94 134.288 110.34C134.624 110.732 134.792 111.232 134.792 111.84C134.792 112.56 134.544 113.12 134.048 113.52C133.56 113.912 132.864 114.108 131.96 114.108ZM140.017 114.12C139.417 114.12 138.865 114.012 138.361 113.796C137.865 113.572 137.433 113.26 137.065 112.86C136.697 112.452 136.409 111.976 136.201 111.432C136.001 110.888 135.901 110.292 135.901 109.644C135.901 108.788 136.077 108.028 136.429 107.364C136.781 106.7 137.265 106.18 137.881 105.804C138.505 105.428 139.213 105.24 140.005 105.24C140.813 105.24 141.525 105.428 142.141 105.804C142.765 106.18 143.253 106.7 143.605 107.364C143.957 108.028 144.133 108.792 144.133 109.656C144.133 110.304 144.029 110.9 143.821 111.444C143.621 111.988 143.337 112.46 142.969 112.86C142.601 113.26 142.165 113.572 141.661 113.796C141.157 114.012 140.609 114.12 140.017 114.12ZM140.005 113.232C140.621 113.232 141.161 113.08 141.625 112.776C142.097 112.464 142.465 112.036 142.729 111.492C142.993 110.948 143.125 110.328 143.125 109.632C143.125 108.944 142.993 108.336 142.729 107.808C142.473 107.28 142.109 106.868 141.637 106.572C141.173 106.276 140.629 106.128 140.005 106.128C139.381 106.128 138.837 106.276 138.373 106.572C137.909 106.868 137.549 107.28 137.293 107.808C137.037 108.328 136.909 108.936 136.909 109.632C136.909 110.336 137.037 110.96 137.293 111.504C137.557 112.04 137.921 112.464 138.385 112.776C138.849 113.08 139.389 113.232 140.005 113.232ZM145.766 114V105.36H146.75V114H145.766ZM146.27 114V113.136H151.19V114H146.27Z" fill="#7A7A7D"/>
<g clip-path="url(#clip0_40002745_43276)">
<path d="M16 124C16 122.895 16.8954 122 18 122H433V130H18C16.8954 130 16 129.105 16 128V124Z" fill="#6267F5"/>
<path d="M433 122H470C471.105 122 472 122.895 472 124V128C472 129.105 471.105 130 470 130H433V122Z" fill="#7A7A7D"/>
</g>
<path d="M18 122.5H470C470.828 122.5 471.5 123.172 471.5 124V128C471.5 128.828 470.828 129.5 470 129.5H18C17.1716 129.5 16.5 128.828 16.5 128V124C16.5 123.172 17.1716 122.5 18 122.5Z" stroke="#E0E0E0" stroke-opacity="0.04"/>
<path d="M17.08 146V145.016H19.456V138.14L17.08 139.916V138.716L19.06 137.24H20.536V145.016H22.48V146H17.08ZM25.4393 146L27.9233 142.016L27.8753 141.98C27.7233 142.204 27.5153 142.376 27.2513 142.496C26.9873 142.616 26.6913 142.676 26.3633 142.676C25.8913 142.676 25.4753 142.564 25.1153 142.34C24.7633 142.116 24.4913 141.8 24.2993 141.392C24.1073 140.976 24.0113 140.492 24.0113 139.94C24.0113 139.372 24.1273 138.88 24.3593 138.464C24.5913 138.04 24.9153 137.712 25.3313 137.48C25.7473 137.24 26.2313 137.12 26.7833 137.12C27.3433 137.12 27.8313 137.24 28.2473 137.48C28.6713 137.712 28.9993 138.04 29.2313 138.464C29.4633 138.88 29.5793 139.372 29.5793 139.94C29.5793 140.38 29.5153 140.812 29.3873 141.236C29.2673 141.66 29.0833 142.068 28.8353 142.46L26.6393 146H25.4393ZM26.7953 141.8C27.3073 141.8 27.7193 141.632 28.0313 141.296C28.3433 140.952 28.4993 140.5 28.4993 139.94C28.4993 139.38 28.3433 138.932 28.0313 138.596C27.7193 138.252 27.3073 138.08 26.7953 138.08C26.2833 138.08 25.8713 138.252 25.5593 138.596C25.2473 138.932 25.0913 139.38 25.0913 139.94C25.0913 140.5 25.2473 140.952 25.5593 141.296C25.8713 141.632 26.2833 141.8 26.7953 141.8ZM33.9906 146.12C33.4546 146.12 32.9866 146.016 32.5866 145.808C32.1946 145.592 31.8906 145.292 31.6746 144.908C31.4586 144.516 31.3506 144.06 31.3506 143.54V139.7C31.3506 139.172 31.4586 138.716 31.6746 138.332C31.8906 137.948 32.1946 137.652 32.5866 137.444C32.9866 137.228 33.4546 137.12 33.9906 137.12C34.5346 137.12 35.0026 137.228 35.3946 137.444C35.7866 137.652 36.0906 137.948 36.3066 138.332C36.5226 138.716 36.6306 139.172 36.6306 139.7V143.54C36.6306 144.06 36.5226 144.516 36.3066 144.908C36.0906 145.292 35.7826 145.592 35.3826 145.808C34.9906 146.016 34.5266 146.12 33.9906 146.12ZM33.9906 145.196C34.4706 145.196 34.8546 145.044 35.1426 144.74C35.4386 144.428 35.5866 144.028 35.5866 143.54V139.7C35.5866 139.212 35.4386 138.816 35.1426 138.512C34.8546 138.2 34.4706 138.044 33.9906 138.044C33.5106 138.044 33.1226 138.2 32.8266 138.512C32.5386 138.816 32.3946 139.212 32.3946 139.7V143.54C32.3946 144.028 32.5386 144.428 32.8266 144.74C33.1226 145.044 33.5106 145.196 33.9906 145.196ZM33.9906 142.328C33.7746 142.328 33.5986 142.26 33.4626 142.124C33.3346 141.988 33.2706 141.808 33.2706 141.584C33.2706 141.368 33.3346 141.196 33.4626 141.068C33.5986 140.932 33.7746 140.864 33.9906 140.864C34.2066 140.864 34.3786 140.932 34.5066 141.068C34.6426 141.196 34.7106 141.368 34.7106 141.584C34.7106 141.808 34.6426 141.988 34.5066 142.124C34.3786 142.26 34.2066 142.328 33.9906 142.328ZM41.1859 146.12C40.6499 146.12 40.1819 146.016 39.7819 145.808C39.3899 145.592 39.0859 145.292 38.8699 144.908C38.6539 144.516 38.5459 144.06 38.5459 143.54V139.7C38.5459 139.172 38.6539 138.716 38.8699 138.332C39.0859 137.948 39.3899 137.652 39.7819 137.444C40.1819 137.228 40.6499 137.12 41.1859 137.12C41.7299 137.12 42.1979 137.228 42.5899 137.444C42.9819 137.652 43.2859 137.948 43.5019 138.332C43.7179 138.716 43.8259 139.172 43.8259 139.7V143.54C43.8259 144.06 43.7179 144.516 43.5019 144.908C43.2859 145.292 42.9779 145.592 42.5779 145.808C42.1859 146.016 41.7219 146.12 41.1859 146.12ZM41.1859 145.196C41.6659 145.196 42.0499 145.044 42.3379 144.74C42.6339 144.428 42.7819 144.028 42.7819 143.54V139.7C42.7819 139.212 42.6339 138.816 42.3379 138.512C42.0499 138.2 41.6659 138.044 41.1859 138.044C40.7059 138.044 40.3179 138.2 40.0219 138.512C39.7339 138.816 39.5899 139.212 39.5899 139.7V143.54C39.5899 144.028 39.7339 144.428 40.0219 144.74C40.3179 145.044 40.7059 145.196 41.1859 145.196ZM41.1859 142.328C40.9699 142.328 40.7939 142.26 40.6579 142.124C40.5299 141.988 40.4659 141.808 40.4659 141.584C40.4659 141.368 40.5299 141.196 40.6579 141.068C40.7939 140.932 40.9699 140.864 41.1859 140.864C41.4019 140.864 41.5739 140.932 41.7019 141.068C41.8379 141.196 41.9059 141.368 41.9059 141.584C41.9059 141.808 41.8379 141.988 41.7019 142.124C41.5739 142.26 41.4019 142.328 41.1859 142.328Z" fill="#6267F5"/>
<circle cx="57" cy="142" r="8" fill="black"/>
<path fill-rule="evenodd" clip-rule="evenodd" d="M53.9363 144.205C53.9664 144.172 54.0031 144.146 54.044 144.127C54.0849 144.109 54.1292 144.1 54.1739 144.1L61.5051 144.106C61.5363 144.106 61.5668 144.115 61.593 144.132C61.6191 144.149 61.6397 144.174 61.6523 144.202C61.6649 144.231 61.6689 144.262 61.6638 144.293C61.6588 144.324 61.6449 144.353 61.6239 144.376L60.0627 146.095C60.0326 146.128 59.9958 146.154 59.9549 146.172C59.914 146.191 59.8697 146.2 59.8249 146.2L52.4939 146.194C52.4627 146.194 52.4321 146.185 52.406 146.168C52.3799 146.151 52.3593 146.126 52.3467 146.098C52.3341 146.069 52.3301 146.037 52.3351 146.007C52.3402 145.976 52.354 145.947 52.3751 145.924L53.9363 144.205ZM61.6239 142.774C61.6449 142.797 61.6588 142.826 61.6638 142.857C61.6689 142.887 61.6649 142.919 61.6523 142.948C61.6397 142.976 61.6191 143.001 61.593 143.018C61.5668 143.035 61.5363 143.044 61.5051 143.044L54.1741 143.05C54.1293 143.05 54.085 143.041 54.0441 143.022C54.0031 143.004 53.9664 142.978 53.9363 142.945L52.3751 141.225C52.354 141.202 52.3402 141.173 52.3351 141.142C52.3301 141.111 52.3341 141.08 52.3467 141.051C52.3593 141.023 52.3799 140.998 52.406 140.981C52.4321 140.964 52.4627 140.955 52.4939 140.955L59.8251 140.949C59.8698 140.949 59.9141 140.958 59.955 140.976C59.9959 140.995 60.0326 141.021 60.0627 141.054L61.6239 142.774ZM53.9363 137.905C53.9664 137.872 54.0031 137.846 54.044 137.827C54.0849 137.809 54.1292 137.8 54.1739 137.8L61.5051 137.806C61.5363 137.806 61.5668 137.815 61.593 137.832C61.6191 137.849 61.6397 137.874 61.6523 137.902C61.6649 137.931 61.6689 137.962 61.6638 137.993C61.6588 138.024 61.6449 138.053 61.6239 138.076L60.0627 139.795C60.0326 139.828 59.9958 139.854 59.9549 139.872C59.914 139.891 59.8697 139.9 59.8249 139.9L52.4939 139.894C52.4627 139.894 52.4321 139.885 52.406 139.868C52.3799 139.851 52.3593 139.826 52.3467 139.798C52.3341 139.769 52.3301 139.737 52.3351 139.707C52.3402 139.676 52.354 139.647 52.3751 139.624L53.9363 137.905Z" fill="url(#paint1_linear_40002745_43276)"/>
<path d="M72.96 146.108C71.952 146.108 71.148 145.86 70.548 145.364C69.956 144.868 69.608 144.16 69.504 143.24H70.464C70.552 143.904 70.804 144.404 71.22 144.74C71.636 145.076 72.212 145.244 72.948 145.244C73.572 145.244 74.04 145.128 74.352 144.896C74.672 144.656 74.832 144.308 74.832 143.852C74.832 143.46 74.724 143.148 74.508 142.916C74.292 142.684 73.956 142.492 73.5 142.34L72.048 141.836C71.312 141.58 70.768 141.272 70.416 140.912C70.064 140.544 69.888 140.08 69.888 139.52C69.888 139.056 70.004 138.656 70.236 138.32C70.468 137.976 70.796 137.708 71.22 137.516C71.644 137.324 72.136 137.228 72.696 137.228C73.56 137.228 74.252 137.456 74.772 137.912C75.292 138.36 75.592 139 75.672 139.832H74.712C74.608 139.232 74.392 138.792 74.064 138.512C73.744 138.232 73.28 138.092 72.672 138.092C72.096 138.092 71.648 138.208 71.328 138.44C71.008 138.672 70.848 139 70.848 139.424C70.848 139.784 70.96 140.072 71.184 140.288C71.408 140.504 71.756 140.692 72.228 140.852L73.776 141.392C74.448 141.624 74.952 141.94 75.288 142.34C75.624 142.732 75.792 143.232 75.792 143.84C75.792 144.56 75.544 145.12 75.048 145.52C74.56 145.912 73.864 146.108 72.96 146.108ZM81.0168 146.12C80.4168 146.12 79.8648 146.012 79.3608 145.796C78.8648 145.572 78.4328 145.26 78.0648 144.86C77.6968 144.452 77.4088 143.976 77.2008 143.432C77.0008 142.888 76.9008 142.292 76.9008 141.644C76.9008 140.788 77.0768 140.028 77.4288 139.364C77.7808 138.7 78.2648 138.18 78.8808 137.804C79.5048 137.428 80.2128 137.24 81.0048 137.24C81.8128 137.24 82.5248 137.428 83.1408 137.804C83.7648 138.18 84.2528 138.7 84.6048 139.364C84.9568 140.028 85.1328 140.792 85.1328 141.656C85.1328 142.304 85.0288 142.9 84.8208 143.444C84.6208 143.988 84.3368 144.46 83.9688 144.86C83.6008 145.26 83.1648 145.572 82.6608 145.796C82.1568 146.012 81.6088 146.12 81.0168 146.12ZM81.0048 145.232C81.6208 145.232 82.1608 145.08 82.6248 144.776C83.0968 144.464 83.4648 144.036 83.7288 143.492C83.9928 142.948 84.1248 142.328 84.1248 141.632C84.1248 140.944 83.9928 140.336 83.7288 139.808C83.4728 139.28 83.1088 138.868 82.6368 138.572C82.1728 138.276 81.6288 138.128 81.0048 138.128C80.3808 138.128 79.8368 138.276 79.3728 138.572C78.9088 138.868 78.5488 139.28 78.2928 139.808C78.0368 140.328 77.9088 140.936 77.9088 141.632C77.9088 142.336 78.0368 142.96 78.2928 143.504C78.5568 144.04 78.9208 144.464 79.3848 144.776C79.8488 145.08 80.3888 145.232 81.0048 145.232ZM86.7664 146V137.36H87.7504V146H86.7664ZM87.2704 146V145.136H92.1904V146H87.2704Z" fill="#7A7A7D"/>
<path d="M102.82 147.44C101.684 147.16 100.8 146.608 100.168 145.784C99.536 144.96 99.22 143.952 99.22 142.76V140.6C99.22 139.816 99.364 139.108 99.652 138.476C99.948 137.836 100.364 137.296 100.9 136.856C101.444 136.416 102.084 136.104 102.82 135.92V136.94C102.308 137.06 101.864 137.292 101.488 137.636C101.112 137.972 100.82 138.392 100.612 138.896C100.404 139.4 100.3 139.968 100.3 140.6V142.76C100.3 143.376 100.4 143.936 100.6 144.44C100.808 144.944 101.1 145.364 101.476 145.7C101.86 146.028 102.308 146.252 102.82 146.372V147.44ZM106.439 146L108.923 142.016L108.875 141.98C108.723 142.204 108.515 142.376 108.251 142.496C107.987 142.616 107.691 142.676 107.363 142.676C106.891 142.676 106.475 142.564 106.115 142.34C105.763 142.116 105.491 141.8 105.299 141.392C105.107 140.976 105.011 140.492 105.011 139.94C105.011 139.372 105.127 138.88 105.359 138.464C105.591 138.04 105.915 137.712 106.331 137.48C106.747 137.24 107.231 137.12 107.783 137.12C108.343 137.12 108.831 137.24 109.247 137.48C109.671 137.712 109.999 138.04 110.231 138.464C110.463 138.88 110.579 139.372 110.579 139.94C110.579 140.38 110.515 140.812 110.387 141.236C110.267 141.66 110.083 142.068 109.835 142.46L107.639 146H106.439ZM107.795 141.8C108.307 141.8 108.719 141.632 109.031 141.296C109.343 140.952 109.499 140.5 109.499 139.94C109.499 139.38 109.343 138.932 109.031 138.596C108.719 138.252 108.307 138.08 107.795 138.08C107.283 138.08 106.871 138.252 106.559 138.596C106.247 138.932 106.091 139.38 106.091 139.94C106.091 140.5 106.247 140.952 106.559 141.296C106.871 141.632 107.283 141.8 107.795 141.8ZM112.495 146V144.896L115.171 142.052C115.627 141.564 115.959 141.132 116.167 140.756C116.375 140.372 116.479 140.004 116.479 139.652C116.479 139.164 116.343 138.78 116.071 138.5C115.807 138.22 115.443 138.08 114.979 138.08C114.467 138.08 114.063 138.224 113.767 138.512C113.479 138.8 113.335 139.196 113.335 139.7H112.255C112.271 139.172 112.391 138.716 112.615 138.332C112.847 137.94 113.163 137.64 113.563 137.432C113.971 137.224 114.443 137.12 114.979 137.12C115.507 137.12 115.963 137.224 116.347 137.432C116.739 137.632 117.039 137.92 117.247 138.296C117.455 138.672 117.559 139.12 117.559 139.64C117.559 140.136 117.427 140.628 117.163 141.116C116.899 141.604 116.467 142.16 115.867 142.784L113.707 145.016H117.703V146H112.495Z" fill="#6267F5"/>
<path d="M122.02 146L128.476 137.36H129.472L123.016 146H122.02ZM128.044 146.12C127.708 146.12 127.392 146.04 127.096 145.88C126.8 145.72 126.56 145.476 126.376 145.148C126.192 144.82 126.1 144.404 126.1 143.9C126.1 143.396 126.188 142.984 126.364 142.664C126.548 142.336 126.788 142.092 127.084 141.932C127.38 141.772 127.7 141.692 128.044 141.692C128.404 141.692 128.732 141.772 129.028 141.932C129.332 142.092 129.572 142.336 129.748 142.664C129.924 142.984 130.012 143.396 130.012 143.9C130.012 144.404 129.92 144.82 129.736 145.148C129.552 145.476 129.308 145.72 129.004 145.88C128.708 146.04 128.388 146.12 128.044 146.12ZM128.044 145.46C128.372 145.46 128.64 145.324 128.848 145.052C129.064 144.78 129.172 144.392 129.172 143.888C129.172 143.392 129.064 143.012 128.848 142.748C128.64 142.484 128.372 142.352 128.044 142.352C127.716 142.352 127.452 142.484 127.252 142.748C127.052 143.004 126.952 143.384 126.952 143.888C126.952 144.4 127.052 144.792 127.252 145.064C127.452 145.328 127.716 145.46 128.044 145.46ZM123.364 141.668C123.02 141.668 122.7 141.588 122.404 141.428C122.108 141.268 121.868 141.024 121.684 140.696C121.508 140.368 121.42 139.952 121.42 139.448C121.42 138.944 121.508 138.532 121.684 138.212C121.868 137.884 122.108 137.64 122.404 137.48C122.7 137.32 123.02 137.24 123.364 137.24C123.724 137.24 124.052 137.32 124.348 137.48C124.644 137.64 124.88 137.884 125.056 138.212C125.232 138.532 125.32 138.944 125.32 139.448C125.32 139.952 125.228 140.368 125.044 140.696C124.86 141.024 124.62 141.268 124.324 141.428C124.028 141.588 123.708 141.668 123.364 141.668ZM123.364 141.008C123.684 141.008 123.948 140.876 124.156 140.612C124.372 140.34 124.48 139.948 124.48 139.436C124.48 138.94 124.376 138.56 124.168 138.296C123.96 138.032 123.692 137.9 123.364 137.9C123.036 137.9 122.768 138.032 122.56 138.296C122.36 138.552 122.26 138.932 122.26 139.436C122.26 139.948 122.36 140.34 122.56 140.612C122.768 140.876 123.036 141.008 123.364 141.008ZM131.489 136.952C132.305 137.696 132.905 138.512 133.289 139.4C133.681 140.288 133.877 141.192 133.877 142.112C133.877 143.016 133.681 143.916 133.289 144.812C132.897 145.7 132.297 146.52 131.489 147.272H130.565C131.373 146.52 131.977 145.716 132.377 144.86C132.785 143.996 132.989 143.08 132.989 142.112C132.989 141.136 132.781 140.22 132.365 139.364C131.949 138.5 131.349 137.696 130.565 136.952H131.489Z" fill="#6267F5"/>
<path d="M368.08 146V145.016H370.456V138.14L368.08 139.916V138.716L370.06 137.24H371.536V145.016H373.48V146H368.08ZM377.795 146.12C377.259 146.12 376.791 146.016 376.391 145.808C375.999 145.592 375.695 145.292 375.479 144.908C375.263 144.516 375.155 144.06 375.155 143.54V139.7C375.155 139.172 375.263 138.716 375.479 138.332C375.695 137.948 375.999 137.652 376.391 137.444C376.791 137.228 377.259 137.12 377.795 137.12C378.339 137.12 378.807 137.228 379.199 137.444C379.591 137.652 379.895 137.948 380.111 138.332C380.327 138.716 380.435 139.172 380.435 139.7V143.54C380.435 144.06 380.327 144.516 380.111 144.908C379.895 145.292 379.587 145.592 379.187 145.808C378.795 146.016 378.331 146.12 377.795 146.12ZM377.795 145.196C378.275 145.196 378.659 145.044 378.947 144.74C379.243 144.428 379.391 144.028 379.391 143.54V139.7C379.391 139.212 379.243 138.816 378.947 138.512C378.659 138.2 378.275 138.044 377.795 138.044C377.315 138.044 376.927 138.2 376.631 138.512C376.343 138.816 376.199 139.212 376.199 139.7V143.54C376.199 144.028 376.343 144.428 376.631 144.74C376.927 145.044 377.315 145.196 377.795 145.196ZM377.795 142.328C377.579 142.328 377.403 142.26 377.267 142.124C377.139 141.988 377.075 141.808 377.075 141.584C377.075 141.368 377.139 141.196 377.267 141.068C377.403 140.932 377.579 140.864 377.795 140.864C378.011 140.864 378.183 140.932 378.311 141.068C378.447 141.196 378.515 141.368 378.515 141.584C378.515 141.808 378.447 141.988 378.311 142.124C378.183 142.26 378.011 142.328 377.795 142.328ZM384.991 146.12C384.455 146.12 383.987 146.016 383.587 145.808C383.195 145.592 382.891 145.292 382.675 144.908C382.459 144.516 382.351 144.06 382.351 143.54V139.7C382.351 139.172 382.459 138.716 382.675 138.332C382.891 137.948 383.195 137.652 383.587 137.444C383.987 137.228 384.455 137.12 384.991 137.12C385.535 137.12 386.003 137.228 386.395 137.444C386.787 137.652 387.091 137.948 387.307 138.332C387.523 138.716 387.631 139.172 387.631 139.7V143.54C387.631 144.06 387.523 144.516 387.307 144.908C387.091 145.292 386.783 145.592 386.383 145.808C385.991 146.016 385.527 146.12 384.991 146.12ZM384.991 145.196C385.471 145.196 385.855 145.044 386.143 144.74C386.439 144.428 386.587 144.028 386.587 143.54V139.7C386.587 139.212 386.439 138.816 386.143 138.512C385.855 138.2 385.471 138.044 384.991 138.044C384.511 138.044 384.123 138.2 383.827 138.512C383.539 138.816 383.395 139.212 383.395 139.7V143.54C383.395 144.028 383.539 144.428 383.827 144.74C384.123 145.044 384.511 145.196 384.991 145.196ZM384.991 142.328C384.775 142.328 384.599 142.26 384.463 142.124C384.335 141.988 384.271 141.808 384.271 141.584C384.271 141.368 384.335 141.196 384.463 141.068C384.599 140.932 384.775 140.864 384.991 140.864C385.207 140.864 385.379 140.932 385.507 141.068C385.643 141.196 385.711 141.368 385.711 141.584C385.711 141.808 385.643 141.988 385.507 142.124C385.379 142.26 385.207 142.328 384.991 142.328Z" fill="#7A7A7D"/>
<circle cx="401" cy="142" r="8" fill="black"/>
<path fill-rule="evenodd" clip-rule="evenodd" d="M397.936 144.205C397.966 144.172 398.003 144.146 398.044 144.127C398.085 144.109 398.129 144.1 398.174 144.1L405.505 144.106C405.536 144.106 405.567 144.115 405.593 144.132C405.619 144.149 405.64 144.174 405.652 144.202C405.665 144.231 405.669 144.262 405.664 144.293C405.659 144.324 405.645 144.353 405.624 144.376L404.063 146.095C404.033 146.128 403.996 146.154 403.955 146.172C403.914 146.191 403.87 146.2 403.825 146.2L396.494 146.194C396.463 146.194 396.432 146.185 396.406 146.168C396.38 146.151 396.359 146.126 396.347 146.098C396.334 146.069 396.33 146.037 396.335 146.007C396.34 145.976 396.354 145.947 396.375 145.924L397.936 144.205ZM405.624 142.774C405.645 142.797 405.659 142.826 405.664 142.857C405.669 142.887 405.665 142.919 405.652 142.948C405.64 142.976 405.619 143.001 405.593 143.018C405.567 143.035 405.536 143.044 405.505 143.044L398.174 143.05C398.129 143.05 398.085 143.041 398.044 143.022C398.003 143.004 397.966 142.978 397.936 142.945L396.375 141.225C396.354 141.202 396.34 141.173 396.335 141.142C396.33 141.111 396.334 141.08 396.347 141.051C396.359 141.023 396.38 140.998 396.406 140.981C396.432 140.964 396.463 140.955 396.494 140.955L403.825 140.949C403.87 140.949 403.914 140.958 403.955 140.976C403.996 140.995 404.033 141.021 404.063 141.054L405.624 142.774ZM397.936 137.905C397.966 137.872 398.003 137.846 398.044 137.827C398.085 137.809 398.129 137.8 398.174 137.8L405.505 137.806C405.536 137.806 405.567 137.815 405.593 137.832C405.619 137.849 405.64 137.874 405.652 137.902C405.665 137.931 405.669 137.962 405.664 137.993C405.659 138.024 405.645 138.053 405.624 138.076L404.063 139.795C404.033 139.828 403.996 139.854 403.955 139.872C403.914 139.891 403.87 139.9 403.825 139.9L396.494 139.894C396.463 139.894 396.432 139.885 396.406 139.868C396.38 139.851 396.359 139.826 396.347 139.798C396.334 139.769 396.33 139.737 396.335 139.707C396.34 139.676 396.354 139.647 396.375 139.624L397.936 137.905Z" fill="url(#paint2_linear_40002745_43276)"/>
<path d="M416.96 146.108C415.952 146.108 415.148 145.86 414.548 145.364C413.956 144.868 413.608 144.16 413.504 143.24H414.464C414.552 143.904 414.804 144.404 415.22 144.74C415.636 145.076 416.212 145.244 416.948 145.244C417.572 145.244 418.04 145.128 418.352 144.896C418.672 144.656 418.832 144.308 418.832 143.852C418.832 143.46 418.724 143.148 418.508 142.916C418.292 142.684 417.956 142.492 417.5 142.34L416.048 141.836C415.312 141.58 414.768 141.272 414.416 140.912C414.064 140.544 413.888 140.08 413.888 139.52C413.888 139.056 414.004 138.656 414.236 138.32C414.468 137.976 414.796 137.708 415.22 137.516C415.644 137.324 416.136 137.228 416.696 137.228C417.56 137.228 418.252 137.456 418.772 137.912C419.292 138.36 419.592 139 419.672 139.832H418.712C418.608 139.232 418.392 138.792 418.064 138.512C417.744 138.232 417.28 138.092 416.672 138.092C416.096 138.092 415.648 138.208 415.328 138.44C415.008 138.672 414.848 139 414.848 139.424C414.848 139.784 414.96 140.072 415.184 140.288C415.408 140.504 415.756 140.692 416.228 140.852L417.776 141.392C418.448 141.624 418.952 141.94 419.288 142.34C419.624 142.732 419.792 143.232 419.792 143.84C419.792 144.56 419.544 145.12 419.048 145.52C418.56 145.912 417.864 146.108 416.96 146.108ZM425.017 146.12C424.417 146.12 423.865 146.012 423.361 145.796C422.865 145.572 422.433 145.26 422.065 144.86C421.697 144.452 421.409 143.976 421.201 143.432C421.001 142.888 420.901 142.292 420.901 141.644C420.901 140.788 421.077 140.028 421.429 139.364C421.781 138.7 422.265 138.18 422.881 137.804C423.505 137.428 424.213 137.24 425.005 137.24C425.813 137.24 426.525 137.428 427.141 137.804C427.765 138.18 428.253 138.7 428.605 139.364C428.957 140.028 429.133 140.792 429.133 141.656C429.133 142.304 429.029 142.9 428.821 143.444C428.621 143.988 428.337 144.46 427.969 144.86C427.601 145.26 427.165 145.572 426.661 145.796C426.157 146.012 425.609 146.12 425.017 146.12ZM425.005 145.232C425.621 145.232 426.161 145.08 426.625 144.776C427.097 144.464 427.465 144.036 427.729 143.492C427.993 142.948 428.125 142.328 428.125 141.632C428.125 140.944 427.993 140.336 427.729 139.808C427.473 139.28 427.109 138.868 426.637 138.572C426.173 138.276 425.629 138.128 425.005 138.128C424.381 138.128 423.837 138.276 423.373 138.572C422.909 138.868 422.549 139.28 422.293 139.808C422.037 140.328 421.909 140.936 421.909 141.632C421.909 142.336 422.037 142.96 422.293 143.504C422.557 144.04 422.921 144.464 423.385 144.776C423.849 145.08 424.389 145.232 425.005 145.232ZM430.766 146V137.36H431.75V146H430.766ZM431.27 146V145.136H436.19V146H431.27Z" fill="#7A7A7D"/>
<path d="M446.82 147.44C445.684 147.16 444.8 146.608 444.168 145.784C443.536 144.96 443.22 143.952 443.22 142.76V140.6C443.22 139.816 443.364 139.108 443.652 138.476C443.948 137.836 444.364 137.296 444.9 136.856C445.444 136.416 446.084 136.104 446.82 135.92V136.94C446.308 137.06 445.864 137.292 445.488 137.636C445.112 137.972 444.82 138.392 444.612 138.896C444.404 139.4 444.3 139.968 444.3 140.6V142.76C444.3 143.376 444.4 143.936 444.6 144.44C444.808 144.944 445.1 145.364 445.476 145.7C445.86 146.028 446.308 146.252 446.82 146.372V147.44ZM451.795 146.12C451.259 146.12 450.791 146.028 450.391 145.844C449.999 145.652 449.695 145.38 449.479 145.028C449.263 144.676 449.155 144.264 449.155 143.792C449.155 143.272 449.295 142.824 449.575 142.448C449.863 142.072 450.315 141.736 450.931 141.44L452.095 140.876C452.447 140.708 452.719 140.488 452.911 140.216C453.103 139.944 453.199 139.644 453.199 139.316C453.199 138.932 453.071 138.628 452.815 138.404C452.567 138.18 452.227 138.068 451.795 138.068C451.363 138.068 451.019 138.184 450.763 138.416C450.515 138.64 450.391 138.944 450.391 139.328C450.391 139.648 450.483 139.944 450.667 140.216C450.859 140.488 451.119 140.704 451.447 140.864L452.611 141.416C453.251 141.712 453.715 142.052 454.003 142.436C454.291 142.812 454.435 143.264 454.435 143.792C454.435 144.504 454.195 145.072 453.715 145.496C453.243 145.912 452.603 146.12 451.795 146.12ZM451.795 145.16C452.283 145.16 452.667 145.036 452.947 144.788C453.235 144.532 453.379 144.192 453.379 143.768C453.379 143.424 453.287 143.112 453.103 142.832C452.919 142.552 452.655 142.328 452.311 142.16L451.159 141.596C450.519 141.284 450.055 140.948 449.767 140.588C449.479 140.228 449.335 139.796 449.335 139.292C449.335 138.844 449.435 138.456 449.635 138.128C449.835 137.8 450.119 137.548 450.487 137.372C450.855 137.196 451.291 137.108 451.795 137.108C452.299 137.108 452.735 137.196 453.103 137.372C453.471 137.548 453.755 137.8 453.955 138.128C454.155 138.456 454.255 138.844 454.255 139.292C454.255 139.796 454.111 140.228 453.823 140.588C453.535 140.94 453.059 141.28 452.395 141.608L451.243 142.172C450.915 142.332 450.659 142.552 450.475 142.832C450.299 143.104 450.211 143.408 450.211 143.744C450.211 144.176 450.351 144.52 450.631 144.776C450.919 145.032 451.307 145.16 451.795 145.16Z" fill="#7A7A7D"/>
<path d="M459.02 146L465.476 137.36H466.472L460.016 146H459.02ZM465.044 146.12C464.708 146.12 464.392 146.04 464.096 145.88C463.8 145.72 463.56 145.476 463.376 145.148C463.192 144.82 463.1 144.404 463.1 143.9C463.1 143.396 463.188 142.984 463.364 142.664C463.548 142.336 463.788 142.092 464.084 141.932C464.38 141.772 464.7 141.692 465.044 141.692C465.404 141.692 465.732 141.772 466.028 141.932C466.332 142.092 466.572 142.336 466.748 142.664C466.924 142.984 467.012 143.396 467.012 143.9C467.012 144.404 466.92 144.82 466.736 145.148C466.552 145.476 466.308 145.72 466.004 145.88C465.708 146.04 465.388 146.12 465.044 146.12ZM465.044 145.46C465.372 145.46 465.64 145.324 465.848 145.052C466.064 144.78 466.172 144.392 466.172 143.888C466.172 143.392 466.064 143.012 465.848 142.748C465.64 142.484 465.372 142.352 465.044 142.352C464.716 142.352 464.452 142.484 464.252 142.748C464.052 143.004 463.952 143.384 463.952 143.888C463.952 144.4 464.052 144.792 464.252 145.064C464.452 145.328 464.716 145.46 465.044 145.46ZM460.364 141.668C460.02 141.668 459.7 141.588 459.404 141.428C459.108 141.268 458.868 141.024 458.684 140.696C458.508 140.368 458.42 139.952 458.42 139.448C458.42 138.944 458.508 138.532 458.684 138.212C458.868 137.884 459.108 137.64 459.404 137.48C459.7 137.32 460.02 137.24 460.364 137.24C460.724 137.24 461.052 137.32 461.348 137.48C461.644 137.64 461.88 137.884 462.056 138.212C462.232 138.532 462.32 138.944 462.32 139.448C462.32 139.952 462.228 140.368 462.044 140.696C461.86 141.024 461.62 141.268 461.324 141.428C461.028 141.588 460.708 141.668 460.364 141.668ZM460.364 141.008C460.684 141.008 460.948 140.876 461.156 140.612C461.372 140.34 461.48 139.948 461.48 139.436C461.48 138.94 461.376 138.56 461.168 138.296C460.96 138.032 460.692 137.9 460.364 137.9C460.036 137.9 459.768 138.032 459.56 138.296C459.36 138.552 459.26 138.932 459.26 139.436C459.26 139.948 459.36 140.34 459.56 140.612C459.768 140.876 460.036 141.008 460.364 141.008ZM468.489 136.952C469.305 137.696 469.905 138.512 470.289 139.4C470.681 140.288 470.877 141.192 470.877 142.112C470.877 143.016 470.681 143.916 470.289 144.812C469.897 145.7 469.297 146.52 468.489 147.272H467.565C468.373 146.52 468.977 145.716 469.377 144.86C469.785 143.996 469.989 143.08 469.989 142.112C469.989 141.136 469.781 140.22 469.365 139.364C468.949 138.5 468.349 137.696 467.565 136.952H468.489Z" fill="#7A7A7D"/>
<line x1="12" y1="169.5" x2="476" y2="169.5" stroke="#B0B0B4" stroke-dasharray="4 6"/>
<g clip-path="url(#clip1_40002745_43276)">
<path d="M399 214L391 206V186H399V214Z" fill="#6267F5"/>
<rect width="69" height="28" transform="translate(399 186)" fill="#6267F5"/>
<path d="M403.336 204L406.516 195.36H407.86L404.872 204H403.336ZM409.852 204L406.876 195.36H408.292L411.46 204H409.852ZM404.98 200.604H409.708V201.852H404.98V200.604ZM416.645 204V202.62L416.765 202.644C416.661 203.092 416.409 203.452 416.009 203.724C415.609 203.988 415.133 204.12 414.581 204.12C414.021 204.12 413.533 203.992 413.117 203.736C412.709 203.472 412.393 203.104 412.169 202.632C411.945 202.16 411.833 201.604 411.833 200.964C411.833 200.316 411.949 199.752 412.181 199.272C412.413 198.792 412.737 198.42 413.153 198.156C413.577 197.892 414.069 197.76 414.629 197.76C415.205 197.76 415.681 197.9 416.057 198.18C416.433 198.452 416.665 198.832 416.753 199.32L416.597 199.332V195.36H418.121V204H416.645ZM415.025 202.884C415.513 202.884 415.901 202.716 416.189 202.38C416.485 202.036 416.633 201.556 416.633 200.94C416.633 200.324 416.485 199.848 416.189 199.512C415.893 199.176 415.501 199.008 415.013 199.008C414.533 199.008 414.145 199.18 413.849 199.524C413.553 199.86 413.405 200.336 413.405 200.952C413.405 201.568 413.553 202.044 413.849 202.38C414.145 202.716 414.537 202.884 415.025 202.884ZM424.098 204V202.62L424.218 202.644C424.114 203.092 423.862 203.452 423.462 203.724C423.062 203.988 422.586 204.12 422.034 204.12C421.474 204.12 420.986 203.992 420.57 203.736C420.162 203.472 419.846 203.104 419.622 202.632C419.398 202.16 419.286 201.604 419.286 200.964C419.286 200.316 419.402 199.752 419.634 199.272C419.866 198.792 420.19 198.42 420.606 198.156C421.03 197.892 421.522 197.76 422.082 197.76C422.658 197.76 423.134 197.9 423.51 198.18C423.886 198.452 424.118 198.832 424.206 199.32L424.05 199.332V195.36H425.574V204H424.098ZM422.478 202.884C422.966 202.884 423.354 202.716 423.642 202.38C423.938 202.036 424.086 201.556 424.086 200.94C424.086 200.324 423.938 199.848 423.642 199.512C423.346 199.176 422.954 199.008 422.466 199.008C421.986 199.008 421.598 199.18 421.302 199.524C421.006 199.86 420.858 200.336 420.858 200.952C420.858 201.568 421.006 202.044 421.302 202.38C421.598 202.716 421.99 202.884 422.478 202.884ZM429.443 204V195.36H431.003V204H429.443ZM430.187 200.532V199.296H435.047V200.532H430.187ZM430.187 196.596V195.36H435.335V196.596H430.187ZM438.139 204.12C437.715 204.12 437.347 204.032 437.035 203.856C436.731 203.672 436.495 203.424 436.327 203.112C436.167 202.8 436.087 202.448 436.087 202.056V197.88H437.599V201.744C437.599 202.12 437.691 202.404 437.875 202.596C438.067 202.788 438.335 202.884 438.679 202.884C438.991 202.884 439.263 202.812 439.495 202.668C439.735 202.524 439.923 202.324 440.059 202.068C440.203 201.804 440.275 201.508 440.275 201.18L440.431 202.644C440.231 203.092 439.931 203.452 439.531 203.724C439.139 203.988 438.675 204.12 438.139 204.12ZM440.323 204V202.56H440.275V197.88H441.799V204H440.323ZM443.402 204V197.88H444.878V199.32H444.914V204H443.402ZM447.698 204V200.136C447.698 199.76 447.602 199.476 447.41 199.284C447.218 199.092 446.938 198.996 446.57 198.996C446.25 198.996 445.962 199.068 445.706 199.212C445.458 199.356 445.262 199.556 445.118 199.812C444.982 200.068 444.914 200.364 444.914 200.7L444.758 199.236C444.966 198.788 445.27 198.432 445.67 198.168C446.07 197.896 446.55 197.76 447.11 197.76C447.774 197.76 448.29 197.948 448.658 198.324C449.034 198.7 449.222 199.2 449.222 199.824V204H447.698ZM455.117 204V202.62L455.237 202.644C455.133 203.092 454.881 203.452 454.481 203.724C454.081 203.988 453.605 204.12 453.053 204.12C452.493 204.12 452.005 203.992 451.589 203.736C451.181 203.472 450.865 203.104 450.641 202.632C450.417 202.16 450.305 201.604 450.305 200.964C450.305 200.316 450.421 199.752 450.653 199.272C450.885 198.792 451.209 198.42 451.625 198.156C452.049 197.892 452.541 197.76 453.101 197.76C453.677 197.76 454.153 197.9 454.529 198.18C454.905 198.452 455.137 198.832 455.225 199.32L455.069 199.332V195.36H456.593V204H455.117ZM453.497 202.884C453.985 202.884 454.373 202.716 454.661 202.38C454.957 202.036 455.105 201.556 455.105 200.94C455.105 200.324 454.957 199.848 454.661 199.512C454.365 199.176 453.973 199.008 453.485 199.008C453.005 199.008 452.617 199.18 452.321 199.524C452.025 199.86 451.877 200.336 451.877 200.952C451.877 201.568 452.025 202.044 452.321 202.38C452.617 202.716 453.009 202.884 453.497 202.884ZM460.542 204.12C459.694 204.12 459.018 203.944 458.514 203.592C458.01 203.232 457.734 202.736 457.686 202.104H459.066C459.106 202.416 459.254 202.652 459.51 202.812C459.766 202.972 460.11 203.052 460.542 203.052C460.934 203.052 461.226 202.992 461.418 202.872C461.618 202.744 461.718 202.564 461.718 202.332C461.718 202.164 461.662 202.028 461.55 201.924C461.438 201.812 461.226 201.72 460.914 201.648L459.93 201.42C459.258 201.276 458.758 201.052 458.43 200.748C458.11 200.436 457.95 200.048 457.95 199.584C457.95 199.016 458.166 198.572 458.598 198.252C459.038 197.924 459.642 197.76 460.41 197.76C461.17 197.76 461.778 197.924 462.234 198.252C462.698 198.572 462.954 199.016 463.002 199.584H461.622C461.582 199.336 461.454 199.148 461.238 199.02C461.03 198.892 460.742 198.828 460.374 198.828C460.03 198.828 459.77 198.884 459.594 198.996C459.418 199.1 459.33 199.256 459.33 199.464C459.33 199.624 459.398 199.76 459.534 199.872C459.67 199.976 459.898 200.068 460.218 200.148L461.274 200.388C461.874 200.524 462.326 200.76 462.63 201.096C462.942 201.432 463.098 201.828 463.098 202.284C463.098 202.868 462.874 203.32 462.426 203.64C461.978 203.96 461.35 204.12 460.542 204.12Z" fill="#F5F5F5"/>
<path d="M476 194V214H468V186L476 194Z" fill="#6267F5"/>
</g>
<defs>
<filter id="filter0_dii_40002745_43276" x="392" y="53" width="42" height="34" filterUnits="userSpaceOnUse" color-interpolation-filters="sRGB">
<feFlood flood-opacity="0" result="BackgroundImageFix"/>
<feColorMatrix in="SourceAlpha" type="matrix" values="0 0 0 0 0 0 0 0 0 0 0 0 0 0 0 0 0 0 127 0" result="hardAlpha"/>
<feOffset dy="1"/>
<feGaussianBlur stdDeviation="2"/>
<feComposite in2="hardAlpha" operator="out"/>
<feColorMatrix type="matrix" values="0 0 0 0 0.095632 0 0 0 0 0.092 0 0 0 0 0.108 0 0 0 0.06 0"/>
<feBlend mode="normal" in2="BackgroundImageFix" result="effect1_dropShadow_40002745_43276"/>
<feBlend mode="normal" in="SourceGraphic" in2="effect1_dropShadow_40002745_43276" result="shape"/>
<feColorMatrix in="SourceAlpha" type="matrix" values="0 0 0 0 0 0 0 0 0 0 0 0 0 0 0 0 0 0 127 0" result="hardAlpha"/>
<feOffset dy="-1.5"/>
<feGaussianBlur stdDeviation="2"/>
<feComposite in2="hardAlpha" operator="arithmetic" k2="-1" k3="1"/>
<feColorMatrix type="matrix" values="0 0 0 0 0.941176 0 0 0 0 0.941176 0 0 0 0 0.956863 0 0 0 1 0"/>
<feBlend mode="normal" in2="shape" result="effect2_innerShadow_40002745_43276"/>
<feColorMatrix in="SourceAlpha" type="matrix" values="0 0 0 0 0 0 0 0 0 0 0 0 0 0 0 0 0 0 127 0" result="hardAlpha"/>
<feMorphology radius="1" operator="erode" in="SourceAlpha" result="effect3_innerShadow_40002745_43276"/>
<feOffset/>
<feComposite in2="hardAlpha" operator="arithmetic" k2="-1" k3="1"/>
<feColorMatrix type="matrix" values="0 0 0 0 0.878431 0 0 0 0 0.878431 0 0 0 0 0.878431 0 0 0 0.04 0"/>
<feBlend mode="normal" in2="effect2_innerShadow_40002745_43276" result="effect3_innerShadow_40002745_43276"/>
</filter>
<filter id="filter1_dii_40002745_43276" x="438" y="53" width="42" height="34" filterUnits="userSpaceOnUse" color-interpolation-filters="sRGB">
<feFlood flood-opacity="0" result="BackgroundImageFix"/>
<feColorMatrix in="SourceAlpha" type="matrix" values="0 0 0 0 0 0 0 0 0 0 0 0 0 0 0 0 0 0 127 0" result="hardAlpha"/>
<feOffset dy="1"/>
<feGaussianBlur stdDeviation="2"/>
<feComposite in2="hardAlpha" operator="out"/>
<feColorMatrix type="matrix" values="0 0 0 0 0.095632 0 0 0 0 0.092 0 0 0 0 0.108 0 0 0 0.06 0"/>
<feBlend mode="normal" in2="BackgroundImageFix" result="effect1_dropShadow_40002745_43276"/>
<feBlend mode="normal" in="SourceGraphic" in2="effect1_dropShadow_40002745_43276" result="shape"/>
<feColorMatrix in="SourceAlpha" type="matrix" values="0 0 0 0 0 0 0 0 0 0 0 0 0 0 0 0 0 0 127 0" result="hardAlpha"/>
<feOffset dy="-1.5"/>
<feGaussianBlur stdDeviation="2"/>
<feComposite in2="hardAlpha" operator="arithmetic" k2="-1" k3="1"/>
<feColorMatrix type="matrix" values="0 0 0 0 0.941176 0 0 0 0 0.941176 0 0 0 0 0.956863 0 0 0 1 0"/>
<feBlend mode="normal" in2="shape" result="effect2_innerShadow_40002745_43276"/>
<feColorMatrix in="SourceAlpha" type="matrix" values="0 0 0 0 0 0 0 0 0 0 0 0 0 0 0 0 0 0 127 0" result="hardAlpha"/>
<feMorphology radius="1" operator="erode" in="SourceAlpha" result="effect3_innerShadow_40002745_43276"/>
<feOffset/>
<feComposite in2="hardAlpha" operator="arithmetic" k2="-1" k3="1"/>
<feColorMatrix type="matrix" values="0 0 0 0 0.878431 0 0 0 0 0.878431 0 0 0 0 0.878431 0 0 0 0.04 0"/>
<feBlend mode="normal" in2="effect2_innerShadow_40002745_43276" result="effect3_innerShadow_40002745_43276"/>
</filter>
<linearGradient id="paint0_linear_40002745_43276" x1="111.616" y1="114.383" x2="120.383" y2="105.617" gradientUnits="userSpaceOnUse">
<stop stop-color="#9945FF"/>
<stop offset="0.2" stop-color="#7962E7"/>
<stop offset="1" stop-color="#00D18C"/>
</linearGradient>
<linearGradient id="paint1_linear_40002745_43276" x1="52.6163" y1="146.383" x2="61.3827" y2="137.617" gradientUnits="userSpaceOnUse">
<stop stop-color="#9945FF"/>
<stop offset="0.2" stop-color="#7962E7"/>
<stop offset="1" stop-color="#00D18C"/>
</linearGradient>
<linearGradient id="paint2_linear_40002745_43276" x1="396.616" y1="146.383" x2="405.383" y2="137.617" gradientUnits="userSpaceOnUse">
<stop stop-color="#9945FF"/>
<stop offset="0.2" stop-color="#7962E7"/>
<stop offset="1" stop-color="#00D18C"/>
</linearGradient>
<clipPath id="clip0_40002745_43276">
<path d="M16 124C16 122.895 16.8954 122 18 122H470C471.105 122 472 122.895 472 124V128C472 129.105 471.105 130 470 130H18C16.8954 130 16 129.105 16 128V124Z" fill="white"/>
</clipPath>
<clipPath id="clip1_40002745_43276">
<path d="M391 188C391 186.895 391.895 186 393 186H474C475.105 186 476 186.895 476 188V212C476 213.105 475.105 214 474 214H393C391.895 214 391 213.105 391 212V188Z" fill="white"/>
</clipPath>
</defs>
</svg>
