<svg width="488" height="176" viewBox="0 0 488 176" fill="none" xmlns="http://www.w3.org/2000/svg">
<path d="M0 8C0 3.58172 3.58172 0 8 0L190 0C194.418 0 198 3.58172 198 8V72C198 76.4183 194.418 80 190 80H8C3.58172 80 0 76.4183 0 72L0 8Z" fill="#C2FFD2"/>
<path d="M54 39.5C53.9987 38.1754 53.6223 36.8783 52.9144 35.7587C52.2065 34.6391 51.1961 33.7429 50 33.1738V33C49.9989 31.7115 49.583 30.4576 48.8139 29.4239C48.0448 28.3901 46.9633 27.6314 45.7295 27.26C44.4957 26.8886 43.1751 26.9243 41.9632 27.3617C40.7512 27.7991 39.7123 28.615 39 29.6888C38.2878 28.615 37.2488 27.7991 36.0369 27.3617C34.8249 26.9243 33.5043 26.8886 32.2705 27.26C31.0368 27.6314 29.9553 28.3901 29.1862 29.4239C28.4171 30.4576 28.0012 31.7115 28 33V33.1738C26.8029 33.7414 25.7915 34.637 25.0833 35.7567C24.375 36.8763 23.9991 38.1739 23.9991 39.4987C23.9991 40.8236 24.375 42.1212 25.0833 43.2408C25.7915 44.3605 26.8029 45.2561 28 45.8237V46C28.0012 47.2885 28.4171 48.5424 29.1862 49.5761C29.9553 50.6099 31.0368 51.3686 32.2705 51.74C33.5043 52.1114 34.8249 52.0757 36.0369 51.6383C37.2488 51.2009 38.2878 50.385 39 49.3113C39.7123 50.385 40.7512 51.2009 41.9632 51.6383C43.1751 52.0757 44.4957 52.1114 45.7295 51.74C46.9633 51.3686 48.0448 50.6099 48.8139 49.5761C49.583 48.5424 49.9989 47.2885 50 46V45.8237C51.1959 45.255 52.2063 44.3592 52.9142 43.2401C53.622 42.121 53.9985 40.8242 54 39.5ZM34 50C33.0137 49.9999 32.0622 49.6353 31.3283 48.9764C30.5944 48.3175 30.1298 47.4106 30.0238 46.43C30.3472 46.4761 30.6734 46.4995 31 46.5H32C32.2652 46.5 32.5196 46.3946 32.7071 46.2071C32.8947 46.0196 33 45.7652 33 45.5C33 45.2348 32.8947 44.9804 32.7071 44.7929C32.5196 44.6054 32.2652 44.5 32 44.5H31C29.8195 44.5014 28.6765 44.085 27.7735 43.3246C26.8705 42.5641 26.2657 41.5087 26.0661 40.3451C25.8666 39.1816 26.0852 37.9849 26.6832 36.9671C27.2813 35.9492 28.2202 35.1758 29.3338 34.7838C29.5286 34.7148 29.6973 34.5871 29.8166 34.4183C29.9359 34.2495 30 34.0479 30 33.8413V33C30 31.9391 30.4214 30.9217 31.1716 30.1716C31.9217 29.4214 32.9392 29 34 29C35.0609 29 36.0783 29.4214 36.8284 30.1716C37.5786 30.9217 38 31.9391 38 33V41.5325C36.9019 40.5449 35.4769 39.9989 34 40C33.7348 40 33.4805 40.1054 33.2929 40.2929C33.1054 40.4804 33 40.7348 33 41C33 41.2652 33.1054 41.5196 33.2929 41.7071C33.4805 41.8946 33.7348 42 34 42C35.0609 42 36.0783 42.4214 36.8284 43.1716C37.5786 43.9217 38 44.9391 38 46C38 47.0609 37.5786 48.0783 36.8284 48.8284C36.0783 49.5786 35.0609 50 34 50ZM47 44.5H46C45.7348 44.5 45.4805 44.6054 45.2929 44.7929C45.1054 44.9804 45 45.2348 45 45.5C45 45.7652 45.1054 46.0196 45.2929 46.2071C45.4805 46.3946 45.7348 46.5 46 46.5H47C47.3267 46.4995 47.6529 46.4761 47.9763 46.43C47.8932 47.1983 47.5893 47.9262 47.1014 48.5255C46.6135 49.1248 45.9624 49.5699 45.2269 49.807C44.4913 50.0442 43.7028 50.0632 42.9568 49.8617C42.2107 49.6603 41.5389 49.247 41.0227 48.6719C40.5065 48.0967 40.1679 47.3844 40.0479 46.621C39.928 45.8575 40.0317 45.0757 40.3467 44.3699C40.6616 43.6642 41.1742 43.0648 41.8226 42.6442C42.4709 42.2237 43.2272 41.9999 44 42C44.2652 42 44.5196 41.8946 44.7071 41.7071C44.8947 41.5196 45 41.2652 45 41C45 40.7348 44.8947 40.4804 44.7071 40.2929C44.5196 40.1054 44.2652 40 44 40C42.5231 39.9989 41.0981 40.5449 40 41.5325V33C40 31.9391 40.4215 30.9217 41.1716 30.1716C41.9217 29.4214 42.9392 29 44 29C45.0609 29 46.0783 29.4214 46.8284 30.1716C47.5786 30.9217 48 31.9391 48 33V33.8413C48.0001 34.0479 48.0641 34.2495 48.1834 34.4183C48.3028 34.5871 48.4714 34.7148 48.6663 34.7838C49.7798 35.1758 50.7187 35.9492 51.3168 36.9671C51.9149 37.9849 52.1335 39.1816 51.9339 40.3451C51.7344 41.5087 51.1296 42.5641 50.2265 43.3246C49.3235 44.085 48.1806 44.5014 47 44.5ZM49 38C49 38.2652 48.8947 38.5196 48.7071 38.7071C48.5196 38.8946 48.2652 39 48 39H47.5C46.3065 39 45.162 38.5259 44.318 37.682C43.4741 36.8381 43 35.6935 43 34.5V34C43 33.7348 43.1054 33.4804 43.2929 33.2929C43.4805 33.1054 43.7348 33 44 33C44.2652 33 44.5196 33.1054 44.7071 33.2929C44.8947 33.4804 45 33.7348 45 34V34.5C45 35.163 45.2634 35.7989 45.7323 36.2678C46.2011 36.7366 46.837 37 47.5 37H48C48.2652 37 48.5196 37.1054 48.7071 37.2929C48.8947 37.4804 49 37.7348 49 38ZM30.5 39H30C29.7348 39 29.4805 38.8946 29.2929 38.7071C29.1054 38.5196 29 38.2652 29 38C29 37.7348 29.1054 37.4804 29.2929 37.2929C29.4805 37.1054 29.7348 37 30 37H30.5C31.1631 37 31.7989 36.7366 32.2678 36.2678C32.7366 35.7989 33 35.163 33 34.5V34C33 33.7348 33.1054 33.4804 33.2929 33.2929C33.4805 33.1054 33.7348 33 34 33C34.2652 33 34.5196 33.1054 34.7071 33.2929C34.8947 33.4804 35 33.7348 35 34V34.5C35 35.6935 34.5259 36.8381 33.682 37.682C32.8381 38.5259 31.6935 39 30.5 39Z" fill="#7A7A7D"/>
<path d="M64.72 47V32.6H70.44C71.4667 32.6 72.34 32.7667 73.06 33.1C73.78 33.4333 74.3267 33.9133 74.7 34.54C75.0867 35.1667 75.28 35.92 75.28 36.8C75.28 37.68 75.0867 38.44 74.7 39.08C74.3267 39.7067 73.78 40.1933 73.06 40.54C72.34 40.8867 71.4667 41.06 70.44 41.06H65.92V39.62H70.38C71.4467 39.62 72.2533 39.38 72.8 38.9C73.36 38.4067 73.64 37.7067 73.64 36.8C73.64 35.8933 73.3667 35.2067 72.82 34.74C72.2733 34.2733 71.46 34.04 70.38 34.04H66.36V47H64.72ZM81.3595 47.2C80.3595 47.2 79.4795 46.9667 78.7195 46.5C77.9595 46.0333 77.3662 45.4 76.9395 44.6C76.5262 43.7867 76.3195 42.8733 76.3195 41.86C76.3195 40.8333 76.5329 39.9267 76.9595 39.14C77.3862 38.3533 77.9729 37.7333 78.7195 37.28C79.4795 36.8267 80.3595 36.6 81.3595 36.6C82.3729 36.6 83.2529 36.8267 83.9995 37.28C84.7595 37.7333 85.3462 38.3533 85.7595 39.14C86.1862 39.9267 86.3995 40.8333 86.3995 41.86C86.3995 42.8733 86.1862 43.7867 85.7595 44.6C85.3462 45.4 84.7595 46.0333 83.9995 46.5C83.2529 46.9667 82.3729 47.2 81.3595 47.2ZM81.3595 45.84C82.0529 45.84 82.6529 45.6733 83.1595 45.34C83.6662 44.9933 84.0595 44.52 84.3395 43.92C84.6195 43.32 84.7595 42.6267 84.7595 41.84C84.7595 40.6667 84.4462 39.7267 83.8195 39.02C83.2062 38.3133 82.3862 37.96 81.3595 37.96C80.3462 37.96 79.5262 38.3133 78.8995 39.02C78.2729 39.7267 77.9595 40.6667 77.9595 41.84C77.9595 42.6267 78.0995 43.32 78.3795 43.92C78.6595 44.52 79.0529 44.9933 79.5595 45.34C80.0795 45.6733 80.6795 45.84 81.3595 45.84ZM90.6839 47L87.5639 36.8H89.1839L91.5839 45.54H91.1839L94.0639 36.8H95.3639L98.2639 45.54H97.8639L100.244 36.8H101.784L98.6639 47H97.3639L94.4839 38.46H94.9039L91.9839 47H90.6839ZM107.921 47.2C106.947 47.2 106.087 46.9733 105.341 46.52C104.594 46.0533 104.007 45.42 103.581 44.62C103.154 43.82 102.941 42.9 102.941 41.86C102.941 40.82 103.147 39.9067 103.561 39.12C103.987 38.32 104.581 37.7 105.341 37.26C106.101 36.82 106.974 36.6 107.961 36.6C108.907 36.6 109.727 36.8067 110.421 37.22C111.127 37.6333 111.667 38.2133 112.041 38.96C112.427 39.7067 112.621 40.5867 112.621 41.6C112.621 41.7333 112.614 41.86 112.601 41.98C112.601 42.1 112.587 42.2333 112.561 42.38H104.141V41.04H111.581L111.061 41.78C111.061 40.5533 110.787 39.6133 110.241 38.96C109.707 38.2933 108.947 37.96 107.961 37.96C106.947 37.96 106.127 38.3133 105.501 39.02C104.887 39.7133 104.581 40.6533 104.581 41.84C104.581 43.0533 104.887 44.0267 105.501 44.76C106.127 45.48 106.961 45.84 108.001 45.84C108.654 45.84 109.227 45.7 109.721 45.42C110.214 45.1267 110.574 44.7133 110.801 44.18H112.321C111.987 45.1133 111.427 45.8533 110.641 46.4C109.867 46.9333 108.961 47.2 107.921 47.2ZM115.03 47V36.8H116.53V39.4H116.63V47H115.03ZM116.63 41.68L116.37 39.26C116.61 38.3933 117.036 37.7333 117.65 37.28C118.263 36.8267 118.97 36.6 119.77 36.6C120.103 36.6 120.33 36.6267 120.45 36.68V38.22C120.383 38.1933 120.29 38.18 120.17 38.18C120.05 38.1667 119.903 38.16 119.73 38.16C118.716 38.16 117.943 38.4667 117.41 39.08C116.89 39.68 116.63 40.5467 116.63 41.68ZM129.854 47.2C129.187 47.2 128.594 47.0667 128.074 46.8C127.554 46.52 127.147 46.1333 126.854 45.64C126.56 45.1333 126.414 44.5533 126.414 43.9V36.8H128.014V43.48C128.014 44.2533 128.2 44.8333 128.574 45.22C128.96 45.6067 129.507 45.8 130.214 45.8C130.854 45.8 131.42 45.6533 131.914 45.36C132.407 45.0667 132.794 44.66 133.074 44.14C133.367 43.6067 133.514 43 133.514 42.32L133.774 44.74C133.44 45.5 132.92 46.1 132.214 46.54C131.507 46.98 130.72 47.2 129.854 47.2ZM133.614 47V44.6H133.514V36.8H135.114V47H133.614ZM141.732 47.2C140.479 47.2 139.479 46.9133 138.732 46.34C137.985 45.7533 137.559 44.9267 137.452 43.86H138.992C139.085 44.5133 139.372 45.0133 139.852 45.36C140.332 45.7067 140.972 45.88 141.772 45.88C142.479 45.88 143.032 45.7467 143.432 45.48C143.832 45.2133 144.032 44.8333 144.032 44.34C144.032 43.9933 143.919 43.6933 143.692 43.44C143.465 43.1733 143.012 42.9533 142.332 42.78L140.692 42.36C139.759 42.12 139.059 41.7533 138.592 41.26C138.125 40.7533 137.892 40.1533 137.892 39.46C137.892 38.58 138.219 37.8867 138.872 37.38C139.525 36.86 140.412 36.6 141.532 36.6C142.639 36.6 143.539 36.8667 144.232 37.4C144.925 37.9333 145.319 38.6733 145.412 39.62H143.872C143.779 39.0733 143.525 38.6533 143.112 38.36C142.699 38.0667 142.152 37.92 141.472 37.92C140.819 37.92 140.312 38.0467 139.952 38.3C139.592 38.54 139.412 38.8867 139.412 39.34C139.412 39.6867 139.539 39.9867 139.792 40.24C140.059 40.4933 140.499 40.7067 141.112 40.88L142.712 41.32C143.659 41.5733 144.372 41.96 144.852 42.48C145.332 43 145.572 43.6267 145.572 44.36C145.572 45.2533 145.232 45.9533 144.552 46.46C143.872 46.9533 142.932 47.2 141.732 47.2ZM152.257 47.2C151.283 47.2 150.423 46.9733 149.677 46.52C148.93 46.0533 148.343 45.42 147.917 44.62C147.49 43.82 147.277 42.9 147.277 41.86C147.277 40.82 147.483 39.9067 147.897 39.12C148.323 38.32 148.917 37.7 149.677 37.26C150.437 36.82 151.31 36.6 152.297 36.6C153.243 36.6 154.063 36.8067 154.757 37.22C155.463 37.6333 156.003 38.2133 156.377 38.96C156.763 39.7067 156.957 40.5867 156.957 41.6C156.957 41.7333 156.95 41.86 156.937 41.98C156.937 42.1 156.923 42.2333 156.897 42.38H148.477V41.04H155.917L155.397 41.78C155.397 40.5533 155.123 39.6133 154.577 38.96C154.043 38.2933 153.283 37.96 152.297 37.96C151.283 37.96 150.463 38.3133 149.837 39.02C149.223 39.7133 148.917 40.6533 148.917 41.84C148.917 43.0533 149.223 44.0267 149.837 44.76C150.463 45.48 151.297 45.84 152.337 45.84C152.99 45.84 153.563 45.7 154.057 45.42C154.55 45.1267 154.91 44.7133 155.137 44.18H156.657C156.323 45.1133 155.763 45.8533 154.977 46.4C154.203 46.9333 153.297 47.2 152.257 47.2ZM159.366 47V36.8H160.866V39.4H160.966V47H159.366ZM160.966 41.68L160.706 39.26C160.946 38.3933 161.372 37.7333 161.986 37.28C162.599 36.8267 163.306 36.6 164.106 36.6C164.439 36.6 164.666 36.6267 164.786 36.68V38.22C164.719 38.1933 164.626 38.18 164.506 38.18C164.386 38.1667 164.239 38.16 164.066 38.16C163.052 38.16 162.279 38.4667 161.746 39.08C161.226 39.68 160.966 40.5467 160.966 41.68ZM170.033 47.2C168.779 47.2 167.779 46.9133 167.033 46.34C166.286 45.7533 165.859 44.9267 165.753 43.86H167.293C167.386 44.5133 167.673 45.0133 168.153 45.36C168.633 45.7067 169.273 45.88 170.073 45.88C170.779 45.88 171.333 45.7467 171.733 45.48C172.133 45.2133 172.333 44.8333 172.333 44.34C172.333 43.9933 172.219 43.6933 171.993 43.44C171.766 43.1733 171.313 42.9533 170.633 42.78L168.993 42.36C168.059 42.12 167.359 41.7533 166.893 41.26C166.426 40.7533 166.193 40.1533 166.193 39.46C166.193 38.58 166.519 37.8867 167.173 37.38C167.826 36.86 168.713 36.6 169.833 36.6C170.939 36.6 171.839 36.8667 172.533 37.4C173.226 37.9333 173.619 38.6733 173.713 39.62H172.173C172.079 39.0733 171.826 38.6533 171.413 38.36C170.999 38.0667 170.453 37.92 169.773 37.92C169.119 37.92 168.613 38.0467 168.253 38.3C167.893 38.54 167.713 38.8867 167.713 39.34C167.713 39.6867 167.839 39.9867 168.093 40.24C168.359 40.4933 168.799 40.7067 169.413 40.88L171.013 41.32C171.959 41.5733 172.673 41.96 173.153 42.48C173.633 43 173.873 43.6267 173.873 44.36C173.873 45.2533 173.533 45.9533 172.853 46.46C172.173 46.9533 171.233 47.2 170.033 47.2Z" fill="#070707"/>
<path d="M214 8C214 3.58172 217.582 0 222 0L362 0C366.418 0 370 3.58172 370 8V72C370 76.4183 366.418 80 362 80H222C217.582 80 214 76.4183 214 72V8Z" fill="#B5D4FF"/>
<path d="M241.291 33.71C241.198 33.6171 241.124 33.5066 241.073 33.385C241.023 33.2634 240.997 33.133 240.997 33.0013C240.997 32.8695 241.023 32.7391 241.073 32.6175C241.124 32.4959 241.198 32.3854 241.291 32.2925C241.387 32.1987 243.637 30 248 30C250.302 30 252.03 31.1512 253.555 32.1675C254.967 33.11 256.302 34 258 34C259.371 34.0205 260.728 33.7285 261.969 33.1462C262.45 32.9242 262.897 32.6351 263.297 32.2875C263.391 32.195 263.501 32.1218 263.623 32.072C263.744 32.0222 263.875 31.9969 264.006 31.9974C264.137 31.9979 264.267 32.0243 264.388 32.075C264.509 32.1258 264.619 32.1999 264.712 32.2931C264.804 32.3864 264.878 32.4969 264.927 32.6184C264.977 32.74 265.003 32.8701 265.002 33.0015C265.001 33.1328 264.975 33.2628 264.924 33.3839C264.874 33.505 264.799 33.615 264.706 33.7075C264.612 33.8013 262.362 36 258 36C255.697 36 253.97 34.8488 252.445 33.8325C251.032 32.89 249.697 32 248 32C246.629 31.9795 245.272 32.2715 244.031 32.8538C243.55 33.0758 243.103 33.3649 242.702 33.7125C242.515 33.8988 242.261 34.0031 241.996 34.0027C241.732 34.0022 241.478 33.897 241.291 33.71ZM263.297 39.2875C262.897 39.6351 262.45 39.9242 261.969 40.1462C260.728 40.7285 259.371 41.0205 258 41C256.302 41 254.967 40.11 253.555 39.1675C252.03 38.1512 250.302 37 248 37C243.637 37 241.387 39.1987 241.294 39.2925C241.105 39.4793 240.999 39.7333 240.998 39.9985C240.997 40.2638 241.101 40.5186 241.288 40.7069C241.475 40.8952 241.729 41.0016 241.994 41.0026C242.259 41.0037 242.514 40.8993 242.702 40.7125C243.103 40.3649 243.55 40.0758 244.031 39.8538C245.272 39.2715 246.629 38.9795 248 39C249.697 39 251.032 39.89 252.445 40.8325C253.97 41.8488 255.695 43 258 43C262.362 43 264.612 40.8013 264.706 40.7075C264.799 40.615 264.874 40.505 264.924 40.3839C264.975 40.2628 265.001 40.1328 265.002 40.0015C265.003 39.8701 264.977 39.74 264.927 39.6184C264.878 39.4969 264.804 39.3864 264.712 39.2931C264.619 39.1999 264.509 39.1258 264.388 39.075C264.267 39.0243 264.137 38.9979 264.006 38.9974C263.875 38.9969 263.744 39.0222 263.623 39.072C263.501 39.1218 263.391 39.195 263.297 39.2875ZM263.297 46.2875C262.897 46.6351 262.45 46.9242 261.969 47.1462C260.728 47.7285 259.371 48.0205 258 48C256.302 48 254.967 47.11 253.555 46.1675C252.03 45.1512 250.302 44 248 44C243.637 44 241.387 46.1987 241.294 46.2925C241.105 46.4793 240.999 46.7333 240.998 46.9985C240.997 47.2638 241.101 47.5186 241.288 47.7069C241.475 47.8952 241.729 48.0016 241.994 48.0026C242.259 48.0037 242.514 47.8993 242.702 47.7125C243.103 47.3649 243.55 47.0758 244.031 46.8538C245.272 46.2715 246.629 45.9795 248 46C249.697 46 251.032 46.89 252.445 47.8325C253.97 48.8488 255.695 50 258 50C262.362 50 264.612 47.8013 264.706 47.7075C264.895 47.5207 265.001 47.2667 265.002 47.0015C265.003 46.7362 264.899 46.4814 264.712 46.2931C264.525 46.1048 264.271 45.9984 264.006 45.9974C263.741 45.9963 263.486 46.1007 263.297 46.2875Z" fill="#7A7A7D"/>
<path d="M282.26 47L278 32.6H279.68L283.5 45.9H283.2L286.94 32.6H288.94L292.7 45.9H292.4L296.2 32.6H297.78L293.52 47H291.52L287.78 34.1H288.02L284.26 47H282.26ZM300.377 47V32.6H301.977V47H300.377ZM307.677 47V40.32C307.677 39.5467 307.484 38.9667 307.097 38.58C306.711 38.1933 306.137 38 305.377 38C304.711 38 304.117 38.1467 303.597 38.44C303.091 38.7333 302.691 39.14 302.397 39.66C302.117 40.18 301.977 40.7867 301.977 41.48L301.717 39.06C302.064 38.3 302.591 37.7 303.297 37.26C304.017 36.82 304.831 36.6 305.737 36.6C306.804 36.6 307.657 36.9067 308.297 37.52C308.951 38.12 309.277 38.9133 309.277 39.9V47H307.677ZM318.551 47C318.498 46.7733 318.458 46.5133 318.431 46.22C318.418 45.9267 318.411 45.5533 318.411 45.1H318.311V40.22C318.311 39.4467 318.131 38.88 317.771 38.52C317.425 38.1467 316.858 37.96 316.071 37.96C315.298 37.96 314.678 38.12 314.211 38.44C313.758 38.7467 313.505 39.1867 313.451 39.76H311.911C311.978 38.7733 312.391 38 313.151 37.44C313.911 36.88 314.905 36.6 316.131 36.6C317.398 36.6 318.338 36.9 318.951 37.5C319.565 38.1 319.871 39 319.871 40.2V45.1C319.871 45.3933 319.891 45.7 319.931 46.02C319.971 46.3267 320.025 46.6533 320.091 47H318.551ZM315.051 47.2C313.998 47.2 313.158 46.9467 312.531 46.44C311.918 45.92 311.611 45.2133 311.611 44.32C311.611 43.4267 311.918 42.7333 312.531 42.24C313.145 41.7467 314.038 41.4 315.211 41.2L318.771 40.6V41.92L315.451 42.44C314.705 42.56 314.138 42.76 313.751 43.04C313.365 43.32 313.171 43.7267 313.171 44.26C313.171 44.78 313.345 45.1733 313.691 45.44C314.051 45.7067 314.578 45.84 315.271 45.84C316.165 45.84 316.891 45.64 317.451 45.24C318.025 44.8267 318.311 44.2933 318.311 43.64L318.571 45.06C318.358 45.74 317.938 46.2667 317.311 46.64C316.698 47.0133 315.945 47.2 315.051 47.2ZM322.955 47V32.6H324.555V47H322.955ZM331.94 47.2C330.967 47.2 330.107 46.9733 329.36 46.52C328.613 46.0533 328.027 45.42 327.6 44.62C327.173 43.82 326.96 42.9 326.96 41.86C326.96 40.82 327.167 39.9067 327.58 39.12C328.007 38.32 328.6 37.7 329.36 37.26C330.12 36.82 330.993 36.6 331.98 36.6C332.927 36.6 333.747 36.8067 334.44 37.22C335.147 37.6333 335.687 38.2133 336.06 38.96C336.447 39.7067 336.64 40.5867 336.64 41.6C336.64 41.7333 336.633 41.86 336.62 41.98C336.62 42.1 336.607 42.2333 336.58 42.38H328.16V41.04H335.6L335.08 41.78C335.08 40.5533 334.807 39.6133 334.26 38.96C333.727 38.2933 332.967 37.96 331.98 37.96C330.967 37.96 330.147 38.3133 329.52 39.02C328.907 39.7133 328.6 40.6533 328.6 41.84C328.6 43.0533 328.907 44.0267 329.52 44.76C330.147 45.48 330.98 45.84 332.02 45.84C332.673 45.84 333.247 45.7 333.74 45.42C334.233 45.1267 334.593 44.7133 334.82 44.18H336.34C336.007 45.1133 335.447 45.8533 334.66 46.4C333.887 46.9333 332.98 47.2 331.94 47.2ZM342.509 47.2C341.256 47.2 340.256 46.9133 339.509 46.34C338.763 45.7533 338.336 44.9267 338.229 43.86H339.769C339.863 44.5133 340.149 45.0133 340.629 45.36C341.109 45.7067 341.749 45.88 342.549 45.88C343.256 45.88 343.809 45.7467 344.209 45.48C344.609 45.2133 344.809 44.8333 344.809 44.34C344.809 43.9933 344.696 43.6933 344.469 43.44C344.243 43.1733 343.789 42.9533 343.109 42.78L341.469 42.36C340.536 42.12 339.836 41.7533 339.369 41.26C338.903 40.7533 338.669 40.1533 338.669 39.46C338.669 38.58 338.996 37.8867 339.649 37.38C340.303 36.86 341.189 36.6 342.309 36.6C343.416 36.6 344.316 36.8667 345.009 37.4C345.703 37.9333 346.096 38.6733 346.189 39.62H344.649C344.556 39.0733 344.303 38.6533 343.889 38.36C343.476 38.0667 342.929 37.92 342.249 37.92C341.596 37.92 341.089 38.0467 340.729 38.3C340.369 38.54 340.189 38.8867 340.189 39.34C340.189 39.6867 340.316 39.9867 340.569 40.24C340.836 40.4933 341.276 40.7067 341.889 40.88L343.489 41.32C344.436 41.5733 345.149 41.96 345.629 42.48C346.109 43 346.349 43.6267 346.349 44.36C346.349 45.2533 346.009 45.9533 345.329 46.46C344.649 46.9533 343.709 47.2 342.509 47.2Z" fill="#070707"/>
<path d="M0 104C0 99.5817 3.58172 96 8 96H199C203.418 96 207 99.5817 207 104V168C207 172.418 203.418 176 199 176H8C3.58172 176 0 172.418 0 168L0 104Z" fill="#FFF6B3"/>
<path d="M54 136C54.0011 134.852 53.7196 133.721 53.1803 132.707C52.6411 131.693 51.8607 130.827 50.9079 130.186C49.9551 129.545 48.8592 129.148 47.7168 129.03C46.5744 128.913 45.4207 129.078 44.3573 129.512C43.2938 129.945 42.3534 130.634 41.6189 131.516C40.8844 132.399 40.3784 133.449 40.1455 134.574C39.9126 135.698 39.9599 136.863 40.2833 137.965C40.6067 139.067 41.1963 140.072 42 140.892V148C41.9999 148.171 42.0434 148.338 42.1264 148.487C42.2093 148.636 42.329 148.762 42.4741 148.851C42.6192 148.941 42.7847 148.992 42.9551 149C43.1255 149.007 43.295 148.971 43.4475 148.895L47 147.118L50.5525 148.895C50.705 148.971 50.8745 149.007 51.0449 149C51.2153 148.992 51.3808 148.941 51.5259 148.851C51.671 148.762 51.7907 148.636 51.8736 148.487C51.9566 148.338 52.0001 148.171 52 148V140.892C53.2826 139.587 54.0008 137.83 54 136ZM47 131C47.9889 131 48.9556 131.293 49.7779 131.843C50.6001 132.392 51.241 133.173 51.6194 134.087C51.9978 135 52.0969 136.006 51.9039 136.975C51.711 137.945 51.2348 138.836 50.5355 139.536C49.8363 140.235 48.9454 140.711 47.9755 140.904C47.0055 141.097 46.0002 140.998 45.0866 140.619C44.173 140.241 43.3921 139.6 42.8427 138.778C42.2932 137.956 42 136.989 42 136C42 134.674 42.5268 133.402 43.4645 132.464C44.4021 131.527 45.6739 131 47 131ZM47.4475 145.105C47.3086 145.035 47.1554 144.999 47 144.999C46.8446 144.999 46.6914 145.035 46.5525 145.105L44 146.382V142.324C44.9374 142.769 45.9622 143 47 143C48.0378 143 49.0626 142.769 50 142.324V146.382L47.4475 145.105ZM40 144C40 144.265 39.8946 144.52 39.7071 144.707C39.5196 144.895 39.2652 145 39 145H28C27.4696 145 26.9609 144.789 26.5858 144.414C26.2107 144.039 26 143.53 26 143V127C26 126.47 26.2107 125.961 26.5858 125.586C26.9609 125.211 27.4696 125 28 125H50C50.5304 125 51.0391 125.211 51.4142 125.586C51.7893 125.961 52 126.47 52 127C52 127.265 51.8946 127.52 51.7071 127.707C51.5196 127.895 51.2652 128 51 128C50.7348 128 50.4804 127.895 50.2929 127.707C50.1054 127.52 50 127.265 50 127H28V143H39C39.2652 143 39.5196 143.105 39.7071 143.293C39.8946 143.48 40 143.735 40 144ZM38 137C38 137.265 37.8946 137.52 37.7071 137.707C37.5196 137.895 37.2652 138 37 138H32C31.7348 138 31.4804 137.895 31.2929 137.707C31.1054 137.52 31 137.265 31 137C31 136.735 31.1054 136.48 31.2929 136.293C31.4804 136.105 31.7348 136 32 136H37C37.2652 136 37.5196 136.105 37.7071 136.293C37.8946 136.48 38 136.735 38 137ZM38 133C38 133.265 37.8946 133.52 37.7071 133.707C37.5196 133.895 37.2652 134 37 134H32C31.7348 134 31.4804 133.895 31.2929 133.707C31.1054 133.52 31 133.265 31 133C31 132.735 31.1054 132.48 31.2929 132.293C31.4804 132.105 31.7348 132 32 132H37C37.2652 132 37.5196 132.105 37.7071 132.293C37.8946 132.48 38 132.735 38 133Z" fill="#7A7A7D"/>
<path d="M64.72 143V128.6H66.36V143H64.72ZM65.56 143V141.56H73.76V143H65.56ZM79.6408 143.2C78.6408 143.2 77.7608 142.967 77.0008 142.5C76.2408 142.033 75.6474 141.4 75.2208 140.6C74.8074 139.787 74.6008 138.873 74.6008 137.86C74.6008 136.833 74.8141 135.927 75.2408 135.14C75.6674 134.353 76.2541 133.733 77.0008 133.28C77.7608 132.827 78.6408 132.6 79.6408 132.6C80.6541 132.6 81.5341 132.827 82.2808 133.28C83.0408 133.733 83.6274 134.353 84.0408 135.14C84.4674 135.927 84.6808 136.833 84.6808 137.86C84.6808 138.873 84.4674 139.787 84.0408 140.6C83.6274 141.4 83.0408 142.033 82.2808 142.5C81.5341 142.967 80.6541 143.2 79.6408 143.2ZM79.6408 141.84C80.3341 141.84 80.9341 141.673 81.4408 141.34C81.9474 140.993 82.3408 140.52 82.6208 139.92C82.9008 139.32 83.0408 138.627 83.0408 137.84C83.0408 136.667 82.7274 135.727 82.1008 135.02C81.4874 134.313 80.6674 133.96 79.6408 133.96C78.6274 133.96 77.8074 134.313 77.1808 135.02C76.5541 135.727 76.2408 136.667 76.2408 137.84C76.2408 138.627 76.3808 139.32 76.6608 139.92C76.9408 140.52 77.3341 140.993 77.8408 141.34C78.3608 141.673 78.9608 141.84 79.6408 141.84ZM87.648 147.1L89.928 141.8L90.288 141.24L93.628 132.8H95.268L89.348 147.1H87.648ZM90.108 143.1L85.528 132.8H87.288L91.228 142.02L90.108 143.1ZM103.184 143C103.131 142.773 103.091 142.513 103.064 142.22C103.051 141.927 103.044 141.553 103.044 141.1H102.944V136.22C102.944 135.447 102.764 134.88 102.404 134.52C102.058 134.147 101.491 133.96 100.704 133.96C99.9309 133.96 99.3109 134.12 98.8442 134.44C98.3909 134.747 98.1376 135.187 98.0842 135.76H96.5442C96.6109 134.773 97.0242 134 97.7842 133.44C98.5442 132.88 99.5376 132.6 100.764 132.6C102.031 132.6 102.971 132.9 103.584 133.5C104.198 134.1 104.504 135 104.504 136.2V141.1C104.504 141.393 104.524 141.7 104.564 142.02C104.604 142.327 104.658 142.653 104.724 143H103.184ZM99.6842 143.2C98.6309 143.2 97.7909 142.947 97.1642 142.44C96.5509 141.92 96.2442 141.213 96.2442 140.32C96.2442 139.427 96.5509 138.733 97.1642 138.24C97.7776 137.747 98.6709 137.4 99.8442 137.2L103.404 136.6V137.92L100.084 138.44C99.3376 138.56 98.7709 138.76 98.3842 139.04C97.9976 139.32 97.8042 139.727 97.8042 140.26C97.8042 140.78 97.9776 141.173 98.3242 141.44C98.6842 141.707 99.2109 141.84 99.9042 141.84C100.798 141.84 101.524 141.64 102.084 141.24C102.658 140.827 102.944 140.293 102.944 139.64L103.204 141.06C102.991 141.74 102.571 142.267 101.944 142.64C101.331 143.013 100.578 143.2 99.6842 143.2ZM107.588 143V128.6H109.188V143H107.588ZM116.397 143V128.6H117.997V143H116.397ZM123.697 143V136.32C123.697 135.547 123.504 134.967 123.117 134.58C122.73 134.193 122.157 134 121.397 134C120.73 134 120.137 134.147 119.617 134.44C119.11 134.733 118.71 135.14 118.417 135.66C118.137 136.18 117.997 136.787 117.997 137.48L117.737 135.06C118.084 134.3 118.61 133.7 119.317 133.26C120.037 132.82 120.85 132.6 121.757 132.6C122.824 132.6 123.677 132.907 124.317 133.52C124.97 134.12 125.297 134.913 125.297 135.9V143H123.697ZM132.61 143.2C131.61 143.2 130.73 142.967 129.97 142.5C129.21 142.033 128.616 141.4 128.19 140.6C127.776 139.787 127.57 138.873 127.57 137.86C127.57 136.833 127.783 135.927 128.21 135.14C128.636 134.353 129.223 133.733 129.97 133.28C130.73 132.827 131.61 132.6 132.61 132.6C133.623 132.6 134.503 132.827 135.25 133.28C136.01 133.733 136.596 134.353 137.01 135.14C137.436 135.927 137.65 136.833 137.65 137.86C137.65 138.873 137.436 139.787 137.01 140.6C136.596 141.4 136.01 142.033 135.25 142.5C134.503 142.967 133.623 143.2 132.61 143.2ZM132.61 141.84C133.303 141.84 133.903 141.673 134.41 141.34C134.916 140.993 135.31 140.52 135.59 139.92C135.87 139.32 136.01 138.627 136.01 137.84C136.01 136.667 135.696 135.727 135.07 135.02C134.456 134.313 133.636 133.96 132.61 133.96C131.596 133.96 130.776 134.313 130.15 135.02C129.523 135.727 129.21 136.667 129.21 137.84C129.21 138.627 129.35 139.32 129.63 139.92C129.91 140.52 130.303 140.993 130.81 141.34C131.33 141.673 131.93 141.84 132.61 141.84ZM140.049 143V128.6H141.649V143H140.049ZM152.274 143V140.62L152.474 140.68C152.221 141.453 151.754 142.067 151.074 142.52C150.407 142.973 149.607 143.2 148.674 143.2C147.754 143.2 146.947 142.98 146.254 142.54C145.574 142.1 145.041 141.487 144.654 140.7C144.281 139.913 144.094 138.993 144.094 137.94C144.094 136.873 144.287 135.94 144.674 135.14C145.061 134.34 145.601 133.72 146.294 133.28C146.987 132.84 147.801 132.62 148.734 132.62C149.694 132.62 150.501 132.853 151.154 133.32C151.807 133.787 152.254 134.447 152.494 135.3L152.174 135.34V128.6H153.774V143H152.274ZM148.974 141.8C150.001 141.8 150.801 141.453 151.374 140.76C151.961 140.053 152.254 139.093 152.254 137.88C152.254 136.693 151.961 135.753 151.374 135.06C150.787 134.367 149.987 134.02 148.974 134.02C147.961 134.02 147.167 134.367 146.594 135.06C146.021 135.753 145.734 136.713 145.734 137.94C145.734 139.14 146.021 140.087 146.594 140.78C147.167 141.46 147.961 141.8 148.974 141.8ZM161.163 143.2C160.189 143.2 159.329 142.973 158.583 142.52C157.836 142.053 157.249 141.42 156.823 140.62C156.396 139.82 156.183 138.9 156.183 137.86C156.183 136.82 156.389 135.907 156.803 135.12C157.229 134.32 157.823 133.7 158.583 133.26C159.343 132.82 160.216 132.6 161.203 132.6C162.149 132.6 162.969 132.807 163.663 133.22C164.369 133.633 164.909 134.213 165.283 134.96C165.669 135.707 165.863 136.587 165.863 137.6C165.863 137.733 165.856 137.86 165.843 137.98C165.843 138.1 165.829 138.233 165.803 138.38H157.383V137.04H164.823L164.303 137.78C164.303 136.553 164.029 135.613 163.483 134.96C162.949 134.293 162.189 133.96 161.203 133.96C160.189 133.96 159.369 134.313 158.743 135.02C158.129 135.713 157.823 136.653 157.823 137.84C157.823 139.053 158.129 140.027 158.743 140.76C159.369 141.48 160.203 141.84 161.243 141.84C161.896 141.84 162.469 141.7 162.963 141.42C163.456 141.127 163.816 140.713 164.043 140.18H165.563C165.229 141.113 164.669 141.853 163.883 142.4C163.109 142.933 162.203 143.2 161.163 143.2ZM168.272 143V132.8H169.772V135.4H169.872V143H168.272ZM169.872 137.68L169.612 135.26C169.852 134.393 170.279 133.733 170.892 133.28C171.505 132.827 172.212 132.6 173.012 132.6C173.345 132.6 173.572 132.627 173.692 132.68V134.22C173.625 134.193 173.532 134.18 173.412 134.18C173.292 134.167 173.145 134.16 172.972 134.16C171.959 134.16 171.185 134.467 170.652 135.08C170.132 135.68 169.872 136.547 169.872 137.68ZM178.939 143.2C177.686 143.2 176.686 142.913 175.939 142.34C175.192 141.753 174.766 140.927 174.659 139.86H176.199C176.292 140.513 176.579 141.013 177.059 141.36C177.539 141.707 178.179 141.88 178.979 141.88C179.686 141.88 180.239 141.747 180.639 141.48C181.039 141.213 181.239 140.833 181.239 140.34C181.239 139.993 181.126 139.693 180.899 139.44C180.672 139.173 180.219 138.953 179.539 138.78L177.899 138.36C176.966 138.12 176.266 137.753 175.799 137.26C175.332 136.753 175.099 136.153 175.099 135.46C175.099 134.58 175.426 133.887 176.079 133.38C176.732 132.86 177.619 132.6 178.739 132.6C179.846 132.6 180.746 132.867 181.439 133.4C182.132 133.933 182.526 134.673 182.619 135.62H181.079C180.986 135.073 180.732 134.653 180.319 134.36C179.906 134.067 179.359 133.92 178.679 133.92C178.026 133.92 177.519 134.047 177.159 134.3C176.799 134.54 176.619 134.887 176.619 135.34C176.619 135.687 176.746 135.987 176.999 136.24C177.266 136.493 177.706 136.707 178.319 136.88L179.919 137.32C180.866 137.573 181.579 137.96 182.059 138.48C182.539 139 182.779 139.627 182.779 140.36C182.779 141.253 182.439 141.953 181.759 142.46C181.079 142.953 180.139 143.2 178.939 143.2Z" fill="#070707"/>
<path d="M223 104C223 99.5817 226.582 96 231 96H415C419.418 96 423 99.5817 423 104V168C423 172.418 419.418 176 415 176H231C226.582 176 223 172.418 223 168V104Z" fill="#FFD1D1"/>
<path d="M257.5 137.5C257.203 137.5 256.913 137.412 256.667 137.247C256.42 137.082 256.228 136.848 256.114 136.574C256.001 136.3 255.971 135.998 256.029 135.707C256.087 135.416 256.23 135.149 256.439 134.939C256.649 134.73 256.916 134.587 257.207 134.529C257.498 134.471 257.8 134.501 258.074 134.614C258.348 134.728 258.582 134.92 258.747 135.167C258.912 135.413 259 135.703 259 136C259 136.398 258.842 136.779 258.561 137.061C258.279 137.342 257.898 137.5 257.5 137.5ZM266.5 134.5C266.203 134.5 265.913 134.588 265.667 134.753C265.42 134.918 265.228 135.152 265.114 135.426C265.001 135.7 264.971 136.002 265.029 136.293C265.087 136.584 265.23 136.851 265.439 137.061C265.649 137.27 265.916 137.413 266.207 137.471C266.498 137.529 266.8 137.499 267.074 137.386C267.348 137.272 267.582 137.08 267.747 136.833C267.912 136.587 268 136.297 268 136C268 135.602 267.842 135.221 267.561 134.939C267.279 134.658 266.898 134.5 266.5 134.5ZM264.966 140.154C264.076 140.707 263.048 140.999 262 140.999C260.952 140.999 259.924 140.707 259.034 140.154C258.809 140.012 258.538 139.966 258.279 140.024C258.02 140.083 257.795 140.242 257.654 140.466C257.512 140.691 257.466 140.962 257.524 141.221C257.583 141.48 257.742 141.705 257.966 141.846C259.176 142.601 260.574 143.001 262 143.001C263.426 143.001 264.824 142.601 266.034 141.846C266.258 141.705 266.417 141.48 266.476 141.221C266.534 140.962 266.488 140.691 266.346 140.466C266.205 140.242 265.98 140.083 265.721 140.024C265.462 139.966 265.191 140.012 264.966 140.154ZM275 136C275 138.571 274.238 141.085 272.809 143.222C271.381 145.36 269.35 147.026 266.975 148.01C264.599 148.994 261.986 149.252 259.464 148.75C256.942 148.249 254.626 147.01 252.808 145.192C250.99 143.374 249.751 141.058 249.25 138.536C248.748 136.014 249.006 133.401 249.99 131.025C250.974 128.65 252.64 126.619 254.778 125.191C256.915 123.762 259.429 123 262 123C265.447 123.004 268.751 124.374 271.188 126.812C273.626 129.249 274.996 132.553 275 136ZM273 136C272.997 133.168 271.903 130.447 269.945 128.4C267.988 126.354 265.318 125.14 262.489 125.011C261.04 127.048 261 128.985 261 129C261 129.265 261.105 129.52 261.293 129.707C261.48 129.895 261.735 130 262 130C262.265 130 262.52 129.895 262.707 129.707C262.895 129.52 263 129.265 263 129C263 128.735 263.105 128.48 263.293 128.293C263.48 128.105 263.735 128 264 128C264.265 128 264.52 128.105 264.707 128.293C264.895 128.48 265 128.735 265 129C265 129.796 264.684 130.559 264.121 131.121C263.559 131.684 262.796 132 262 132C261.204 132 260.441 131.684 259.879 131.121C259.316 130.559 259 129.796 259 129C259 128.909 259.016 127.212 260.058 125.171C257.998 125.541 256.087 126.49 254.547 127.908C253.008 129.325 251.906 131.152 251.369 133.175C250.831 135.197 250.882 137.331 251.515 139.325C252.148 141.32 253.337 143.092 254.941 144.435C256.546 145.778 258.501 146.635 260.575 146.906C262.65 147.177 264.759 146.85 266.655 145.965C268.551 145.079 270.155 143.671 271.279 141.906C272.403 140.141 273 138.092 273 136Z" fill="#7A7A7D"/>
<path d="M287.72 143V128.6H289.42L297.68 140.72L297.44 140.76V128.6H299V143H297.3L289.04 130.88L289.28 130.84V143H287.72ZM306.507 143.2C305.533 143.2 304.673 142.973 303.927 142.52C303.18 142.053 302.593 141.42 302.167 140.62C301.74 139.82 301.527 138.9 301.527 137.86C301.527 136.82 301.733 135.907 302.147 135.12C302.573 134.32 303.167 133.7 303.927 133.26C304.687 132.82 305.56 132.6 306.547 132.6C307.493 132.6 308.313 132.807 309.007 133.22C309.713 133.633 310.253 134.213 310.627 134.96C311.013 135.707 311.207 136.587 311.207 137.6C311.207 137.733 311.2 137.86 311.187 137.98C311.187 138.1 311.173 138.233 311.147 138.38H302.727V137.04H310.167L309.647 137.78C309.647 136.553 309.373 135.613 308.827 134.96C308.293 134.293 307.533 133.96 306.547 133.96C305.533 133.96 304.713 134.313 304.087 135.02C303.473 135.713 303.167 136.653 303.167 137.84C303.167 139.053 303.473 140.027 304.087 140.76C304.713 141.48 305.547 141.84 306.587 141.84C307.24 141.84 307.813 141.7 308.307 141.42C308.8 141.127 309.16 140.713 309.387 140.18H310.907C310.573 141.113 310.013 141.853 309.227 142.4C308.453 142.933 307.547 143.2 306.507 143.2ZM315.52 143L312.4 132.8H314.02L316.42 141.54H316.02L318.9 132.8H320.2L323.1 141.54H322.7L325.08 132.8H326.62L323.5 143H322.2L319.32 134.46H319.74L316.82 143H315.52ZM332.776 143V128.6H334.376V143H332.776ZM340.076 143V136.32C340.076 135.547 339.882 134.967 339.496 134.58C339.109 134.193 338.536 134 337.776 134C337.109 134 336.516 134.147 335.996 134.44C335.489 134.733 335.089 135.14 334.796 135.66C334.516 136.18 334.376 136.787 334.376 137.48L334.116 135.06C334.462 134.3 334.989 133.7 335.696 133.26C336.416 132.82 337.229 132.6 338.136 132.6C339.202 132.6 340.056 132.907 340.696 133.52C341.349 134.12 341.676 134.913 341.676 135.9V143H340.076ZM348.988 143.2C347.988 143.2 347.108 142.967 346.348 142.5C345.588 142.033 344.995 141.4 344.568 140.6C344.155 139.787 343.948 138.873 343.948 137.86C343.948 136.833 344.162 135.927 344.588 135.14C345.015 134.353 345.602 133.733 346.348 133.28C347.108 132.827 347.988 132.6 348.988 132.6C350.002 132.6 350.882 132.827 351.628 133.28C352.388 133.733 352.975 134.353 353.388 135.14C353.815 135.927 354.028 136.833 354.028 137.86C354.028 138.873 353.815 139.787 353.388 140.6C352.975 141.4 352.388 142.033 351.628 142.5C350.882 142.967 350.002 143.2 348.988 143.2ZM348.988 141.84C349.682 141.84 350.282 141.673 350.788 141.34C351.295 140.993 351.688 140.52 351.968 139.92C352.248 139.32 352.388 138.627 352.388 137.84C352.388 136.667 352.075 135.727 351.448 135.02C350.835 134.313 350.015 133.96 348.988 133.96C347.975 133.96 347.155 134.313 346.528 135.02C345.902 135.727 345.588 136.667 345.588 137.84C345.588 138.627 345.728 139.32 346.008 139.92C346.288 140.52 346.682 140.993 347.188 141.34C347.708 141.673 348.308 141.84 348.988 141.84ZM356.428 143V128.6H358.028V143H356.428ZM368.653 143V140.62L368.853 140.68C368.599 141.453 368.133 142.067 367.453 142.52C366.786 142.973 365.986 143.2 365.053 143.2C364.133 143.2 363.326 142.98 362.633 142.54C361.953 142.1 361.419 141.487 361.033 140.7C360.659 139.913 360.473 138.993 360.473 137.94C360.473 136.873 360.666 135.94 361.053 135.14C361.439 134.34 361.979 133.72 362.673 133.28C363.366 132.84 364.179 132.62 365.113 132.62C366.073 132.62 366.879 132.853 367.533 133.32C368.186 133.787 368.633 134.447 368.873 135.3L368.553 135.34V128.6H370.153V143H368.653ZM365.353 141.8C366.379 141.8 367.179 141.453 367.753 140.76C368.339 140.053 368.633 139.093 368.633 137.88C368.633 136.693 368.339 135.753 367.753 135.06C367.166 134.367 366.366 134.02 365.353 134.02C364.339 134.02 363.546 134.367 362.973 135.06C362.399 135.753 362.113 136.713 362.113 137.94C362.113 139.14 362.399 140.087 362.973 140.78C363.546 141.46 364.339 141.8 365.353 141.8ZM377.542 143.2C376.568 143.2 375.708 142.973 374.962 142.52C374.215 142.053 373.628 141.42 373.202 140.62C372.775 139.82 372.562 138.9 372.562 137.86C372.562 136.82 372.768 135.907 373.182 135.12C373.608 134.32 374.202 133.7 374.962 133.26C375.722 132.82 376.595 132.6 377.582 132.6C378.528 132.6 379.348 132.807 380.042 133.22C380.748 133.633 381.288 134.213 381.662 134.96C382.048 135.707 382.242 136.587 382.242 137.6C382.242 137.733 382.235 137.86 382.222 137.98C382.222 138.1 382.208 138.233 382.182 138.38H373.762V137.04H381.202L380.682 137.78C380.682 136.553 380.408 135.613 379.862 134.96C379.328 134.293 378.568 133.96 377.582 133.96C376.568 133.96 375.748 134.313 375.122 135.02C374.508 135.713 374.202 136.653 374.202 137.84C374.202 139.053 374.508 140.027 375.122 140.76C375.748 141.48 376.582 141.84 377.622 141.84C378.275 141.84 378.848 141.7 379.342 141.42C379.835 141.127 380.195 140.713 380.422 140.18H381.942C381.608 141.113 381.048 141.853 380.262 142.4C379.488 142.933 378.582 143.2 377.542 143.2ZM384.651 143V132.8H386.151V135.4H386.251V143H384.651ZM386.251 137.68L385.991 135.26C386.231 134.393 386.657 133.733 387.271 133.28C387.884 132.827 388.591 132.6 389.391 132.6C389.724 132.6 389.951 132.627 390.071 132.68V134.22C390.004 134.193 389.911 134.18 389.791 134.18C389.671 134.167 389.524 134.16 389.351 134.16C388.337 134.16 387.564 134.467 387.031 135.08C386.511 135.68 386.251 136.547 386.251 137.68ZM395.318 143.2C394.064 143.2 393.064 142.913 392.318 142.34C391.571 141.753 391.144 140.927 391.038 139.86H392.578C392.671 140.513 392.958 141.013 393.438 141.36C393.918 141.707 394.558 141.88 395.358 141.88C396.064 141.88 396.618 141.747 397.018 141.48C397.418 141.213 397.618 140.833 397.618 140.34C397.618 139.993 397.504 139.693 397.278 139.44C397.051 139.173 396.598 138.953 395.918 138.78L394.278 138.36C393.344 138.12 392.644 137.753 392.178 137.26C391.711 136.753 391.478 136.153 391.478 135.46C391.478 134.58 391.804 133.887 392.458 133.38C393.111 132.86 393.998 132.6 395.118 132.6C396.224 132.6 397.124 132.867 397.818 133.4C398.511 133.933 398.904 134.673 398.998 135.62H397.458C397.364 135.073 397.111 134.653 396.698 134.36C396.284 134.067 395.738 133.92 395.058 133.92C394.404 133.92 393.898 134.047 393.538 134.3C393.178 134.54 392.998 134.887 392.998 135.34C392.998 135.687 393.124 135.987 393.378 136.24C393.644 136.493 394.084 136.707 394.698 136.88L396.298 137.32C397.244 137.573 397.958 137.96 398.438 138.48C398.918 139 399.158 139.627 399.158 140.36C399.158 141.253 398.818 141.953 398.138 142.46C397.458 142.953 396.518 143.2 395.318 143.2Z" fill="#070707"/>
</svg>
