<svg width="318" height="200" viewBox="0 0 318 200" fill="none" xmlns="http://www.w3.org/2000/svg">
<g clip-path="url(#clip0_40003352_68067)">
<path d="M0 16C0 7.16344 7.16344 0 16 0H301.333C310.17 0 317.333 7.16344 317.333 16V184C317.333 192.837 310.17 200 301.333 200H16C7.16346 200 0 192.837 0 184V16Z" fill="#F6F6F6" fill-opacity="0.8"/>
<path d="M248 15.5C248 14.1193 249.119 13 250.5 13C251.881 13 253 14.1193 253 15.5V123.5C253 124.881 251.881 126 250.5 126C249.119 126 248 124.881 248 123.5V15.5Z" fill="#D9D9D9"/>
<path d="M317.368 81.965C318.344 80.9887 319.927 80.9887 320.904 81.965C321.88 82.9413 321.88 84.5243 320.904 85.5006L271.406 134.998C270.43 135.974 268.847 135.974 267.871 134.998C266.894 134.022 266.894 132.439 267.871 131.463L317.368 81.965Z" fill="#D9D9D9"/>
<path d="M34.5 156C33.1193 156 32 154.881 32 153.5C32 152.119 33.1193 151 34.5 151L223.5 151C224.881 151 226 152.119 226 153.5C226 154.881 224.881 156 223.5 156L34.5 156Z" fill="#D9D9D9"/>
<path d="M192.784 98.0949C191.808 97.1186 191.808 95.5357 192.784 94.5594C193.76 93.5831 195.343 93.5831 196.319 94.5594L233.222 131.462C234.199 132.439 234.199 134.022 233.222 134.998C232.246 135.974 230.663 135.974 229.687 134.998L192.784 98.0949Z" fill="#D9D9D9"/>
<path d="M248 181.5C248 180.119 249.119 179 250.5 179C251.881 179 253 180.119 253 181.5V251.5C253 252.881 251.881 254 250.5 254C249.119 254 248 252.881 248 251.5V181.5Z" fill="#D9D9D9"/>
<path d="M228.98 170.354C229.956 169.377 231.539 169.377 232.515 170.354C233.492 171.33 233.492 172.913 232.515 173.889L183.018 223.387C182.042 224.363 180.459 224.363 179.482 223.387C178.506 222.41 178.506 220.827 179.482 219.851L228.98 170.354Z" fill="#D9D9D9"/>
<path d="M278.5 156C277.119 156 276 154.881 276 153.5C276 152.119 277.119 151 278.5 151L348.5 151C349.881 151 351 152.119 351 153.5C351 154.881 349.881 156 348.5 156L278.5 156Z" fill="#D9D9D9"/>
<path d="M268.577 173.889C267.601 172.913 267.601 171.33 268.577 170.353C269.554 169.377 271.137 169.377 272.113 170.353L321.61 219.851C322.587 220.827 322.587 222.41 321.61 223.386C320.634 224.363 319.051 224.363 318.075 223.386L268.577 173.889Z" fill="#D9D9D9"/>
<path d="M257.587 139H244.413C243.488 139 242.632 139.494 242.169 140.296L235.583 151.704C235.12 152.506 235.12 153.494 235.583 154.296L242.169 165.704C242.632 166.506 243.488 167 244.413 167H257.587C258.513 167 259.368 166.506 259.831 165.704L266.418 154.296C266.881 153.494 266.881 152.506 266.418 151.704L259.831 140.296C259.368 139.494 258.513 139 257.587 139ZM252.683 153.972H264.361L258.522 164.085L252.683 153.972ZM264.361 152.028H253.057C252.132 152.028 251.276 151.534 250.813 150.732L245.161 140.944H256.465C257.391 140.944 258.246 141.437 258.709 142.239L264.361 152.028ZM249.317 152.028H237.64L243.478 141.915L249.317 152.028ZM237.64 153.972H248.943C249.869 153.972 250.724 154.465 251.187 155.267L256.839 165.056H245.535C244.61 165.056 243.754 164.563 243.291 163.761L237.64 153.972Z" fill="#6267F5"/>
</g>
<path d="M16 2.5H301.333C308.789 2.5 314.833 8.54416 314.833 16V184C314.833 191.456 308.789 197.5 301.333 197.5H16C8.54416 197.5 2.5 191.456 2.5 184V16C2.5 8.54416 8.54416 2.5 16 2.5Z" stroke="#F8F8F8" stroke-width="5"/>
<defs>
<clipPath id="clip0_40003352_68067">
<path d="M0 16C0 7.16344 7.16344 0 16 0H301.333C310.17 0 317.333 7.16344 317.333 16V184C317.333 192.837 310.17 200 301.333 200H16C7.16346 200 0 192.837 0 184V16Z" fill="white"/>
</clipPath>
</defs>
</svg>
