<svg width="1440" height="858" viewBox="0 0 1440 858" fill="none" xmlns="http://www.w3.org/2000/svg">
<g filter="url(#filter0_f_1630_10363)">
<ellipse cx="722.955" cy="161.506" rx="717.755" ry="464.979" fill="url(#paint0_radial_1630_10363)" fill-opacity="0.4"/>
</g>
<path d="M882.84 -86.6584L882.84 -277.069L718.776 -372.274L554.711 -277.069L554.711 -86.6584L718.776 8.54679L882.84 -86.6584Z" stroke="#00F2FF" stroke-width="1.63774"/>
<path d="M1414.55 222.312L1414.55 -586.034L718.776 -990.207L23.0002 -586.034L23.0002 222.312L718.776 626.485L1414.55 222.312Z" stroke="#00F2FF" stroke-width="1.63774"/>
<path d="M719.967 626.482L719.967 -995" stroke="#00F2FF" stroke-width="1.63774"/>
<circle cx="719.972" cy="-183.06" r="480.596" transform="rotate(90 719.972 -183.06)" stroke="#00F2FF" stroke-width="1.63774"/>
<path d="M758.293 649.901L758.293 603.953L719.152 580.979L680.011 603.953L680.011 649.901L719.152 672.876L758.293 649.901Z" stroke="#F1A3A1" stroke-width="1.63774"/>
<circle cx="718.584" cy="627.497" r="19.2868" transform="rotate(90 718.584 627.497)" fill="#A1FFFF"/>
<path d="M753.508 319.075L753.508 279.712L719.976 260.03L686.445 279.712L686.445 319.075L719.976 338.756L753.508 319.075Z" fill="#F1A3A1"/>
<path d="M882.143 -86.5528L1412.16 222.911" stroke="#00F2FF" stroke-width="1.63774"/>
<path d="M22.998 220.515L560.701 -89.878" stroke="#00F2FF" stroke-width="1.63774"/>
<path opacity="0.23" d="M719.666 -184.011L719.666 626.156L18.0412 221.073L719.666 -184.011Z" fill="url(#paint1_linear_1630_10363)"/>
<path d="M1440.71 302.312L1440.71 -506.034L719.856 -910.207L-0.999876 -506.034L-0.999912 302.312L719.855 706.485L1440.71 302.312Z" stroke="url(#paint2_linear_1630_10363)" stroke-opacity="0.12" stroke-width="1.63774"/>
<ellipse cx="303.175" cy="58.3119" rx="16.5626" ry="17.4343" transform="rotate(90 303.175 58.3119)" fill="#A1FFFF"/>
<g filter="url(#filter1_f_1630_10363)">
<ellipse cx="718.775" cy="255.272" rx="492.304" ry="254.397" fill="url(#paint3_linear_1630_10363)" fill-opacity="0.8"/>
</g>
<g filter="url(#filter2_f_1630_10363)">
<circle cx="1113.07" cy="594.048" r="1.5" fill="#ABEAF0" fill-opacity="0.7"/>
</g>
<g filter="url(#filter3_f_1630_10363)">
<circle cx="284.041" cy="537.946" r="1.5" fill="#ABEAF0" fill-opacity="0.7"/>
</g>
<g filter="url(#filter4_f_1630_10363)">
<circle cx="1265.24" cy="435.297" r="1.5" fill="#ABEAF0" fill-opacity="0.3"/>
</g>
<g filter="url(#filter5_f_1630_10363)">
<circle cx="470.805" cy="540.946" r="1.5" fill="#ABEAF0" fill-opacity="0.3"/>
</g>
<g filter="url(#filter6_f_1630_10363)">
<circle cx="224.971" cy="392.375" r="1.5" fill="#ABEAF0" fill-opacity="0.3"/>
</g>
<g filter="url(#filter7_f_1630_10363)">
<circle cx="71.541" cy="461.375" r="1.5" fill="#ABEAF0" fill-opacity="0.2"/>
</g>
<g filter="url(#filter8_f_1630_10363)">
<circle cx="1314.54" cy="528.297" r="1.5" fill="#ABEAF0" fill-opacity="0.2"/>
</g>
<defs>
<filter id="filter0_f_1630_10363" x="-190.801" y="-499.473" width="1827.51" height="1321.96" filterUnits="userSpaceOnUse" color-interpolation-filters="sRGB">
<feFlood flood-opacity="0" result="BackgroundImageFix"/>
<feBlend mode="normal" in="SourceGraphic" in2="BackgroundImageFix" result="shape"/>
<feGaussianBlur stdDeviation="98" result="effect1_foregroundBlur_1630_10363"/>
</filter>
<filter id="filter1_f_1630_10363" x="-121.529" y="-347.125" width="1680.61" height="1204.79" filterUnits="userSpaceOnUse" color-interpolation-filters="sRGB">
<feFlood flood-opacity="0" result="BackgroundImageFix"/>
<feBlend mode="normal" in="SourceGraphic" in2="BackgroundImageFix" result="shape"/>
<feGaussianBlur stdDeviation="174" result="effect1_foregroundBlur_1630_10363"/>
</filter>
<filter id="filter2_f_1630_10363" x="1109.57" y="590.548" width="7" height="7" filterUnits="userSpaceOnUse" color-interpolation-filters="sRGB">
<feFlood flood-opacity="0" result="BackgroundImageFix"/>
<feBlend mode="normal" in="SourceGraphic" in2="BackgroundImageFix" result="shape"/>
<feGaussianBlur stdDeviation="1" result="effect1_foregroundBlur_1630_10363"/>
</filter>
<filter id="filter3_f_1630_10363" x="280.541" y="534.446" width="7" height="7" filterUnits="userSpaceOnUse" color-interpolation-filters="sRGB">
<feFlood flood-opacity="0" result="BackgroundImageFix"/>
<feBlend mode="normal" in="SourceGraphic" in2="BackgroundImageFix" result="shape"/>
<feGaussianBlur stdDeviation="1" result="effect1_foregroundBlur_1630_10363"/>
</filter>
<filter id="filter4_f_1630_10363" x="1261.74" y="431.797" width="7" height="7" filterUnits="userSpaceOnUse" color-interpolation-filters="sRGB">
<feFlood flood-opacity="0" result="BackgroundImageFix"/>
<feBlend mode="normal" in="SourceGraphic" in2="BackgroundImageFix" result="shape"/>
<feGaussianBlur stdDeviation="1" result="effect1_foregroundBlur_1630_10363"/>
</filter>
<filter id="filter5_f_1630_10363" x="467.305" y="537.446" width="7" height="7" filterUnits="userSpaceOnUse" color-interpolation-filters="sRGB">
<feFlood flood-opacity="0" result="BackgroundImageFix"/>
<feBlend mode="normal" in="SourceGraphic" in2="BackgroundImageFix" result="shape"/>
<feGaussianBlur stdDeviation="1" result="effect1_foregroundBlur_1630_10363"/>
</filter>
<filter id="filter6_f_1630_10363" x="221.471" y="388.875" width="7" height="7" filterUnits="userSpaceOnUse" color-interpolation-filters="sRGB">
<feFlood flood-opacity="0" result="BackgroundImageFix"/>
<feBlend mode="normal" in="SourceGraphic" in2="BackgroundImageFix" result="shape"/>
<feGaussianBlur stdDeviation="1" result="effect1_foregroundBlur_1630_10363"/>
</filter>
<filter id="filter7_f_1630_10363" x="68.041" y="457.875" width="7" height="7" filterUnits="userSpaceOnUse" color-interpolation-filters="sRGB">
<feFlood flood-opacity="0" result="BackgroundImageFix"/>
<feBlend mode="normal" in="SourceGraphic" in2="BackgroundImageFix" result="shape"/>
<feGaussianBlur stdDeviation="1" result="effect1_foregroundBlur_1630_10363"/>
</filter>
<filter id="filter8_f_1630_10363" x="1311.04" y="524.797" width="7" height="7" filterUnits="userSpaceOnUse" color-interpolation-filters="sRGB">
<feFlood flood-opacity="0" result="BackgroundImageFix"/>
<feBlend mode="normal" in="SourceGraphic" in2="BackgroundImageFix" result="shape"/>
<feGaussianBlur stdDeviation="1" result="effect1_foregroundBlur_1630_10363"/>
</filter>
<radialGradient id="paint0_radial_1630_10363" cx="0" cy="0" r="1" gradientUnits="userSpaceOnUse" gradientTransform="translate(722.955 161.506) rotate(90) scale(582.775 726.644)">
<stop stop-color="#163333"/>
<stop offset="0.309382" stop-color="#00FCFF"/>
<stop offset="1" stop-color="#023134"/>
</radialGradient>
<linearGradient id="paint1_linear_1630_10363" x1="719.666" y1="-184.011" x2="820.801" y2="619.776" gradientUnits="userSpaceOnUse">
<stop stop-color="#05F3FF" stop-opacity="0"/>
<stop offset="1" stop-color="#05F3FF"/>
</linearGradient>
<linearGradient id="paint2_linear_1630_10363" x1="719.856" y1="582.343" x2="719.856" y2="861.844" gradientUnits="userSpaceOnUse">
<stop stop-color="#00F2FF"/>
<stop offset="1" stop-color="#009199" stop-opacity="0"/>
</linearGradient>
<linearGradient id="paint3_linear_1630_10363" x1="705.221" y1="97.9768" x2="705.221" y2="680.584" gradientUnits="userSpaceOnUse">
<stop stop-color="#040606"/>
<stop offset="1" stop-color="#5DBEBE"/>
</linearGradient>
</defs>
</svg>
