<svg width="488" height="180" viewBox="0 0 488 180" fill="none" xmlns="http://www.w3.org/2000/svg">
<path d="M0 8C0 3.58172 3.58172 0 8 0H480C484.418 0 488 3.58172 488 8V190C488 194.418 484.418 198 480 198H7.99999C3.58171 198 0 194.418 0 190V8Z" fill="#ECECEF"/>
<path d="M21.94 42V35.48L16.48 27.6H18.48L23.22 34.52H22.46L27.2 27.6H29.04L23.58 35.48V42H21.94ZM33.422 42.2C32.422 42.2 31.542 41.9667 30.782 41.5C30.022 41.0333 29.4287 40.4 29.002 39.6C28.5887 38.7867 28.382 37.8733 28.382 36.86C28.382 35.8333 28.5954 34.9267 29.022 34.14C29.4487 33.3533 30.0354 32.7333 30.782 32.28C31.542 31.8267 32.422 31.6 33.422 31.6C34.4354 31.6 35.3154 31.8267 36.062 32.28C36.822 32.7333 37.4087 33.3533 37.822 34.14C38.2487 34.9267 38.462 35.8333 38.462 36.86C38.462 37.8733 38.2487 38.7867 37.822 39.6C37.4087 40.4 36.822 41.0333 36.062 41.5C35.3154 41.9667 34.4354 42.2 33.422 42.2ZM33.422 40.84C34.1154 40.84 34.7154 40.6733 35.222 40.34C35.7287 39.9933 36.122 39.52 36.402 38.92C36.682 38.32 36.822 37.6267 36.822 36.84C36.822 35.6667 36.5087 34.7267 35.882 34.02C35.2687 33.3133 34.4487 32.96 33.422 32.96C32.4087 32.96 31.5887 33.3133 30.962 34.02C30.3354 34.7267 30.022 35.6667 30.022 36.84C30.022 37.6267 30.162 38.32 30.442 38.92C30.722 39.52 31.1154 39.9933 31.622 40.34C32.142 40.6733 32.742 40.84 33.422 40.84ZM44.1817 42.2C43.5151 42.2 42.9217 42.0667 42.4017 41.8C41.8817 41.52 41.4751 41.1333 41.1817 40.64C40.8884 40.1333 40.7417 39.5533 40.7417 38.9V31.8H42.3417V38.48C42.3417 39.2533 42.5284 39.8333 42.9017 40.22C43.2884 40.6067 43.8351 40.8 44.5417 40.8C45.1817 40.8 45.7484 40.6533 46.2417 40.36C46.7351 40.0667 47.1217 39.66 47.4017 39.14C47.6951 38.6067 47.8417 38 47.8417 37.32L48.1017 39.74C47.7684 40.5 47.2484 41.1 46.5417 41.54C45.8351 41.98 45.0484 42.2 44.1817 42.2ZM47.9417 42V39.6H47.8417V31.8H49.4417V42H47.9417ZM52.6391 42V31.8H54.1391V34.4H54.2391V42H52.6391ZM54.2391 36.68L53.9791 34.26C54.2191 33.3933 54.6457 32.7333 55.2591 32.28C55.8724 31.8267 56.5791 31.6 57.3791 31.6C57.7124 31.6 57.9391 31.6267 58.0591 31.68V33.22C57.9924 33.1933 57.8991 33.18 57.7791 33.18C57.6591 33.1667 57.5124 33.16 57.3391 33.16C56.3257 33.16 55.5524 33.4667 55.0191 34.08C54.4991 34.68 54.2391 35.5467 54.2391 36.68ZM64.263 42V27.6H69.983C71.0096 27.6 71.883 27.7667 72.603 28.1C73.323 28.4333 73.8696 28.9133 74.243 29.54C74.6296 30.1667 74.823 30.92 74.823 31.8C74.823 32.68 74.6296 33.44 74.243 34.08C73.8696 34.7067 73.323 35.1933 72.603 35.54C71.883 35.8867 71.0096 36.06 69.983 36.06H65.463V34.62H69.923C70.9896 34.62 71.7963 34.38 72.343 33.9C72.903 33.4067 73.183 32.7067 73.183 31.8C73.183 30.8933 72.9096 30.2067 72.363 29.74C71.8163 29.2733 71.003 29.04 69.923 29.04H65.903V42H64.263ZM77.268 42V31.8H78.768V34.4H78.868V42H77.268ZM78.868 36.68L78.608 34.26C78.848 33.3933 79.2746 32.7333 79.888 32.28C80.5013 31.8267 81.208 31.6 82.008 31.6C82.3413 31.6 82.568 31.6267 82.688 31.68V33.22C82.6213 33.1933 82.528 33.18 82.408 33.18C82.288 33.1667 82.1413 33.16 81.968 33.16C80.9546 33.16 80.1813 33.4667 79.648 34.08C79.128 34.68 78.868 35.5467 78.868 36.68ZM89.008 42.2C88.008 42.2 87.128 41.9667 86.368 41.5C85.608 41.0333 85.0146 40.4 84.588 39.6C84.1746 38.7867 83.968 37.8733 83.968 36.86C83.968 35.8333 84.1813 34.9267 84.608 34.14C85.0346 33.3533 85.6213 32.7333 86.368 32.28C87.128 31.8267 88.008 31.6 89.008 31.6C90.0213 31.6 90.9013 31.8267 91.648 32.28C92.408 32.7333 92.9946 33.3533 93.408 34.14C93.8346 34.9267 94.048 35.8333 94.048 36.86C94.048 37.8733 93.8346 38.7867 93.408 39.6C92.9946 40.4 92.408 41.0333 91.648 41.5C90.9013 41.9667 90.0213 42.2 89.008 42.2ZM89.008 40.84C89.7013 40.84 90.3013 40.6733 90.808 40.34C91.3146 39.9933 91.708 39.52 91.988 38.92C92.268 38.32 92.408 37.6267 92.408 36.84C92.408 35.6667 92.0946 34.7267 91.468 34.02C90.8546 33.3133 90.0346 32.96 89.008 32.96C87.9946 32.96 87.1746 33.3133 86.548 34.02C85.9213 34.7267 85.608 35.6667 85.608 36.84C85.608 37.6267 85.748 38.32 86.028 38.92C86.308 39.52 86.7013 39.9933 87.208 40.34C87.728 40.6733 88.328 40.84 89.008 40.84ZM103.868 42V39.62L104.068 39.68C103.814 40.4533 103.348 41.0667 102.668 41.52C102.001 41.9733 101.201 42.2 100.268 42.2C99.3477 42.2 98.541 41.98 97.8477 41.54C97.1677 41.1 96.6343 40.4867 96.2477 39.7C95.8743 38.9133 95.6877 37.9933 95.6877 36.94C95.6877 35.8733 95.881 34.94 96.2677 34.14C96.6543 33.34 97.1943 32.72 97.8877 32.28C98.581 31.84 99.3943 31.62 100.328 31.62C101.288 31.62 102.094 31.8533 102.748 32.32C103.401 32.7867 103.848 33.4467 104.088 34.3L103.768 34.34V27.6H105.368V42H103.868ZM100.568 40.8C101.594 40.8 102.394 40.4533 102.968 39.76C103.554 39.0533 103.848 38.0933 103.848 36.88C103.848 35.6933 103.554 34.7533 102.968 34.06C102.381 33.3667 101.581 33.02 100.568 33.02C99.5543 33.02 98.761 33.3667 98.1877 34.06C97.6143 34.7533 97.3277 35.7133 97.3277 36.94C97.3277 38.14 97.6143 39.0867 98.1877 39.78C98.761 40.46 99.5543 40.8 100.568 40.8ZM111.897 42.2C111.23 42.2 110.637 42.0667 110.117 41.8C109.597 41.52 109.19 41.1333 108.897 40.64C108.603 40.1333 108.457 39.5533 108.457 38.9V31.8H110.057V38.48C110.057 39.2533 110.243 39.8333 110.617 40.22C111.003 40.6067 111.55 40.8 112.257 40.8C112.897 40.8 113.463 40.6533 113.957 40.36C114.45 40.0667 114.837 39.66 115.117 39.14C115.41 38.6067 115.557 38 115.557 37.32L115.817 39.74C115.483 40.5 114.963 41.1 114.257 41.54C113.55 41.98 112.763 42.2 111.897 42.2ZM115.657 42V39.6H115.557V31.8H117.157V42H115.657ZM124.355 42.2C123.422 42.2 122.588 41.9733 121.855 41.52C121.135 41.0533 120.562 40.42 120.135 39.62C119.722 38.8067 119.515 37.8867 119.515 36.86C119.515 35.8333 119.722 34.9267 120.135 34.14C120.562 33.3533 121.135 32.7333 121.855 32.28C122.588 31.8267 123.415 31.6 124.335 31.6C125.095 31.6 125.775 31.7467 126.375 32.04C126.988 32.3333 127.488 32.7533 127.875 33.3C128.275 33.8333 128.528 34.46 128.635 35.18H127.155C127.022 34.5267 126.715 33.9933 126.235 33.58C125.755 33.1667 125.135 32.96 124.375 32.96C123.722 32.96 123.155 33.12 122.675 33.44C122.195 33.76 121.822 34.2133 121.555 34.8C121.288 35.3867 121.155 36.0733 121.155 36.86C121.155 37.6467 121.288 38.34 121.555 38.94C121.822 39.54 122.195 40.0067 122.675 40.34C123.168 40.6733 123.742 40.84 124.395 40.84C125.128 40.84 125.742 40.64 126.235 40.24C126.728 39.8267 127.042 39.2933 127.175 38.64H128.655C128.535 39.3467 128.268 39.9733 127.855 40.52C127.455 41.0533 126.955 41.4667 126.355 41.76C125.755 42.0533 125.088 42.2 124.355 42.2ZM135.02 42.18C133.887 42.18 133.06 41.9267 132.54 41.42C132.033 40.9 131.78 40.1533 131.78 39.18V29.42L133.38 28.82V39.16C133.38 39.7333 133.527 40.1533 133.82 40.42C134.113 40.6867 134.593 40.82 135.26 40.82C135.527 40.82 135.753 40.8067 135.94 40.78C136.14 40.74 136.3 40.6933 136.42 40.64V42C136.287 42.0533 136.093 42.0933 135.84 42.12C135.6 42.16 135.327 42.18 135.02 42.18ZM129.68 33.16V31.8H136.42V33.16H129.68Z" fill="#898694"/>
<path d="M17.376 82V70.48H18.688V82H17.376ZM21.3425 82V73.84H22.5425V75.76H22.6225V82H21.3425ZM27.1825 82V76.656C27.1825 76.0373 27.0278 75.5733 26.7185 75.264C26.4092 74.9547 25.9505 74.8 25.3425 74.8C24.8092 74.8 24.3345 74.9173 23.9185 75.152C23.5132 75.3867 23.1932 75.712 22.9585 76.128C22.7345 76.544 22.6225 77.0293 22.6225 77.584L22.4145 75.648C22.6918 75.04 23.1132 74.56 23.6785 74.208C24.2545 73.856 24.9052 73.68 25.6305 73.68C26.4838 73.68 27.1665 73.9253 27.6785 74.416C28.2012 74.896 28.4625 75.5307 28.4625 76.32V82H27.1825ZM33.9659 82.144C33.0592 82.144 32.3979 81.9413 31.9819 81.536C31.5765 81.12 31.3739 80.5227 31.3739 79.744V71.936L32.6539 71.456V79.728C32.6539 80.1867 32.7712 80.5227 33.0059 80.736C33.2405 80.9493 33.6245 81.056 34.1579 81.056C34.3712 81.056 34.5525 81.0453 34.7019 81.024C34.8619 80.992 34.9899 80.9547 35.0859 80.912V82C34.9792 82.0427 34.8245 82.0747 34.6219 82.096C34.4299 82.128 34.2112 82.144 33.9659 82.144ZM29.6939 74.928V73.84H35.0859V74.928H29.6939ZM39.9053 82.16C39.1266 82.16 38.4386 81.9787 37.8413 81.616C37.2439 81.2427 36.7746 80.736 36.4333 80.096C36.0919 79.456 35.9213 78.72 35.9213 77.888C35.9213 77.056 36.0866 76.3253 36.4173 75.696C36.7586 75.056 37.2333 74.56 37.8413 74.208C38.4493 73.856 39.1479 73.68 39.9373 73.68C40.6946 73.68 41.3506 73.8453 41.9053 74.176C42.4706 74.5067 42.9026 74.9707 43.2013 75.568C43.5106 76.1653 43.6653 76.8693 43.6653 77.68C43.6653 77.7867 43.6599 77.888 43.6493 77.984C43.6493 78.08 43.6386 78.1867 43.6173 78.304H36.8813V77.232H42.8333L42.4173 77.824C42.4173 76.8427 42.1986 76.0907 41.7613 75.568C41.3346 75.0347 40.7266 74.768 39.9373 74.768C39.1266 74.768 38.4706 75.0507 37.9693 75.616C37.4786 76.1707 37.2333 76.9227 37.2333 77.872C37.2333 78.8427 37.4786 79.6213 37.9693 80.208C38.4706 80.784 39.1373 81.072 39.9693 81.072C40.4919 81.072 40.9506 80.96 41.3453 80.736C41.7399 80.5013 42.0279 80.1707 42.2093 79.744H43.4253C43.1586 80.4907 42.7106 81.0827 42.0813 81.52C41.4626 81.9467 40.7373 82.16 39.9053 82.16ZM48.8405 85.44C47.8698 85.44 47.0592 85.2107 46.4085 84.752C45.7685 84.304 45.3792 83.7067 45.2405 82.96H46.4565C46.5738 83.3867 46.8352 83.7227 47.2405 83.968C47.6565 84.224 48.2165 84.352 48.9205 84.352C49.7525 84.352 50.3818 84.1227 50.8085 83.664C51.2352 83.216 51.4485 82.5547 51.4485 81.68V79.936L51.6085 79.968C51.4272 80.5867 51.0645 81.0827 50.5205 81.456C49.9765 81.8187 49.3312 82 48.5845 82C47.8698 82 47.2405 81.8293 46.6965 81.488C46.1525 81.136 45.7312 80.6507 45.4325 80.032C45.1338 79.4133 44.9845 78.6933 44.9845 77.872C44.9845 77.04 45.1392 76.3093 45.4485 75.68C45.7578 75.0507 46.1898 74.5653 46.7445 74.224C47.3098 73.872 47.9658 73.696 48.7125 73.696C49.4805 73.696 50.1205 73.8827 50.6325 74.256C51.1552 74.6293 51.5018 75.1627 51.6725 75.856L51.5285 75.872V73.84H52.7285V81.68C52.7285 82.8427 52.3818 83.76 51.6885 84.432C50.9952 85.104 50.0458 85.44 48.8405 85.44ZM48.9045 80.896C49.7045 80.896 50.3392 80.6187 50.8085 80.064C51.2778 79.5093 51.5125 78.7573 51.5125 77.808C51.5125 76.88 51.2778 76.1493 50.8085 75.616C50.3392 75.072 49.7045 74.8 48.9045 74.8C48.0938 74.8 47.4538 75.072 46.9845 75.616C46.5258 76.16 46.2965 76.9067 46.2965 77.856C46.2965 78.784 46.5312 79.5253 47.0005 80.08C47.4698 80.624 48.1045 80.896 48.9045 80.896ZM55.2956 82V73.84H56.4956V75.92H56.5756V82H55.2956ZM56.5756 77.744L56.3676 75.808C56.5596 75.1147 56.901 74.5867 57.3916 74.224C57.8823 73.8613 58.4476 73.68 59.0876 73.68C59.3543 73.68 59.5356 73.7013 59.6316 73.744V74.976C59.5783 74.9547 59.5036 74.944 59.4076 74.944C59.3116 74.9333 59.1943 74.928 59.0556 74.928C58.245 74.928 57.6263 75.1733 57.1996 75.664C56.7836 76.144 56.5756 76.8373 56.5756 77.744ZM66.0693 82C66.0266 81.8187 65.9946 81.6107 65.9733 81.376C65.9626 81.1413 65.9573 80.8427 65.9573 80.48H65.8773V76.576C65.8773 75.9573 65.7333 75.504 65.4453 75.216C65.1679 74.9173 64.7146 74.768 64.0853 74.768C63.4666 74.768 62.9706 74.896 62.5973 75.152C62.2346 75.3973 62.0319 75.7493 61.9893 76.208H60.7573C60.8106 75.4187 61.1413 74.8 61.7493 74.352C62.3573 73.904 63.1519 73.68 64.1333 73.68C65.1466 73.68 65.8986 73.92 66.3893 74.4C66.8799 74.88 67.1253 75.6 67.1253 76.56V80.48C67.1253 80.7147 67.1413 80.96 67.1733 81.216C67.2053 81.4613 67.2479 81.7227 67.3013 82H66.0693ZM63.2693 82.16C62.4266 82.16 61.7546 81.9573 61.2533 81.552C60.7626 81.136 60.5173 80.5707 60.5173 79.856C60.5173 79.1413 60.7626 78.5867 61.2533 78.192C61.7439 77.7973 62.4586 77.52 63.3973 77.36L66.2453 76.88V77.936L63.5893 78.352C62.9919 78.448 62.5386 78.608 62.2293 78.832C61.9199 79.056 61.7653 79.3813 61.7653 79.808C61.7653 80.224 61.9039 80.5387 62.1813 80.752C62.4693 80.9653 62.8906 81.072 63.4453 81.072C64.1599 81.072 64.7413 80.912 65.1893 80.592C65.6479 80.2613 65.8773 79.8347 65.8773 79.312L66.0853 80.448C65.9146 80.992 65.5786 81.4133 65.0773 81.712C64.5866 82.0107 63.9839 82.16 63.2693 82.16ZM72.6378 82.144C71.7311 82.144 71.0698 81.9413 70.6538 81.536C70.2484 81.12 70.0458 80.5227 70.0458 79.744V71.936L71.3258 71.456V79.728C71.3258 80.1867 71.4431 80.5227 71.6778 80.736C71.9124 80.9493 72.2964 81.056 72.8298 81.056C73.0431 81.056 73.2244 81.0453 73.3738 81.024C73.5338 80.992 73.6618 80.9547 73.7578 80.912V82C73.6511 82.0427 73.4964 82.0747 73.2938 82.096C73.1018 82.128 72.8831 82.144 72.6378 82.144ZM68.3658 74.928V73.84H73.7578V74.928H68.3658ZM78.5771 82.16C77.7985 82.16 77.1105 81.9787 76.5131 81.616C75.9158 81.2427 75.4465 80.736 75.1051 80.096C74.7638 79.456 74.5931 78.72 74.5931 77.888C74.5931 77.056 74.7585 76.3253 75.0891 75.696C75.4305 75.056 75.9051 74.56 76.5131 74.208C77.1211 73.856 77.8198 73.68 78.6091 73.68C79.3665 73.68 80.0225 73.8453 80.5771 74.176C81.1425 74.5067 81.5745 74.9707 81.8731 75.568C82.1825 76.1653 82.3371 76.8693 82.3371 77.68C82.3371 77.7867 82.3318 77.888 82.3211 77.984C82.3211 78.08 82.3105 78.1867 82.2891 78.304H75.5531V77.232H81.5051L81.0891 77.824C81.0891 76.8427 80.8705 76.0907 80.4331 75.568C80.0065 75.0347 79.3985 74.768 78.6091 74.768C77.7985 74.768 77.1425 75.0507 76.6411 75.616C76.1505 76.1707 75.9051 76.9227 75.9051 77.872C75.9051 78.8427 76.1505 79.6213 76.6411 80.208C77.1425 80.784 77.8091 81.072 78.6411 81.072C79.1638 81.072 79.6225 80.96 80.0171 80.736C80.4118 80.5013 80.6998 80.1707 80.8811 79.744H82.0971C81.8305 80.4907 81.3825 81.0827 80.7531 81.52C80.1345 81.9467 79.4091 82.16 78.5771 82.16ZM90.8595 82.16C90.0595 82.16 89.3555 81.9733 88.7475 81.6C88.1395 81.2267 87.6648 80.72 87.3235 80.08C86.9928 79.4293 86.8275 78.6987 86.8275 77.888C86.8275 77.0667 86.9982 76.3413 87.3395 75.712C87.6808 75.0827 88.1502 74.5867 88.7475 74.224C89.3555 73.8613 90.0595 73.68 90.8595 73.68C91.6702 73.68 92.3742 73.8613 92.9715 74.224C93.5795 74.5867 94.0488 75.0827 94.3795 75.712C94.7208 76.3413 94.8915 77.0667 94.8915 77.888C94.8915 78.6987 94.7208 79.4293 94.3795 80.08C94.0488 80.72 93.5795 81.2267 92.9715 81.6C92.3742 81.9733 91.6702 82.16 90.8595 82.16ZM90.8595 81.072C91.4142 81.072 91.8942 80.9387 92.2995 80.672C92.7048 80.3947 93.0195 80.016 93.2435 79.536C93.4675 79.056 93.5795 78.5013 93.5795 77.872C93.5795 76.9333 93.3288 76.1813 92.8275 75.616C92.3368 75.0507 91.6808 74.768 90.8595 74.768C90.0488 74.768 89.3928 75.0507 88.8915 75.616C88.3902 76.1813 88.1395 76.9333 88.1395 77.872C88.1395 78.5013 88.2515 79.056 88.4755 79.536C88.6995 80.016 89.0142 80.3947 89.4195 80.672C89.8355 80.9387 90.3155 81.072 90.8595 81.072ZM99.4673 82.16C98.9339 82.16 98.4593 82.0533 98.0433 81.84C97.6273 81.616 97.3019 81.3067 97.0673 80.912C96.8326 80.5067 96.7153 80.0427 96.7153 79.52V73.84H97.9953V79.184C97.9953 79.8027 98.1446 80.2667 98.4433 80.576C98.7526 80.8853 99.1899 81.04 99.7552 81.04C100.267 81.04 100.721 80.9227 101.115 80.688C101.51 80.4533 101.819 80.128 102.043 79.712C102.278 79.2853 102.395 78.8 102.395 78.256L102.603 80.192C102.337 80.8 101.921 81.28 101.355 81.632C100.79 81.984 100.161 82.16 99.4673 82.16ZM102.475 82V80.08H102.395V73.84H103.675V82H102.475ZM106.233 82V73.84H107.433V75.92H107.513V82H106.233ZM107.513 77.744L107.305 75.808C107.497 75.1147 107.838 74.5867 108.329 74.224C108.82 73.8613 109.385 73.68 110.025 73.68C110.292 73.68 110.473 73.7013 110.569 73.744V74.976C110.516 74.9547 110.441 74.944 110.345 74.944C110.249 74.9333 110.132 74.928 109.993 74.928C109.182 74.928 108.564 75.1733 108.137 75.664C107.721 76.144 107.513 76.8373 107.513 77.744ZM17.28 102V93.84H18.48V95.92H18.56V102H17.28ZM18.56 97.744L18.352 95.808C18.544 95.1147 18.8853 94.5867 19.376 94.224C19.8667 93.8613 20.432 93.68 21.072 93.68C21.3387 93.68 21.52 93.7013 21.616 93.744V94.976C21.5627 94.9547 21.488 94.944 21.392 94.944C21.296 94.9333 21.1787 94.928 21.04 94.928C20.2293 94.928 19.6107 95.1733 19.184 95.664C18.768 96.144 18.56 96.8373 18.56 97.744ZM26.3428 102.16C25.5641 102.16 24.8761 101.979 24.2788 101.616C23.6814 101.243 23.2121 100.736 22.8708 100.096C22.5294 99.456 22.3588 98.72 22.3588 97.888C22.3588 97.056 22.5241 96.3253 22.8548 95.696C23.1961 95.056 23.6708 94.56 24.2788 94.208C24.8868 93.856 25.5854 93.68 26.3748 93.68C27.1321 93.68 27.7881 93.8453 28.3428 94.176C28.9081 94.5067 29.3401 94.9707 29.6388 95.568C29.9481 96.1653 30.1028 96.8693 30.1028 97.68C30.1028 97.7867 30.0974 97.888 30.0868 97.984C30.0868 98.08 30.0761 98.1867 30.0548 98.304H23.3188V97.232H29.2708L28.8548 97.824C28.8548 96.8427 28.6361 96.0907 28.1988 95.568C27.7721 95.0347 27.1641 94.768 26.3748 94.768C25.5641 94.768 24.9081 95.0507 24.4068 95.616C23.9161 96.1707 23.6708 96.9227 23.6708 97.872C23.6708 98.8427 23.9161 99.6213 24.4068 100.208C24.9081 100.784 25.5748 101.072 26.4068 101.072C26.9294 101.072 27.3881 100.96 27.7828 100.736C28.1774 100.501 28.4654 100.171 28.6468 99.744H29.8628C29.5961 100.491 29.1481 101.083 28.5188 101.52C27.9001 101.947 27.1748 102.16 26.3428 102.16ZM36.9911 102C36.9485 101.819 36.9165 101.611 36.8951 101.376C36.8845 101.141 36.8791 100.843 36.8791 100.48H36.7991V96.576C36.7991 95.9573 36.6551 95.504 36.3671 95.216C36.0898 94.9173 35.6365 94.768 35.0071 94.768C34.3885 94.768 33.8925 94.896 33.5191 95.152C33.1565 95.3973 32.9538 95.7493 32.9111 96.208H31.6791C31.7325 95.4187 32.0631 94.8 32.6711 94.352C33.2791 93.904 34.0738 93.68 35.0551 93.68C36.0685 93.68 36.8205 93.92 37.3111 94.4C37.8018 94.88 38.0471 95.6 38.0471 96.56V100.48C38.0471 100.715 38.0631 100.96 38.0951 101.216C38.1271 101.461 38.1698 101.723 38.2231 102H36.9911ZM34.1911 102.16C33.3485 102.16 32.6765 101.957 32.1751 101.552C31.6845 101.136 31.4391 100.571 31.4391 99.856C31.4391 99.1413 31.6845 98.5867 32.1751 98.192C32.6658 97.7973 33.3805 97.52 34.3191 97.36L37.1671 96.88V97.936L34.5111 98.352C33.9138 98.448 33.4605 98.608 33.1511 98.832C32.8418 99.056 32.6871 99.3813 32.6871 99.808C32.6871 100.224 32.8258 100.539 33.1031 100.752C33.3911 100.965 33.8125 101.072 34.3671 101.072C35.0818 101.072 35.6631 100.912 36.1111 100.592C36.5698 100.261 36.7991 99.8347 36.7991 99.312L37.0071 100.448C36.8365 100.992 36.5005 101.413 35.9991 101.712C35.5085 102.011 34.9058 102.16 34.1911 102.16ZM46.4504 102V100.096L46.6104 100.144C46.4077 100.763 46.0344 101.253 45.4904 101.616C44.957 101.979 44.317 102.16 43.5704 102.16C42.8344 102.16 42.189 101.984 41.6344 101.632C41.0904 101.28 40.6637 100.789 40.3544 100.16C40.0557 99.5307 39.9064 98.7947 39.9064 97.952C39.9064 97.0987 40.061 96.352 40.3704 95.712C40.6797 95.072 41.1117 94.576 41.6664 94.224C42.221 93.872 42.8717 93.696 43.6184 93.696C44.3864 93.696 45.0317 93.8827 45.5544 94.256C46.077 94.6293 46.4344 95.1573 46.6264 95.84L46.3704 95.872V90.48H47.6504V102H46.4504ZM43.8104 101.04C44.6317 101.04 45.2717 100.763 45.7304 100.208C46.1997 99.6427 46.4344 98.8747 46.4344 97.904C46.4344 96.9547 46.1997 96.2027 45.7304 95.648C45.261 95.0933 44.621 94.816 43.8104 94.816C42.9997 94.816 42.365 95.0933 41.9064 95.648C41.4477 96.2027 41.2184 96.9707 41.2184 97.952C41.2184 98.912 41.4477 99.6693 41.9064 100.224C42.365 100.768 42.9997 101.04 43.8104 101.04ZM50.9215 105.28L52.7455 101.04L53.0335 100.592L55.7055 93.84H57.0175L52.2815 105.28H50.9215ZM52.8895 102.08L49.2255 93.84H50.6335L53.7855 101.216L52.8895 102.08ZM57.5769 98.256V97.04H63.1129V98.256H57.5769ZM67.8565 102.144C66.9498 102.144 66.2885 101.941 65.8725 101.536C65.4672 101.12 65.2645 100.523 65.2645 99.744V91.936L66.5445 91.456V99.728C66.5445 100.187 66.6618 100.523 66.8965 100.736C67.1312 100.949 67.5152 101.056 68.0485 101.056C68.2618 101.056 68.4432 101.045 68.5925 101.024C68.7525 100.992 68.8805 100.955 68.9765 100.912V102C68.8698 102.043 68.7152 102.075 68.5125 102.096C68.3205 102.128 68.1018 102.144 67.8565 102.144ZM63.5845 94.928V93.84H68.9765V94.928H63.5845ZM73.8283 102.16C73.0283 102.16 72.3243 101.973 71.7163 101.6C71.1083 101.227 70.6336 100.72 70.2923 100.08C69.9616 99.4293 69.7963 98.6987 69.7963 97.888C69.7963 97.0667 69.9669 96.3413 70.3083 95.712C70.6496 95.0827 71.1189 94.5867 71.7163 94.224C72.3243 93.8613 73.0283 93.68 73.8283 93.68C74.6389 93.68 75.3429 93.8613 75.9403 94.224C76.5483 94.5867 77.0176 95.0827 77.3483 95.712C77.6896 96.3413 77.8603 97.0667 77.8603 97.888C77.8603 98.6987 77.6896 99.4293 77.3483 100.08C77.0176 100.72 76.5483 101.227 75.9403 101.6C75.3429 101.973 74.6389 102.16 73.8283 102.16ZM73.8283 101.072C74.3829 101.072 74.8629 100.939 75.2683 100.672C75.6736 100.395 75.9883 100.016 76.2123 99.536C76.4363 99.056 76.5483 98.5013 76.5483 97.872C76.5483 96.9333 76.2976 96.1813 75.7963 95.616C75.3056 95.0507 74.6496 94.768 73.8283 94.768C73.0176 94.768 72.3616 95.0507 71.8603 95.616C71.3589 96.1813 71.1083 96.9333 71.1083 97.872C71.1083 98.5013 71.2203 99.056 71.4443 99.536C71.6683 100.016 71.9829 100.395 72.3883 100.672C72.8043 100.939 73.2843 101.072 73.8283 101.072ZM79.3738 98.256V97.04H84.9098V98.256H79.3738ZM89.4048 102.16C88.8714 102.16 88.3968 102.053 87.9808 101.84C87.5648 101.616 87.2394 101.307 87.0048 100.912C86.7701 100.507 86.6528 100.043 86.6528 99.52V93.84H87.9328V99.184C87.9328 99.8027 88.0821 100.267 88.3808 100.576C88.6901 100.885 89.1274 101.04 89.6927 101.04C90.2048 101.04 90.6581 100.923 91.0528 100.688C91.4474 100.453 91.7568 100.128 91.9808 99.712C92.2154 99.2853 92.3328 98.8 92.3328 98.256L92.5408 100.192C92.2741 100.8 91.8581 101.28 91.2928 101.632C90.7274 101.984 90.0981 102.16 89.4048 102.16ZM92.4128 102V100.08H92.3328V93.84H93.6128V102H92.4128ZM98.9074 102.16C97.9047 102.16 97.1047 101.931 96.5074 101.472C95.91 101.003 95.5687 100.341 95.4834 99.488H96.7154C96.79 100.011 97.0194 100.411 97.4034 100.688C97.7874 100.965 98.2994 101.104 98.9394 101.104C99.5047 101.104 99.9474 100.997 100.267 100.784C100.587 100.571 100.747 100.267 100.747 99.872C100.747 99.5947 100.657 99.3547 100.475 99.152C100.294 98.9387 99.9314 98.7627 99.3874 98.624L98.0754 98.288C97.3287 98.096 96.7687 97.8027 96.3954 97.408C96.022 97.0027 95.8354 96.5227 95.8354 95.968C95.8354 95.264 96.0967 94.7093 96.6194 94.304C97.142 93.888 97.8514 93.68 98.7474 93.68C99.6327 93.68 100.353 93.8933 100.907 94.32C101.462 94.7467 101.777 95.3387 101.851 96.096H100.619C100.545 95.6587 100.342 95.3227 100.011 95.088C99.6807 94.8533 99.2434 94.736 98.6994 94.736C98.1767 94.736 97.7714 94.8373 97.4834 95.04C97.1954 95.232 97.0514 95.5093 97.0514 95.872C97.0514 96.1493 97.1527 96.3893 97.3554 96.592C97.5687 96.7947 97.9207 96.9653 98.4114 97.104L99.6914 97.456C100.449 97.6587 101.019 97.968 101.403 98.384C101.787 98.8 101.979 99.3013 101.979 99.888C101.979 100.603 101.707 101.163 101.163 101.568C100.619 101.963 99.8674 102.16 98.9074 102.16ZM107.327 102.16C106.548 102.16 105.86 101.979 105.263 101.616C104.666 101.243 104.196 100.736 103.855 100.096C103.514 99.456 103.343 98.72 103.343 97.888C103.343 97.056 103.508 96.3253 103.839 95.696C104.18 95.056 104.655 94.56 105.263 94.208C105.871 93.856 106.57 93.68 107.359 93.68C108.116 93.68 108.772 93.8453 109.327 94.176C109.892 94.5067 110.324 94.9707 110.623 95.568C110.932 96.1653 111.087 96.8693 111.087 97.68C111.087 97.7867 111.082 97.888 111.071 97.984C111.071 98.08 111.06 98.1867 111.039 98.304H104.303V97.232H110.255L109.839 97.824C109.839 96.8427 109.62 96.0907 109.183 95.568C108.756 95.0347 108.148 94.768 107.359 94.768C106.548 94.768 105.892 95.0507 105.391 95.616C104.9 96.1707 104.655 96.9227 104.655 97.872C104.655 98.8427 104.9 99.6213 105.391 100.208C105.892 100.784 106.559 101.072 107.391 101.072C107.914 101.072 108.372 100.96 108.767 100.736C109.162 100.501 109.45 100.171 109.631 99.744H110.847C110.58 100.491 110.132 101.083 109.503 101.52C108.884 101.947 108.159 102.16 107.327 102.16ZM20.048 122.16C19.0453 122.16 18.2453 121.931 17.648 121.472C17.0507 121.003 16.7093 120.341 16.624 119.488H17.856C17.9307 120.011 18.16 120.411 18.544 120.688C18.928 120.965 19.44 121.104 20.08 121.104C20.6453 121.104 21.088 120.997 21.408 120.784C21.728 120.571 21.888 120.267 21.888 119.872C21.888 119.595 21.7973 119.355 21.616 119.152C21.4347 118.939 21.072 118.763 20.528 118.624L19.216 118.288C18.4693 118.096 17.9093 117.803 17.536 117.408C17.1627 117.003 16.976 116.523 16.976 115.968C16.976 115.264 17.2373 114.709 17.76 114.304C18.2827 113.888 18.992 113.68 19.888 113.68C20.7733 113.68 21.4933 113.893 22.048 114.32C22.6027 114.747 22.9173 115.339 22.992 116.096H21.76C21.6853 115.659 21.4827 115.323 21.152 115.088C20.8213 114.853 20.384 114.736 19.84 114.736C19.3173 114.736 18.912 114.837 18.624 115.04C18.336 115.232 18.192 115.509 18.192 115.872C18.192 116.149 18.2933 116.389 18.496 116.592C18.7093 116.795 19.0613 116.965 19.552 117.104L20.832 117.456C21.5893 117.659 22.16 117.968 22.544 118.384C22.928 118.8 23.12 119.301 23.12 119.888C23.12 120.603 22.848 121.163 22.304 121.568C21.76 121.963 21.008 122.16 20.048 122.16ZM28.5158 122.16C27.7158 122.16 27.0118 121.973 26.4038 121.6C25.7958 121.227 25.3211 120.72 24.9798 120.08C24.6491 119.429 24.4838 118.699 24.4838 117.888C24.4838 117.067 24.6544 116.341 24.9958 115.712C25.3371 115.083 25.8064 114.587 26.4038 114.224C27.0118 113.861 27.7158 113.68 28.5158 113.68C29.3264 113.68 30.0304 113.861 30.6278 114.224C31.2358 114.587 31.7051 115.083 32.0358 115.712C32.3771 116.341 32.5478 117.067 32.5478 117.888C32.5478 118.699 32.3771 119.429 32.0358 120.08C31.7051 120.72 31.2358 121.227 30.6278 121.6C30.0304 121.973 29.3264 122.16 28.5158 122.16ZM28.5158 121.072C29.0704 121.072 29.5504 120.939 29.9558 120.672C30.3611 120.395 30.6758 120.016 30.8998 119.536C31.1238 119.056 31.2358 118.501 31.2358 117.872C31.2358 116.933 30.9851 116.181 30.4838 115.616C29.9931 115.051 29.3371 114.768 28.5158 114.768C27.7051 114.768 27.0491 115.051 26.5478 115.616C26.0464 116.181 25.7958 116.933 25.7958 117.872C25.7958 118.501 25.9078 119.056 26.1318 119.536C26.3558 120.016 26.6704 120.395 27.0758 120.672C27.4918 120.939 27.9718 121.072 28.5158 121.072ZM34.4675 122V110.48H35.7475V122H34.4675ZM40.9673 122.16C40.4339 122.16 39.9593 122.053 39.5433 121.84C39.1273 121.616 38.8019 121.307 38.5673 120.912C38.3326 120.507 38.2153 120.043 38.2153 119.52V113.84H39.4953V119.184C39.4953 119.803 39.6446 120.267 39.9433 120.576C40.2526 120.885 40.6899 121.04 41.2552 121.04C41.7673 121.04 42.2206 120.923 42.6153 120.688C43.0099 120.453 43.3193 120.128 43.5433 119.712C43.7779 119.285 43.8953 118.8 43.8953 118.256L44.1033 120.192C43.8366 120.8 43.4206 121.28 42.8553 121.632C42.2899 121.984 41.6606 122.16 40.9673 122.16ZM43.9753 122V120.08H43.8953V113.84H45.1753V122H43.9753ZM50.9503 122.144C50.0436 122.144 49.3823 121.941 48.9663 121.536C48.5609 121.12 48.3583 120.523 48.3583 119.744V111.936L49.6383 111.456V119.728C49.6383 120.187 49.7556 120.523 49.9903 120.736C50.2249 120.949 50.6089 121.056 51.1423 121.056C51.3556 121.056 51.5369 121.045 51.6863 121.024C51.8463 120.992 51.9743 120.955 52.0703 120.912V122C51.9636 122.043 51.8089 122.075 51.6063 122.096C51.4143 122.128 51.1956 122.144 50.9503 122.144ZM46.6783 114.928V113.84H52.0703V114.928H46.6783ZM53.7175 122V113.84H54.9975V122H53.7175ZM53.6215 111.984V110.48H55.0935V111.984H53.6215ZM60.922 122.16C60.122 122.16 59.418 121.973 58.81 121.6C58.202 121.227 57.7273 120.72 57.386 120.08C57.0553 119.429 56.89 118.699 56.89 117.888C56.89 117.067 57.0607 116.341 57.402 115.712C57.7433 115.083 58.2127 114.587 58.81 114.224C59.418 113.861 60.122 113.68 60.922 113.68C61.7327 113.68 62.4367 113.861 63.034 114.224C63.642 114.587 64.1113 115.083 64.442 115.712C64.7833 116.341 64.954 117.067 64.954 117.888C64.954 118.699 64.7833 119.429 64.442 120.08C64.1113 120.72 63.642 121.227 63.034 121.6C62.4367 121.973 61.7327 122.16 60.922 122.16ZM60.922 121.072C61.4767 121.072 61.9567 120.939 62.362 120.672C62.7673 120.395 63.082 120.016 63.306 119.536C63.53 119.056 63.642 118.501 63.642 117.872C63.642 116.933 63.3913 116.181 62.89 115.616C62.3993 115.051 61.7433 114.768 60.922 114.768C60.1113 114.768 59.4553 115.051 58.954 115.616C58.4527 116.181 58.202 116.933 58.202 117.872C58.202 118.501 58.314 119.056 58.538 119.536C58.762 120.016 59.0767 120.395 59.482 120.672C59.898 120.939 60.378 121.072 60.922 121.072ZM66.8738 122V113.84H68.0738V115.76H68.1538V122H66.8738ZM72.7138 122V116.656C72.7138 116.037 72.5591 115.573 72.2498 115.264C71.9404 114.955 71.4818 114.8 70.8738 114.8C70.3404 114.8 69.8658 114.917 69.4498 115.152C69.0444 115.387 68.7244 115.712 68.4898 116.128C68.2658 116.544 68.1538 117.029 68.1538 117.584L67.9457 115.648C68.2231 115.04 68.6444 114.56 69.2098 114.208C69.7858 113.856 70.4364 113.68 71.1618 113.68C72.0151 113.68 72.6978 113.925 73.2098 114.416C73.7324 114.896 73.9938 115.531 73.9938 116.32V122H72.7138ZM79.1886 122.16C78.186 122.16 77.386 121.931 76.7886 121.472C76.1913 121.003 75.85 120.341 75.7646 119.488H76.9966C77.0713 120.011 77.3006 120.411 77.6846 120.688C78.0686 120.965 78.5806 121.104 79.2206 121.104C79.786 121.104 80.2286 120.997 80.5486 120.784C80.8686 120.571 81.0286 120.267 81.0286 119.872C81.0286 119.595 80.938 119.355 80.7566 119.152C80.5753 118.939 80.2126 118.763 79.6686 118.624L78.3566 118.288C77.61 118.096 77.05 117.803 76.6766 117.408C76.3033 117.003 76.1166 116.523 76.1166 115.968C76.1166 115.264 76.378 114.709 76.9006 114.304C77.4233 113.888 78.1326 113.68 79.0286 113.68C79.914 113.68 80.634 113.893 81.1886 114.32C81.7433 114.747 82.058 115.339 82.1326 116.096H80.9006C80.826 115.659 80.6233 115.323 80.2926 115.088C79.962 114.853 79.5246 114.736 78.9806 114.736C78.458 114.736 78.0526 114.837 77.7646 115.04C77.4766 115.232 77.3326 115.509 77.3326 115.872C77.3326 116.149 77.434 116.389 77.6366 116.592C77.85 116.795 78.202 116.965 78.6926 117.104L79.9726 117.456C80.73 117.659 81.3006 117.968 81.6846 118.384C82.0686 118.8 82.2606 119.301 82.2606 119.888C82.2606 120.603 81.9886 121.163 81.4446 121.568C80.9006 121.963 80.1486 122.16 79.1886 122.16ZM83.4973 122V120.352H85.1453V122H83.4973Z" fill="#181818"/>
<path d="M152 24C152 19.5817 155.582 16 160 16L464 16C468.418 16 472 19.5817 472 24V174C472 178.418 468.418 182 464 182H160C155.582 182 152 178.418 152 174V24Z" fill="#4A4A4A"/>
<path d="M165.66 42V29.04H160.72V27.6H172.24V29.04H167.3V42H165.66ZM172.245 42V31.8H173.745V34.4H173.845V42H172.245ZM173.845 36.68L173.585 34.26C173.825 33.3933 174.251 32.7333 174.865 32.28C175.478 31.8267 176.185 31.6 176.985 31.6C177.318 31.6 177.545 31.6267 177.665 31.68V33.22C177.598 33.1933 177.505 33.18 177.385 33.18C177.265 33.1667 177.118 33.16 176.945 33.16C175.931 33.16 175.158 33.4667 174.625 34.08C174.105 34.68 173.845 35.5467 173.845 36.68ZM185.712 42C185.658 41.7733 185.618 41.5133 185.592 41.22C185.578 40.9267 185.572 40.5533 185.572 40.1H185.472V35.22C185.472 34.4467 185.292 33.88 184.932 33.52C184.585 33.1467 184.018 32.96 183.232 32.96C182.458 32.96 181.838 33.12 181.372 33.44C180.918 33.7467 180.665 34.1867 180.612 34.76H179.072C179.138 33.7733 179.552 33 180.312 32.44C181.072 31.88 182.065 31.6 183.292 31.6C184.558 31.6 185.498 31.9 186.112 32.5C186.725 33.1 187.032 34 187.032 35.2V40.1C187.032 40.3933 187.052 40.7 187.092 41.02C187.132 41.3267 187.185 41.6533 187.252 42H185.712ZM182.212 42.2C181.158 42.2 180.318 41.9467 179.692 41.44C179.078 40.92 178.772 40.2133 178.772 39.32C178.772 38.4267 179.078 37.7333 179.692 37.24C180.305 36.7467 181.198 36.4 182.372 36.2L185.932 35.6V36.92L182.612 37.44C181.865 37.56 181.298 37.76 180.912 38.04C180.525 38.32 180.332 38.7267 180.332 39.26C180.332 39.78 180.505 40.1733 180.852 40.44C181.212 40.7067 181.738 40.84 182.432 40.84C183.325 40.84 184.052 40.64 184.612 40.24C185.185 39.8267 185.472 39.2933 185.472 38.64L185.732 40.06C185.518 40.74 185.098 41.2667 184.472 41.64C183.858 42.0133 183.105 42.2 182.212 42.2ZM197.536 42V39.62L197.736 39.68C197.482 40.4533 197.016 41.0667 196.336 41.52C195.669 41.9733 194.869 42.2 193.936 42.2C193.016 42.2 192.209 41.98 191.516 41.54C190.836 41.1 190.302 40.4867 189.916 39.7C189.542 38.9133 189.356 37.9933 189.356 36.94C189.356 35.8733 189.549 34.94 189.936 34.14C190.322 33.34 190.862 32.72 191.556 32.28C192.249 31.84 193.062 31.62 193.996 31.62C194.956 31.62 195.762 31.8533 196.416 32.32C197.069 32.7867 197.516 33.4467 197.756 34.3L197.436 34.34V27.6H199.036V42H197.536ZM194.236 40.8C195.262 40.8 196.062 40.4533 196.636 39.76C197.222 39.0533 197.516 38.0933 197.516 36.88C197.516 35.6933 197.222 34.7533 196.636 34.06C196.049 33.3667 195.249 33.02 194.236 33.02C193.222 33.02 192.429 33.3667 191.856 34.06C191.282 34.7533 190.996 35.7133 190.996 36.94C190.996 38.14 191.282 39.0867 191.856 39.78C192.429 40.46 193.222 40.8 194.236 40.8ZM206.425 42.2C205.451 42.2 204.591 41.9733 203.845 41.52C203.098 41.0533 202.511 40.42 202.085 39.62C201.658 38.82 201.445 37.9 201.445 36.86C201.445 35.82 201.651 34.9067 202.065 34.12C202.491 33.32 203.085 32.7 203.845 32.26C204.605 31.82 205.478 31.6 206.465 31.6C207.411 31.6 208.231 31.8067 208.925 32.22C209.631 32.6333 210.171 33.2133 210.545 33.96C210.931 34.7067 211.125 35.5867 211.125 36.6C211.125 36.7333 211.118 36.86 211.105 36.98C211.105 37.1 211.091 37.2333 211.065 37.38H202.645V36.04H210.085L209.565 36.78C209.565 35.5533 209.291 34.6133 208.745 33.96C208.211 33.2933 207.451 32.96 206.465 32.96C205.451 32.96 204.631 33.3133 204.005 34.02C203.391 34.7133 203.085 35.6533 203.085 36.84C203.085 38.0533 203.391 39.0267 204.005 39.76C204.631 40.48 205.465 40.84 206.505 40.84C207.158 40.84 207.731 40.7 208.225 40.42C208.718 40.1267 209.078 39.7133 209.305 39.18H210.825C210.491 40.1133 209.931 40.8533 209.145 41.4C208.371 41.9333 207.465 42.2 206.425 42.2ZM213.534 42V31.8H215.034V34.4H215.134V42H213.534ZM215.134 36.68L214.874 34.26C215.114 33.3933 215.54 32.7333 216.154 32.28C216.767 31.8267 217.474 31.6 218.274 31.6C218.607 31.6 218.834 31.6267 218.954 31.68V33.22C218.887 33.1933 218.794 33.18 218.674 33.18C218.554 33.1667 218.407 33.16 218.234 33.16C217.22 33.16 216.447 33.4667 215.914 34.08C215.394 34.68 215.134 35.5467 215.134 36.68ZM225.158 42V27.6H226.798V42H225.158ZM225.998 42V40.56H234.198V42H225.998ZM240.018 42.2C239.045 42.2 238.185 41.9733 237.438 41.52C236.692 41.0533 236.105 40.42 235.678 39.62C235.252 38.82 235.038 37.9 235.038 36.86C235.038 35.82 235.245 34.9067 235.658 34.12C236.085 33.32 236.678 32.7 237.438 32.26C238.198 31.82 239.072 31.6 240.058 31.6C241.005 31.6 241.825 31.8067 242.518 32.22C243.225 32.6333 243.765 33.2133 244.138 33.96C244.525 34.7067 244.718 35.5867 244.718 36.6C244.718 36.7333 244.712 36.86 244.698 36.98C244.698 37.1 244.685 37.2333 244.658 37.38H236.238V36.04H243.678L243.158 36.78C243.158 35.5533 242.885 34.6133 242.338 33.96C241.805 33.2933 241.045 32.96 240.058 32.96C239.045 32.96 238.225 33.3133 237.598 34.02C236.985 34.7133 236.678 35.6533 236.678 36.84C236.678 38.0533 236.985 39.0267 237.598 39.76C238.225 40.48 239.058 40.84 240.098 40.84C240.752 40.84 241.325 40.7 241.818 40.42C242.312 40.1267 242.672 39.7133 242.898 39.18H244.418C244.085 40.1133 243.525 40.8533 242.738 41.4C241.965 41.9333 241.058 42.2 240.018 42.2ZM253.329 42C253.275 41.7733 253.235 41.5133 253.209 41.22C253.195 40.9267 253.189 40.5533 253.189 40.1H253.089V35.22C253.089 34.4467 252.909 33.88 252.549 33.52C252.202 33.1467 251.635 32.96 250.849 32.96C250.075 32.96 249.455 33.12 248.989 33.44C248.535 33.7467 248.282 34.1867 248.229 34.76H246.689C246.755 33.7733 247.169 33 247.929 32.44C248.689 31.88 249.682 31.6 250.909 31.6C252.175 31.6 253.115 31.9 253.729 32.5C254.342 33.1 254.649 34 254.649 35.2V40.1C254.649 40.3933 254.669 40.7 254.709 41.02C254.749 41.3267 254.802 41.6533 254.869 42H253.329ZM249.829 42.2C248.775 42.2 247.935 41.9467 247.309 41.44C246.695 40.92 246.389 40.2133 246.389 39.32C246.389 38.4267 246.695 37.7333 247.309 37.24C247.922 36.7467 248.815 36.4 249.989 36.2L253.549 35.6V36.92L250.229 37.44C249.482 37.56 248.915 37.76 248.529 38.04C248.142 38.32 247.949 38.7267 247.949 39.26C247.949 39.78 248.122 40.1733 248.469 40.44C248.829 40.7067 249.355 40.84 250.049 40.84C250.942 40.84 251.669 40.64 252.229 40.24C252.802 39.8267 253.089 39.2933 253.089 38.64L253.349 40.06C253.135 40.74 252.715 41.2667 252.089 41.64C251.475 42.0133 250.722 42.2 249.829 42.2ZM265.153 42V39.62L265.353 39.68C265.099 40.4533 264.633 41.0667 263.953 41.52C263.286 41.9733 262.486 42.2 261.553 42.2C260.633 42.2 259.826 41.98 259.133 41.54C258.453 41.1 257.919 40.4867 257.533 39.7C257.159 38.9133 256.973 37.9933 256.973 36.94C256.973 35.8733 257.166 34.94 257.553 34.14C257.939 33.34 258.479 32.72 259.173 32.28C259.866 31.84 260.679 31.62 261.613 31.62C262.573 31.62 263.379 31.8533 264.033 32.32C264.686 32.7867 265.133 33.4467 265.373 34.3L265.053 34.34V27.6H266.653V42H265.153ZM261.853 40.8C262.879 40.8 263.679 40.4533 264.253 39.76C264.839 39.0533 265.133 38.0933 265.133 36.88C265.133 35.6933 264.839 34.7533 264.253 34.06C263.666 33.3667 262.866 33.02 261.853 33.02C260.839 33.02 260.046 33.3667 259.473 34.06C258.899 34.7533 258.613 35.7133 258.613 36.94C258.613 38.14 258.899 39.0867 259.473 39.78C260.046 40.46 260.839 40.8 261.853 40.8ZM274.042 42.2C273.068 42.2 272.208 41.9733 271.462 41.52C270.715 41.0533 270.128 40.42 269.702 39.62C269.275 38.82 269.062 37.9 269.062 36.86C269.062 35.82 269.268 34.9067 269.682 34.12C270.108 33.32 270.702 32.7 271.462 32.26C272.222 31.82 273.095 31.6 274.082 31.6C275.028 31.6 275.848 31.8067 276.542 32.22C277.248 32.6333 277.788 33.2133 278.162 33.96C278.548 34.7067 278.742 35.5867 278.742 36.6C278.742 36.7333 278.735 36.86 278.722 36.98C278.722 37.1 278.708 37.2333 278.682 37.38H270.262V36.04H277.702L277.182 36.78C277.182 35.5533 276.908 34.6133 276.362 33.96C275.828 33.2933 275.068 32.96 274.082 32.96C273.068 32.96 272.248 33.3133 271.622 34.02C271.008 34.7133 270.702 35.6533 270.702 36.84C270.702 38.0533 271.008 39.0267 271.622 39.76C272.248 40.48 273.082 40.84 274.122 40.84C274.775 40.84 275.348 40.7 275.842 40.42C276.335 40.1267 276.695 39.7133 276.922 39.18H278.442C278.108 40.1133 277.548 40.8533 276.762 41.4C275.988 41.9333 275.082 42.2 274.042 42.2ZM281.151 42V31.8H282.651V34.4H282.751V42H281.151ZM282.751 36.68L282.491 34.26C282.731 33.3933 283.157 32.7333 283.771 32.28C284.384 31.8267 285.091 31.6 285.891 31.6C286.224 31.6 286.451 31.6267 286.571 31.68V33.22C286.504 33.1933 286.411 33.18 286.291 33.18C286.171 33.1667 286.024 33.16 285.851 33.16C284.837 33.16 284.064 33.4667 283.531 34.08C283.011 34.68 282.751 35.5467 282.751 36.68ZM293.691 42.18C292.731 42.18 291.924 41.9467 291.271 41.48C290.617 41.0133 290.171 40.3533 289.931 39.5L290.151 39.46V42H288.651V27.6H290.251V34.18L290.031 34.12C290.284 33.3333 290.744 32.72 291.411 32.28C292.091 31.8267 292.897 31.6 293.831 31.6C294.737 31.6 295.524 31.82 296.191 32.26C296.871 32.7 297.397 33.3133 297.771 34.1C298.144 34.8867 298.331 35.8067 298.331 36.86C298.331 37.9267 298.137 38.86 297.751 39.66C297.364 40.46 296.824 41.08 296.131 41.52C295.437 41.96 294.624 42.18 293.691 42.18ZM293.451 40.78C294.464 40.78 295.257 40.4333 295.831 39.74C296.404 39.0333 296.691 38.0733 296.691 36.86C296.691 35.66 296.404 34.72 295.831 34.04C295.257 33.3467 294.464 33 293.451 33C292.437 33 291.637 33.3533 291.051 34.06C290.464 34.7533 290.171 35.7067 290.171 36.92C290.171 38.1067 290.464 39.0467 291.051 39.74C291.637 40.4333 292.437 40.78 293.451 40.78ZM305.02 42.2C304.02 42.2 303.14 41.9667 302.38 41.5C301.62 41.0333 301.026 40.4 300.6 39.6C300.186 38.7867 299.98 37.8733 299.98 36.86C299.98 35.8333 300.193 34.9267 300.62 34.14C301.046 33.3533 301.633 32.7333 302.38 32.28C303.14 31.8267 304.02 31.6 305.02 31.6C306.033 31.6 306.913 31.8267 307.66 32.28C308.42 32.7333 309.006 33.3533 309.42 34.14C309.846 34.9267 310.06 35.8333 310.06 36.86C310.06 37.8733 309.846 38.7867 309.42 39.6C309.006 40.4 308.42 41.0333 307.66 41.5C306.913 41.9667 306.033 42.2 305.02 42.2ZM305.02 40.84C305.713 40.84 306.313 40.6733 306.82 40.34C307.326 39.9933 307.72 39.52 308 38.92C308.28 38.32 308.42 37.6267 308.42 36.84C308.42 35.6667 308.106 34.7267 307.48 34.02C306.866 33.3133 306.046 32.96 305.02 32.96C304.006 32.96 303.186 33.3133 302.56 34.02C301.933 34.7267 301.62 35.6667 301.62 36.84C301.62 37.6267 301.76 38.32 302.04 38.92C302.32 39.52 302.713 39.9933 303.22 40.34C303.74 40.6733 304.34 40.84 305.02 40.84ZM318.719 42C318.666 41.7733 318.626 41.5133 318.599 41.22C318.586 40.9267 318.579 40.5533 318.579 40.1H318.479V35.22C318.479 34.4467 318.299 33.88 317.939 33.52C317.593 33.1467 317.026 32.96 316.239 32.96C315.466 32.96 314.846 33.12 314.379 33.44C313.926 33.7467 313.673 34.1867 313.619 34.76H312.079C312.146 33.7733 312.559 33 313.319 32.44C314.079 31.88 315.073 31.6 316.299 31.6C317.566 31.6 318.506 31.9 319.119 32.5C319.733 33.1 320.039 34 320.039 35.2V40.1C320.039 40.3933 320.059 40.7 320.099 41.02C320.139 41.3267 320.193 41.6533 320.259 42H318.719ZM315.219 42.2C314.166 42.2 313.326 41.9467 312.699 41.44C312.086 40.92 311.779 40.2133 311.779 39.32C311.779 38.4267 312.086 37.7333 312.699 37.24C313.313 36.7467 314.206 36.4 315.379 36.2L318.939 35.6V36.92L315.619 37.44C314.873 37.56 314.306 37.76 313.919 38.04C313.533 38.32 313.339 38.7267 313.339 39.26C313.339 39.78 313.513 40.1733 313.859 40.44C314.219 40.7067 314.746 40.84 315.439 40.84C316.333 40.84 317.059 40.64 317.619 40.24C318.193 39.8267 318.479 39.2933 318.479 38.64L318.739 40.06C318.526 40.74 318.106 41.2667 317.479 41.64C316.866 42.0133 316.113 42.2 315.219 42.2ZM323.123 42V31.8H324.623V34.4H324.723V42H323.123ZM324.723 36.68L324.463 34.26C324.703 33.3933 325.13 32.7333 325.743 32.28C326.357 31.8267 327.063 31.6 327.863 31.6C328.197 31.6 328.423 31.6267 328.543 31.68V33.22C328.477 33.1933 328.383 33.18 328.263 33.18C328.143 33.1667 327.997 33.16 327.823 33.16C326.81 33.16 326.037 33.4667 325.503 34.08C324.983 34.68 324.723 35.5467 324.723 36.68ZM337.711 42V39.62L337.911 39.68C337.658 40.4533 337.191 41.0667 336.511 41.52C335.845 41.9733 335.045 42.2 334.111 42.2C333.191 42.2 332.385 41.98 331.691 41.54C331.011 41.1 330.478 40.4867 330.091 39.7C329.718 38.9133 329.531 37.9933 329.531 36.94C329.531 35.8733 329.725 34.94 330.111 34.14C330.498 33.34 331.038 32.72 331.731 32.28C332.425 31.84 333.238 31.62 334.171 31.62C335.131 31.62 335.938 31.8533 336.591 32.32C337.245 32.7867 337.691 33.4467 337.931 34.3L337.611 34.34V27.6H339.211V42H337.711ZM334.411 40.8C335.438 40.8 336.238 40.4533 336.811 39.76C337.398 39.0533 337.691 38.0933 337.691 36.88C337.691 35.6933 337.398 34.7533 336.811 34.06C336.225 33.3667 335.425 33.02 334.411 33.02C333.398 33.02 332.605 33.3667 332.031 34.06C331.458 34.7533 331.171 35.7133 331.171 36.94C331.171 38.14 331.458 39.0867 332.031 39.78C332.605 40.46 333.398 40.8 334.411 40.8Z" fill="#FCFCFC"/>
<path d="M459.674 40.701C459.738 40.7649 459.788 40.8407 459.823 40.9242C459.857 41.0076 459.875 41.0971 459.875 41.1874C459.875 41.2777 459.857 41.3672 459.823 41.4506C459.788 41.5341 459.738 41.6099 459.674 41.6738C459.61 41.7377 459.534 41.7883 459.451 41.8229C459.367 41.8575 459.278 41.8753 459.187 41.8753C459.097 41.8753 459.008 41.8575 458.924 41.8229C458.841 41.7883 458.765 41.7377 458.701 41.6738L453 35.9718L447.299 41.6738C447.17 41.8028 446.995 41.8753 446.812 41.8753C446.63 41.8753 446.455 41.8028 446.326 41.6738C446.197 41.5448 446.125 41.3698 446.125 41.1874C446.125 41.005 446.197 40.83 446.326 40.701L452.028 34.9999L446.326 29.2988C446.197 29.1698 446.125 28.9948 446.125 28.8124C446.125 28.63 446.197 28.455 446.326 28.326C446.455 28.197 446.63 28.1245 446.812 28.1245C446.995 28.1245 447.17 28.197 447.299 28.326L453 34.0279L458.701 28.326C458.83 28.197 459.005 28.1245 459.187 28.1245C459.37 28.1245 459.545 28.197 459.674 28.326C459.803 28.455 459.875 28.63 459.875 28.8124C459.875 28.9948 459.803 29.1698 459.674 29.2988L453.972 34.9999L459.674 40.701Z" fill="#898694"/>
<path d="M160 62C160 57.5817 163.582 54 168 54H456C460.418 54 464 57.5817 464 62V86C464 90.4183 460.418 94 456 94H168C163.582 94 160 90.4183 160 86V62Z" fill="#131216"/>
<path d="M173.032 78V69.36H176.224C176.84 69.36 177.364 69.46 177.796 69.66C178.228 69.86 178.556 70.14 178.78 70.5C179.012 70.852 179.128 71.272 179.128 71.76C179.128 72.248 179.012 72.676 178.78 73.044C178.556 73.404 178.228 73.688 177.796 73.896C177.364 74.096 176.84 74.196 176.224 74.196H173.752V73.332H176.188C176.828 73.332 177.312 73.192 177.64 72.912C177.976 72.632 178.144 72.248 178.144 71.76C178.144 71.28 177.98 70.904 177.652 70.632C177.324 70.36 176.836 70.224 176.188 70.224H174.016V78H173.032ZM178.096 78L173.5 73.716H174.844L179.584 78H178.096ZM182.98 78.12C182.396 78.12 181.88 77.984 181.432 77.712C180.984 77.432 180.632 77.052 180.376 76.572C180.12 76.092 179.992 75.54 179.992 74.916C179.992 74.292 180.116 73.744 180.364 73.272C180.62 72.792 180.976 72.42 181.432 72.156C181.888 71.892 182.412 71.76 183.004 71.76C183.572 71.76 184.064 71.884 184.48 72.132C184.904 72.38 185.228 72.728 185.452 73.176C185.684 73.624 185.8 74.152 185.8 74.76C185.8 74.84 185.796 74.916 185.788 74.988C185.788 75.06 185.78 75.14 185.764 75.228H180.712V74.424H185.176L184.864 74.868C184.864 74.132 184.7 73.568 184.372 73.176C184.052 72.776 183.596 72.576 183.004 72.576C182.396 72.576 181.904 72.788 181.528 73.212C181.16 73.628 180.976 74.192 180.976 74.904C180.976 75.632 181.16 76.216 181.528 76.656C181.904 77.088 182.404 77.304 183.028 77.304C183.42 77.304 183.764 77.22 184.06 77.052C184.356 76.876 184.572 76.628 184.708 76.308H185.62C185.42 76.868 185.084 77.312 184.612 77.64C184.148 77.96 183.604 78.12 182.98 78.12ZM188.388 78L186.516 71.88H187.488L188.928 77.124H188.688L190.416 71.88H191.196L192.936 77.124H192.696L194.124 71.88H195.048L193.176 78H192.396L190.668 72.876H190.92L189.168 78H188.388ZM199.943 78C199.911 77.864 199.887 77.708 199.871 77.532C199.863 77.356 199.859 77.132 199.859 76.86H199.799V73.932C199.799 73.468 199.691 73.128 199.475 72.912C199.267 72.688 198.927 72.576 198.455 72.576C197.991 72.576 197.619 72.672 197.339 72.864C197.067 73.048 196.915 73.312 196.883 73.656H195.959C195.999 73.064 196.247 72.6 196.703 72.264C197.159 71.928 197.755 71.76 198.491 71.76C199.251 71.76 199.815 71.94 200.183 72.3C200.551 72.66 200.735 73.2 200.735 73.92V76.86C200.735 77.036 200.747 77.22 200.771 77.412C200.795 77.596 200.827 77.792 200.867 78H199.943ZM197.843 78.12C197.211 78.12 196.707 77.968 196.331 77.664C195.963 77.352 195.779 76.928 195.779 76.392C195.779 75.856 195.963 75.44 196.331 75.144C196.699 74.848 197.235 74.64 197.939 74.52L200.075 74.16V74.952L198.083 75.264C197.635 75.336 197.295 75.456 197.063 75.624C196.831 75.792 196.715 76.036 196.715 76.356C196.715 76.668 196.819 76.904 197.027 77.064C197.243 77.224 197.559 77.304 197.975 77.304C198.511 77.304 198.947 77.184 199.283 76.944C199.627 76.696 199.799 76.376 199.799 75.984L199.955 76.836C199.827 77.244 199.575 77.56 199.199 77.784C198.831 78.008 198.379 78.12 197.843 78.12ZM202.585 78V71.88H203.485V73.44H203.545V78H202.585ZM203.545 74.808L203.389 73.356C203.533 72.836 203.789 72.44 204.157 72.168C204.525 71.896 204.949 71.76 205.429 71.76C205.629 71.76 205.765 71.776 205.837 71.808V72.732C205.797 72.716 205.741 72.708 205.669 72.708C205.597 72.7 205.509 72.696 205.405 72.696C204.797 72.696 204.333 72.88 204.013 73.248C203.701 73.608 203.545 74.128 203.545 74.808ZM211.338 78V76.572L211.458 76.608C211.306 77.072 211.026 77.44 210.618 77.712C210.218 77.984 209.738 78.12 209.178 78.12C208.626 78.12 208.142 77.988 207.726 77.724C207.318 77.46 206.998 77.092 206.766 76.62C206.542 76.148 206.43 75.596 206.43 74.964C206.43 74.324 206.546 73.764 206.778 73.284C207.01 72.804 207.334 72.432 207.75 72.168C208.166 71.904 208.654 71.772 209.214 71.772C209.79 71.772 210.274 71.912 210.666 72.192C211.058 72.472 211.326 72.868 211.47 73.38L211.278 73.404V69.36H212.238V78H211.338ZM209.358 77.28C209.974 77.28 210.454 77.072 210.798 76.656C211.15 76.232 211.326 75.656 211.326 74.928C211.326 74.216 211.15 73.652 210.798 73.236C210.446 72.82 209.966 72.612 209.358 72.612C208.75 72.612 208.274 72.82 207.93 73.236C207.586 73.652 207.414 74.228 207.414 74.964C207.414 75.684 207.586 76.252 207.93 76.668C208.274 77.076 208.75 77.28 209.358 77.28ZM216.637 78V69.36H220.069C220.685 69.36 221.209 69.46 221.641 69.66C222.073 69.86 222.401 70.148 222.625 70.524C222.857 70.9 222.973 71.352 222.973 71.88C222.973 72.408 222.857 72.864 222.625 73.248C222.401 73.624 222.073 73.916 221.641 74.124C221.209 74.332 220.685 74.436 220.069 74.436H217.357V73.572H220.033C220.673 73.572 221.157 73.428 221.485 73.14C221.821 72.844 221.989 72.424 221.989 71.88C221.989 71.336 221.825 70.924 221.497 70.644C221.169 70.364 220.681 70.224 220.033 70.224H217.621V78H216.637ZM226.621 78.12C226.021 78.12 225.493 77.98 225.037 77.7C224.581 77.42 224.225 77.04 223.969 76.56C223.721 76.072 223.597 75.524 223.597 74.916C223.597 74.3 223.725 73.756 223.981 73.284C224.237 72.812 224.589 72.44 225.037 72.168C225.493 71.896 226.021 71.76 226.621 71.76C227.229 71.76 227.757 71.896 228.205 72.168C228.661 72.44 229.013 72.812 229.261 73.284C229.517 73.756 229.645 74.3 229.645 74.916C229.645 75.524 229.517 76.072 229.261 76.56C229.013 77.04 228.661 77.42 228.205 77.7C227.757 77.98 227.229 78.12 226.621 78.12ZM226.621 77.304C227.037 77.304 227.397 77.204 227.701 77.004C228.005 76.796 228.241 76.512 228.409 76.152C228.577 75.792 228.661 75.376 228.661 74.904C228.661 74.2 228.473 73.636 228.097 73.212C227.729 72.788 227.237 72.576 226.621 72.576C226.013 72.576 225.521 72.788 225.145 73.212C224.769 73.636 224.581 74.2 224.581 74.904C224.581 75.376 224.665 75.792 224.833 76.152C225.001 76.512 225.237 76.796 225.541 77.004C225.853 77.204 226.213 77.304 226.621 77.304ZM233.629 78.12C233.029 78.12 232.501 77.98 232.045 77.7C231.589 77.42 231.233 77.04 230.977 76.56C230.729 76.072 230.605 75.524 230.605 74.916C230.605 74.3 230.733 73.756 230.989 73.284C231.245 72.812 231.597 72.44 232.045 72.168C232.501 71.896 233.029 71.76 233.629 71.76C234.237 71.76 234.765 71.896 235.213 72.168C235.669 72.44 236.021 72.812 236.269 73.284C236.525 73.756 236.653 74.3 236.653 74.916C236.653 75.524 236.525 76.072 236.269 76.56C236.021 77.04 235.669 77.42 235.213 77.7C234.765 77.98 234.237 78.12 233.629 78.12ZM233.629 77.304C234.045 77.304 234.405 77.204 234.709 77.004C235.013 76.796 235.249 76.512 235.417 76.152C235.585 75.792 235.669 75.376 235.669 74.904C235.669 74.2 235.481 73.636 235.105 73.212C234.737 72.788 234.245 72.576 233.629 72.576C233.021 72.576 232.529 72.788 232.153 73.212C231.777 73.636 231.589 74.2 231.589 74.904C231.589 75.376 231.673 75.792 231.841 76.152C232.009 76.512 232.245 76.796 232.549 77.004C232.861 77.204 233.221 77.304 233.629 77.304ZM238.093 78V69.36H239.053V78H238.093Z" fill="#898694"/>
<path d="M385.504 78.12C384.648 78.12 383.964 77.892 383.452 77.436C382.94 76.972 382.628 76.372 382.516 75.636H383.572C383.676 76.156 383.896 76.556 384.232 76.836C384.576 77.116 384.992 77.256 385.48 77.256C385.992 77.256 386.424 77.096 386.776 76.776C387.136 76.456 387.316 75.948 387.316 75.252C387.316 74.556 387.136 74.036 386.776 73.692C386.424 73.34 385.976 73.164 385.432 73.164C385.04 73.164 384.7 73.244 384.412 73.404C384.124 73.564 383.932 73.752 383.836 73.968H382.948L383.344 69.36H387.904V70.224H383.932L384.268 69.864L383.992 73.344L383.764 73.26C383.908 73.02 384.14 72.812 384.46 72.636C384.78 72.46 385.172 72.372 385.636 72.372C386.172 72.372 386.644 72.488 387.052 72.72C387.468 72.952 387.792 73.284 388.024 73.716C388.264 74.14 388.384 74.652 388.384 75.252C388.384 75.852 388.264 76.368 388.024 76.8C387.792 77.224 387.46 77.552 387.028 77.784C386.604 78.008 386.096 78.12 385.504 78.12ZM389.311 79.728V79.236C389.543 79.148 389.711 79.008 389.815 78.816C389.919 78.632 389.971 78.348 389.971 77.964L390.343 78H389.311V76.776H390.523V77.748C390.523 78.26 390.427 78.684 390.235 79.02C390.043 79.356 389.735 79.592 389.311 79.728ZM394.668 78.12C393.988 78.12 393.392 77.932 392.88 77.556C392.376 77.172 391.98 76.644 391.692 75.972C391.412 75.292 391.272 74.516 391.272 73.644C391.272 72.772 391.412 72.008 391.692 71.352C391.972 70.688 392.368 70.172 392.88 69.804C393.392 69.428 393.988 69.24 394.668 69.24C395.348 69.24 395.94 69.428 396.444 69.804C396.956 70.172 397.352 70.688 397.632 71.352C397.92 72.008 398.064 72.772 398.064 73.644C398.064 74.524 397.92 75.3 397.632 75.972C397.352 76.644 396.956 77.172 396.444 77.556C395.94 77.932 395.348 78.12 394.668 78.12ZM394.668 77.256C395.156 77.256 395.572 77.112 395.916 76.824C396.26 76.528 396.524 76.112 396.708 75.576C396.892 75.032 396.984 74.384 396.984 73.632C396.984 72.888 396.892 72.252 396.708 71.724C396.532 71.196 396.272 70.796 395.928 70.524C395.584 70.244 395.164 70.104 394.668 70.104C394.172 70.104 393.752 70.244 393.408 70.524C393.064 70.804 392.8 71.208 392.616 71.736C392.44 72.256 392.352 72.888 392.352 73.632C392.352 74.384 392.444 75.032 392.628 75.576C392.812 76.12 393.076 76.536 393.42 76.824C393.764 77.112 394.18 77.256 394.668 77.256ZM402.836 78.12C402.156 78.12 401.56 77.932 401.048 77.556C400.544 77.172 400.148 76.644 399.86 75.972C399.58 75.292 399.44 74.516 399.44 73.644C399.44 72.772 399.58 72.008 399.86 71.352C400.14 70.688 400.536 70.172 401.048 69.804C401.56 69.428 402.156 69.24 402.836 69.24C403.516 69.24 404.108 69.428 404.612 69.804C405.124 70.172 405.52 70.688 405.8 71.352C406.088 72.008 406.232 72.772 406.232 73.644C406.232 74.524 406.088 75.3 405.8 75.972C405.52 76.644 405.124 77.172 404.612 77.556C404.108 77.932 403.516 78.12 402.836 78.12ZM402.836 77.256C403.324 77.256 403.74 77.112 404.084 76.824C404.428 76.528 404.692 76.112 404.876 75.576C405.06 75.032 405.152 74.384 405.152 73.632C405.152 72.888 405.06 72.252 404.876 71.724C404.7 71.196 404.44 70.796 404.096 70.524C403.752 70.244 403.332 70.104 402.836 70.104C402.34 70.104 401.92 70.244 401.576 70.524C401.232 70.804 400.968 71.208 400.784 71.736C400.608 72.256 400.52 72.888 400.52 73.632C400.52 74.384 400.612 75.032 400.796 75.576C400.98 76.12 401.244 76.536 401.588 76.824C401.932 77.112 402.348 77.256 402.836 77.256ZM411.004 78.12C410.324 78.12 409.728 77.932 409.216 77.556C408.712 77.172 408.316 76.644 408.028 75.972C407.748 75.292 407.608 74.516 407.608 73.644C407.608 72.772 407.748 72.008 408.028 71.352C408.308 70.688 408.704 70.172 409.216 69.804C409.728 69.428 410.324 69.24 411.004 69.24C411.684 69.24 412.276 69.428 412.78 69.804C413.292 70.172 413.688 70.688 413.968 71.352C414.256 72.008 414.4 72.772 414.4 73.644C414.4 74.524 414.256 75.3 413.968 75.972C413.688 76.644 413.292 77.172 412.78 77.556C412.276 77.932 411.684 78.12 411.004 78.12ZM411.004 77.256C411.492 77.256 411.908 77.112 412.252 76.824C412.596 76.528 412.86 76.112 413.044 75.576C413.228 75.032 413.32 74.384 413.32 73.632C413.32 72.888 413.228 72.252 413.044 71.724C412.868 71.196 412.608 70.796 412.264 70.524C411.92 70.244 411.5 70.104 411.004 70.104C410.508 70.104 410.088 70.244 409.744 70.524C409.4 70.804 409.136 71.208 408.952 71.736C408.776 72.256 408.688 72.888 408.688 73.632C408.688 74.384 408.78 75.032 408.964 75.576C409.148 76.12 409.412 76.536 409.756 76.824C410.1 77.112 410.516 77.256 411.004 77.256ZM421.662 78.12C420.622 78.12 419.81 77.804 419.226 77.172C418.65 76.532 418.362 75.64 418.362 74.496V69.36H419.346V74.544C419.346 75.408 419.546 76.072 419.946 76.536C420.346 77 420.918 77.232 421.662 77.232C422.422 77.232 423.002 77.004 423.402 76.548C423.802 76.084 424.002 75.416 424.002 74.544V69.36H424.986V74.508C424.986 75.644 424.694 76.532 424.11 77.172C423.526 77.804 422.71 78.12 421.662 78.12ZM429.87 78.108C428.862 78.108 428.058 77.86 427.458 77.364C426.866 76.868 426.518 76.16 426.414 75.24H427.374C427.462 75.904 427.714 76.404 428.13 76.74C428.546 77.076 429.122 77.244 429.858 77.244C430.482 77.244 430.95 77.128 431.262 76.896C431.582 76.656 431.742 76.308 431.742 75.852C431.742 75.46 431.634 75.148 431.418 74.916C431.202 74.684 430.866 74.492 430.41 74.34L428.958 73.836C428.222 73.58 427.678 73.272 427.326 72.912C426.974 72.544 426.798 72.08 426.798 71.52C426.798 71.056 426.914 70.656 427.146 70.32C427.378 69.976 427.706 69.708 428.13 69.516C428.554 69.324 429.046 69.228 429.606 69.228C430.47 69.228 431.162 69.456 431.682 69.912C432.202 70.36 432.502 71 432.582 71.832H431.622C431.518 71.232 431.302 70.792 430.974 70.512C430.654 70.232 430.19 70.092 429.582 70.092C429.006 70.092 428.558 70.208 428.238 70.44C427.918 70.672 427.758 71 427.758 71.424C427.758 71.784 427.87 72.072 428.094 72.288C428.318 72.504 428.666 72.692 429.138 72.852L430.686 73.392C431.358 73.624 431.862 73.94 432.198 74.34C432.534 74.732 432.702 75.232 432.702 75.84C432.702 76.56 432.454 77.12 431.958 77.52C431.47 77.912 430.774 78.108 429.87 78.108ZM434.831 78V77.136H437.147C437.867 77.136 438.487 76.992 439.007 76.704C439.527 76.408 439.927 75.996 440.207 75.468C440.487 74.94 440.627 74.328 440.627 73.632C440.627 72.944 440.487 72.344 440.207 71.832C439.927 71.32 439.527 70.924 439.007 70.644C438.495 70.364 437.875 70.224 437.147 70.224H434.831V69.36H437.147C438.051 69.36 438.839 69.54 439.511 69.9C440.183 70.252 440.703 70.752 441.071 71.4C441.447 72.04 441.635 72.792 441.635 73.656C441.635 74.52 441.447 75.28 441.071 75.936C440.695 76.584 440.171 77.092 439.499 77.46C438.835 77.82 438.055 78 437.159 78H434.831ZM434.243 78V69.36H435.227V78H434.243ZM446.962 78.12C446.37 78.12 445.822 78.012 445.318 77.796C444.822 77.572 444.39 77.264 444.022 76.872C443.654 76.472 443.37 76.004 443.17 75.468C442.97 74.924 442.87 74.328 442.87 73.68C442.87 73.032 442.97 72.44 443.17 71.904C443.37 71.36 443.65 70.892 444.01 70.5C444.378 70.1 444.81 69.792 445.306 69.576C445.81 69.352 446.358 69.24 446.95 69.24C447.598 69.24 448.178 69.372 448.69 69.636C449.21 69.9 449.634 70.272 449.962 70.752C450.298 71.232 450.506 71.792 450.586 72.432H449.602C449.506 71.72 449.222 71.16 448.75 70.752C448.286 70.336 447.69 70.128 446.962 70.128C446.346 70.128 445.806 70.28 445.342 70.584C444.878 70.88 444.518 71.296 444.262 71.832C444.006 72.36 443.878 72.976 443.878 73.68C443.878 74.384 444.006 75.004 444.262 75.54C444.518 76.068 444.878 76.484 445.342 76.788C445.806 77.084 446.342 77.232 446.95 77.232C447.694 77.232 448.302 77.024 448.774 76.608C449.254 76.192 449.538 75.632 449.626 74.928H450.61C450.53 75.568 450.322 76.128 449.986 76.608C449.658 77.088 449.234 77.46 448.714 77.724C448.202 77.988 447.618 78.12 446.962 78.12Z" fill="#ECECEF"/>
<g clip-path="url(#clip0_40003404_75436)">
<path d="M160 110C160 105.582 163.582 102 168 102H248C252.418 102 256 105.582 256 110V166C256 170.418 252.418 174 248 174H168C163.582 174 160 170.418 160 166V110Z" fill="#167128" fill-opacity="0.5"/>
<rect x="175" y="67" width="67" height="67" rx="24" fill="#FFEF74"/>
<path d="M203.2 126V118.344L203.452 118.404C203.356 118.62 203.172 118.836 202.9 119.052C202.628 119.268 202.312 119.456 201.952 119.616C201.6 119.776 201.236 119.884 200.86 119.94V119.016C201.236 118.952 201.596 118.84 201.94 118.68C202.284 118.52 202.588 118.328 202.852 118.104C203.124 117.872 203.324 117.624 203.452 117.36H204.16V126H203.2ZM208.165 126.12C207.413 126.12 206.813 125.948 206.365 125.604C205.917 125.252 205.661 124.756 205.597 124.116H206.521C206.577 124.508 206.749 124.808 207.037 125.016C207.325 125.224 207.709 125.328 208.189 125.328C208.613 125.328 208.945 125.248 209.185 125.088C209.425 124.928 209.545 124.7 209.545 124.404C209.545 124.196 209.477 124.016 209.341 123.864C209.205 123.704 208.933 123.572 208.525 123.468L207.541 123.216C206.981 123.072 206.561 122.852 206.281 122.556C206.001 122.252 205.861 121.892 205.861 121.476C205.861 120.948 206.057 120.532 206.449 120.228C206.841 119.916 207.373 119.76 208.045 119.76C208.709 119.76 209.249 119.92 209.665 120.24C210.081 120.56 210.317 121.004 210.373 121.572H209.449C209.393 121.244 209.241 120.992 208.993 120.816C208.745 120.64 208.417 120.552 208.009 120.552C207.617 120.552 207.313 120.628 207.097 120.78C206.881 120.924 206.773 121.132 206.773 121.404C206.773 121.612 206.849 121.792 207.001 121.944C207.161 122.096 207.425 122.224 207.793 122.328L208.753 122.592C209.321 122.744 209.749 122.976 210.037 123.288C210.325 123.6 210.469 123.976 210.469 124.416C210.469 124.952 210.265 125.372 209.857 125.676C209.449 125.972 208.885 126.12 208.165 126.12ZM214.209 126.108C213.529 126.108 213.033 125.956 212.721 125.652C212.417 125.34 212.265 124.892 212.265 124.308V118.452L213.225 118.092V124.296C213.225 124.64 213.313 124.892 213.489 125.052C213.665 125.212 213.953 125.292 214.353 125.292C214.513 125.292 214.649 125.284 214.761 125.268C214.881 125.244 214.977 125.216 215.049 125.184V126C214.969 126.032 214.853 126.056 214.701 126.072C214.557 126.096 214.393 126.108 214.209 126.108ZM211.005 120.696V119.88H215.049V120.696H211.005Z" fill="#181818"/>
<path d="M189.846 154.18C188.958 154.18 188.16 154.018 187.452 153.694C186.756 153.37 186.186 152.89 185.742 152.254C185.31 151.618 185.058 150.85 184.986 149.95H187.326C187.434 150.742 187.698 151.336 188.118 151.732C188.538 152.128 189.096 152.326 189.792 152.326C190.416 152.326 190.92 152.152 191.304 151.804C191.7 151.456 191.898 150.958 191.898 150.31C191.898 149.662 191.706 149.14 191.322 148.744C190.95 148.348 190.362 148.15 189.558 148.15H188.244V146.332H189.504C190.212 146.332 190.734 146.164 191.07 145.828C191.418 145.48 191.592 145.036 191.592 144.496C191.592 143.956 191.436 143.524 191.124 143.2C190.824 142.876 190.362 142.714 189.738 142.714C189.162 142.714 188.664 142.888 188.244 143.236C187.836 143.572 187.59 144.076 187.506 144.748H185.13C185.226 143.944 185.472 143.254 185.868 142.678C186.276 142.102 186.816 141.658 187.488 141.346C188.16 141.022 188.934 140.86 189.81 140.86C190.674 140.86 191.424 141.004 192.06 141.292C192.696 141.568 193.188 141.964 193.536 142.48C193.896 142.984 194.076 143.59 194.076 144.298C194.076 144.91 193.938 145.444 193.662 145.9C193.386 146.356 193.026 146.716 192.582 146.98C192.15 147.232 191.694 147.358 191.214 147.358L191.16 146.98C191.832 146.98 192.408 147.136 192.888 147.448C193.368 147.748 193.734 148.156 193.986 148.672C194.25 149.188 194.382 149.77 194.382 150.418C194.382 151.174 194.184 151.84 193.788 152.416C193.404 152.98 192.87 153.418 192.186 153.73C191.502 154.03 190.722 154.18 189.846 154.18ZM195.532 156.88V155.764C196.024 155.608 196.348 155.374 196.504 155.062C196.672 154.75 196.756 154.324 196.756 153.784L197.674 154H195.514V151.408H198.088V153.298C198.088 154.186 197.89 154.942 197.494 155.566C197.11 156.19 196.456 156.628 195.532 156.88ZM199.507 154V152.146C200.731 151.138 201.751 150.268 202.567 149.536C203.395 148.792 204.055 148.138 204.547 147.574C205.039 147.01 205.387 146.494 205.591 146.026C205.807 145.546 205.915 145.078 205.915 144.622C205.915 144.022 205.747 143.554 205.411 143.218C205.075 142.882 204.607 142.714 204.007 142.714C203.383 142.714 202.873 142.9 202.477 143.272C202.081 143.632 201.841 144.142 201.757 144.802H199.381C199.513 143.59 199.999 142.63 200.839 141.922C201.679 141.214 202.771 140.86 204.115 140.86C205.447 140.86 206.491 141.208 207.247 141.904C208.015 142.588 208.399 143.542 208.399 144.766C208.399 145.378 208.291 145.972 208.075 146.548C207.871 147.112 207.523 147.706 207.031 148.33C206.551 148.942 205.903 149.62 205.087 150.364C204.283 151.096 203.275 151.93 202.063 152.866L201.505 152.146H208.633V154H199.507ZM214.243 154.18C212.935 154.18 211.867 153.838 211.039 153.154C210.211 152.47 209.701 151.528 209.509 150.328H211.885C211.993 150.964 212.257 151.456 212.677 151.804C213.109 152.152 213.613 152.326 214.189 152.326C214.825 152.326 215.341 152.116 215.737 151.696C216.145 151.276 216.349 150.628 216.349 149.752C216.349 148.9 216.151 148.258 215.755 147.826C215.371 147.382 214.855 147.16 214.207 147.16C213.787 147.16 213.409 147.25 213.073 147.43C212.737 147.61 212.485 147.862 212.317 148.186H210.193L210.823 141.04H218.077V142.894H211.777L212.929 142.57L212.569 147.016L211.849 146.89C212.137 146.446 212.509 146.092 212.965 145.828C213.421 145.564 213.997 145.432 214.693 145.432C215.521 145.432 216.241 145.612 216.853 145.972C217.477 146.332 217.963 146.836 218.311 147.484C218.671 148.12 218.851 148.888 218.851 149.788C218.851 150.712 218.659 151.504 218.275 152.164C217.891 152.812 217.357 153.31 216.673 153.658C215.989 154.006 215.179 154.18 214.243 154.18ZM225.242 154.18C223.598 154.18 222.326 153.628 221.426 152.524C220.538 151.408 220.094 149.824 220.094 147.772C220.094 146.332 220.304 145.096 220.724 144.064C221.156 143.032 221.768 142.24 222.56 141.688C223.364 141.136 224.306 140.86 225.386 140.86C226.598 140.86 227.588 141.19 228.356 141.85C229.124 142.498 229.598 143.404 229.778 144.568H227.402C227.33 143.968 227.108 143.512 226.736 143.2C226.376 142.876 225.92 142.714 225.368 142.714C224.432 142.714 223.724 143.116 223.244 143.92C222.776 144.724 222.542 145.96 222.542 147.628V148.798L222.038 148.636C222.158 148.06 222.392 147.562 222.74 147.142C223.088 146.722 223.526 146.398 224.054 146.17C224.582 145.942 225.164 145.828 225.8 145.828C226.628 145.828 227.354 146.002 227.978 146.35C228.602 146.698 229.088 147.184 229.436 147.808C229.796 148.42 229.976 149.146 229.976 149.986C229.976 150.826 229.778 151.564 229.382 152.2C228.986 152.824 228.434 153.31 227.726 153.658C227.018 154.006 226.19 154.18 225.242 154.18ZM225.116 152.326C225.8 152.326 226.364 152.122 226.808 151.714C227.252 151.306 227.474 150.73 227.474 149.986C227.474 149.23 227.252 148.654 226.808 148.258C226.364 147.85 225.788 147.646 225.08 147.646C224.384 147.646 223.796 147.844 223.316 148.24C222.848 148.624 222.614 149.182 222.614 149.914C222.614 150.406 222.728 150.838 222.956 151.21C223.184 151.57 223.484 151.846 223.856 152.038C224.24 152.23 224.66 152.326 225.116 152.326Z" fill="#FCFCFC"/>
</g>
<path d="M264 110C264 105.582 267.582 102 272 102H352C356.418 102 360 105.582 360 110V166C360 170.418 356.418 174 352 174H272C267.582 174 264 170.418 264 166V110Z" fill="#647116" fill-opacity="0.5"/>
<path d="M301.98 126V125.16C302.844 124.448 303.564 123.824 304.14 123.288C304.724 122.752 305.188 122.276 305.532 121.86C305.884 121.444 306.132 121.064 306.276 120.72C306.428 120.368 306.504 120.024 306.504 119.688C306.504 119.192 306.356 118.804 306.06 118.524C305.764 118.244 305.356 118.104 304.836 118.104C304.3 118.104 303.868 118.256 303.54 118.56C303.212 118.864 303.012 119.3 302.94 119.868H301.908C301.988 119.084 302.288 118.452 302.808 117.972C303.336 117.484 304.036 117.24 304.908 117.24C305.716 117.24 306.36 117.456 306.84 117.888C307.32 118.32 307.56 118.912 307.56 119.664C307.56 120.072 307.48 120.48 307.32 120.888C307.168 121.296 306.912 121.724 306.552 122.172C306.2 122.62 305.732 123.116 305.148 123.66C304.572 124.196 303.856 124.804 303 125.484L302.772 125.136H307.704V126H301.98ZM308.999 126V119.88H309.899V121.32H309.959V126H308.999ZM313.379 126V121.992C313.379 121.528 313.263 121.18 313.031 120.948C312.799 120.716 312.455 120.6 311.999 120.6C311.599 120.6 311.243 120.688 310.931 120.864C310.627 121.04 310.387 121.284 310.211 121.596C310.043 121.908 309.959 122.272 309.959 122.688L309.803 121.236C310.011 120.78 310.327 120.42 310.751 120.156C311.183 119.892 311.671 119.76 312.215 119.76C312.855 119.76 313.367 119.944 313.751 120.312C314.143 120.672 314.339 121.148 314.339 121.74V126H313.379ZM320.635 126V124.572L320.755 124.608C320.603 125.072 320.323 125.44 319.915 125.712C319.515 125.984 319.035 126.12 318.475 126.12C317.923 126.12 317.439 125.988 317.023 125.724C316.615 125.46 316.295 125.092 316.063 124.62C315.839 124.148 315.727 123.596 315.727 122.964C315.727 122.324 315.843 121.764 316.075 121.284C316.307 120.804 316.631 120.432 317.047 120.168C317.463 119.904 317.951 119.772 318.511 119.772C319.087 119.772 319.571 119.912 319.963 120.192C320.355 120.472 320.623 120.868 320.767 121.38L320.575 121.404V117.36H321.535V126H320.635ZM318.655 125.28C319.271 125.28 319.751 125.072 320.095 124.656C320.447 124.232 320.623 123.656 320.623 122.928C320.623 122.216 320.447 121.652 320.095 121.236C319.743 120.82 319.263 120.612 318.655 120.612C318.047 120.612 317.571 120.82 317.227 121.236C316.883 121.652 316.711 122.228 316.711 122.964C316.711 123.684 316.883 124.252 317.227 124.668C317.571 125.076 318.047 125.28 318.655 125.28Z" fill="#ECECEF"/>
<path d="M294.064 154V143.11L294.406 143.326C294.238 143.686 293.974 144.028 293.614 144.352C293.254 144.664 292.834 144.934 292.354 145.162C291.874 145.39 291.358 145.552 290.806 145.648V143.398C291.286 143.326 291.772 143.17 292.264 142.93C292.756 142.69 293.2 142.408 293.596 142.084C293.992 141.748 294.274 141.4 294.442 141.04H296.35V154H294.064ZM298.034 156.88V155.764C298.526 155.608 298.85 155.374 299.006 155.062C299.174 154.75 299.258 154.324 299.258 153.784L300.176 154H298.016V151.408H300.59V153.298C300.59 154.186 300.392 154.942 299.996 155.566C299.612 156.19 298.958 156.628 298.034 156.88ZM306.374 154.18C305.066 154.18 303.998 153.838 303.17 153.154C302.342 152.47 301.832 151.528 301.64 150.328H304.016C304.124 150.964 304.388 151.456 304.808 151.804C305.24 152.152 305.744 152.326 306.32 152.326C306.956 152.326 307.472 152.116 307.868 151.696C308.276 151.276 308.48 150.628 308.48 149.752C308.48 148.9 308.282 148.258 307.886 147.826C307.502 147.382 306.986 147.16 306.338 147.16C305.918 147.16 305.54 147.25 305.204 147.43C304.868 147.61 304.616 147.862 304.448 148.186H302.324L302.954 141.04H310.208V142.894H303.908L305.06 142.57L304.7 147.016L303.98 146.89C304.268 146.446 304.64 146.092 305.096 145.828C305.552 145.564 306.128 145.432 306.824 145.432C307.652 145.432 308.372 145.612 308.984 145.972C309.608 146.332 310.094 146.836 310.442 147.484C310.802 148.12 310.982 148.888 310.982 149.788C310.982 150.712 310.79 151.504 310.406 152.164C310.022 152.812 309.488 153.31 308.804 153.658C308.12 154.006 307.31 154.18 306.374 154.18ZM316.959 154.18C315.999 154.18 315.159 154.018 314.439 153.694C313.719 153.37 313.155 152.926 312.747 152.362C312.351 151.786 312.153 151.126 312.153 150.382C312.153 149.734 312.297 149.152 312.585 148.636C312.873 148.12 313.263 147.718 313.755 147.43C314.259 147.13 314.835 146.98 315.483 146.98L315.681 147.358C315.033 147.358 314.469 147.238 313.989 146.998C313.509 146.746 313.143 146.398 312.891 145.954C312.639 145.498 312.513 144.976 312.513 144.388C312.513 143.68 312.693 143.062 313.053 142.534C313.425 142.006 313.941 141.598 314.601 141.31C315.273 141.01 316.053 140.86 316.941 140.86C317.841 140.86 318.621 141.01 319.281 141.31C319.941 141.598 320.451 142.006 320.811 142.534C321.183 143.062 321.369 143.674 321.369 144.37C321.369 144.97 321.243 145.498 320.991 145.954C320.739 146.398 320.373 146.746 319.893 146.998C319.413 147.238 318.843 147.358 318.183 147.358L318.399 146.98C319.047 146.98 319.617 147.13 320.109 147.43C320.613 147.718 321.009 148.12 321.297 148.636C321.585 149.152 321.729 149.734 321.729 150.382C321.729 151.126 321.531 151.786 321.135 152.362C320.739 152.938 320.181 153.388 319.461 153.712C318.753 154.024 317.919 154.18 316.959 154.18ZM316.941 152.326C317.661 152.326 318.219 152.14 318.615 151.768C319.023 151.384 319.227 150.862 319.227 150.202C319.227 149.542 319.017 149.026 318.597 148.654C318.189 148.282 317.637 148.096 316.941 148.096C316.233 148.096 315.675 148.282 315.267 148.654C314.859 149.026 314.655 149.542 314.655 150.202C314.655 150.874 314.859 151.396 315.267 151.768C315.675 152.14 316.233 152.326 316.941 152.326ZM316.941 146.386C317.529 146.386 318.003 146.224 318.363 145.9C318.723 145.564 318.903 145.114 318.903 144.55C318.903 143.974 318.717 143.524 318.345 143.2C317.985 142.876 317.511 142.714 316.923 142.714C316.347 142.714 315.879 142.882 315.519 143.218C315.159 143.542 314.979 143.986 314.979 144.55C314.979 145.114 315.159 145.564 315.519 145.9C315.891 146.224 316.365 146.386 316.941 146.386ZM328.183 154.18C326.539 154.18 325.267 153.628 324.367 152.524C323.479 151.408 323.035 149.824 323.035 147.772C323.035 146.332 323.245 145.096 323.665 144.064C324.097 143.032 324.709 142.24 325.501 141.688C326.305 141.136 327.247 140.86 328.327 140.86C329.539 140.86 330.529 141.19 331.297 141.85C332.065 142.498 332.539 143.404 332.719 144.568H330.343C330.271 143.968 330.049 143.512 329.677 143.2C329.317 142.876 328.861 142.714 328.309 142.714C327.373 142.714 326.665 143.116 326.185 143.92C325.717 144.724 325.483 145.96 325.483 147.628V148.798L324.979 148.636C325.099 148.06 325.333 147.562 325.681 147.142C326.029 146.722 326.467 146.398 326.995 146.17C327.523 145.942 328.105 145.828 328.741 145.828C329.569 145.828 330.295 146.002 330.919 146.35C331.543 146.698 332.029 147.184 332.377 147.808C332.737 148.42 332.917 149.146 332.917 149.986C332.917 150.826 332.719 151.564 332.323 152.2C331.927 152.824 331.375 153.31 330.667 153.658C329.959 154.006 329.131 154.18 328.183 154.18ZM328.057 152.326C328.741 152.326 329.305 152.122 329.749 151.714C330.193 151.306 330.415 150.73 330.415 149.986C330.415 149.23 330.193 148.654 329.749 148.258C329.305 147.85 328.729 147.646 328.021 147.646C327.325 147.646 326.737 147.844 326.257 148.24C325.789 148.624 325.555 149.182 325.555 149.914C325.555 150.406 325.669 150.838 325.897 151.21C326.125 151.57 326.425 151.846 326.797 152.038C327.181 152.23 327.601 152.326 328.057 152.326Z" fill="#FCFCFC"/>
<path d="M368 110C368 105.582 371.582 102 376 102H456C460.418 102 464 105.582 464 110V166C464 170.418 460.418 174 456 174H376C371.582 174 368 170.418 368 166V110Z" fill="#713916" fill-opacity="0.5"/>
<path d="M410.052 126.12C409.476 126.12 408.968 126.016 408.528 125.808C408.096 125.592 407.744 125.28 407.472 124.872C407.208 124.464 407.044 123.972 406.98 123.396H408.012C408.1 123.996 408.32 124.456 408.672 124.776C409.024 125.096 409.488 125.256 410.064 125.256C410.608 125.256 411.036 125.112 411.348 124.824C411.66 124.536 411.816 124.144 411.816 123.648C411.816 123.128 411.664 122.708 411.36 122.388C411.056 122.06 410.648 121.896 410.136 121.896H409.056V121.056H410.1C410.564 121.056 410.932 120.924 411.204 120.66C411.484 120.388 411.624 120.028 411.624 119.58C411.624 119.108 411.476 118.744 411.18 118.488C410.892 118.232 410.5 118.104 410.004 118.104C409.516 118.104 409.1 118.248 408.756 118.536C408.412 118.816 408.208 119.22 408.144 119.748H407.1C407.148 119.236 407.3 118.796 407.556 118.428C407.812 118.052 408.152 117.76 408.576 117.552C409.008 117.344 409.492 117.24 410.028 117.24C410.548 117.24 411.008 117.332 411.408 117.516C411.808 117.7 412.12 117.964 412.344 118.308C412.568 118.644 412.68 119.04 412.68 119.496C412.68 119.904 412.588 120.264 412.404 120.576C412.22 120.888 411.968 121.132 411.648 121.308C411.336 121.484 410.976 121.572 410.568 121.572L410.496 121.32C410.984 121.32 411.404 121.424 411.756 121.632C412.116 121.832 412.392 122.108 412.584 122.46C412.784 122.812 412.884 123.22 412.884 123.684C412.884 124.164 412.764 124.588 412.524 124.956C412.284 125.324 411.952 125.612 411.528 125.82C411.104 126.02 410.612 126.12 410.052 126.12ZM414.351 126V119.88H415.251V121.44H415.311V126H414.351ZM415.311 122.808L415.155 121.356C415.299 120.836 415.555 120.44 415.923 120.168C416.291 119.896 416.715 119.76 417.195 119.76C417.395 119.76 417.531 119.776 417.603 119.808V120.732C417.563 120.716 417.507 120.708 417.435 120.708C417.363 120.7 417.275 120.696 417.171 120.696C416.563 120.696 416.099 120.88 415.779 121.248C415.467 121.608 415.311 122.128 415.311 122.808ZM423.103 126V124.572L423.223 124.608C423.071 125.072 422.791 125.44 422.383 125.712C421.983 125.984 421.503 126.12 420.943 126.12C420.391 126.12 419.907 125.988 419.491 125.724C419.083 125.46 418.763 125.092 418.531 124.62C418.307 124.148 418.195 123.596 418.195 122.964C418.195 122.324 418.311 121.764 418.543 121.284C418.775 120.804 419.099 120.432 419.515 120.168C419.931 119.904 420.419 119.772 420.979 119.772C421.555 119.772 422.039 119.912 422.431 120.192C422.823 120.472 423.091 120.868 423.235 121.38L423.043 121.404V117.36H424.003V126H423.103ZM421.123 125.28C421.739 125.28 422.219 125.072 422.563 124.656C422.915 124.232 423.091 123.656 423.091 122.928C423.091 122.216 422.915 121.652 422.563 121.236C422.211 120.82 421.731 120.612 421.123 120.612C420.515 120.612 420.039 120.82 419.695 121.236C419.351 121.652 419.179 122.228 419.179 122.964C419.179 123.684 419.351 124.252 419.695 124.668C420.039 125.076 420.515 125.28 421.123 125.28Z" fill="#ECECEF"/>
<path d="M397.064 154V143.11L397.406 143.326C397.238 143.686 396.974 144.028 396.614 144.352C396.254 144.664 395.834 144.934 395.354 145.162C394.874 145.39 394.358 145.552 393.806 145.648V143.398C394.286 143.326 394.772 143.17 395.264 142.93C395.756 142.69 396.2 142.408 396.596 142.084C396.992 141.748 397.274 141.4 397.442 141.04H399.35V154H397.064ZM401.034 156.88V155.764C401.526 155.608 401.85 155.374 402.006 155.062C402.174 154.75 402.258 154.324 402.258 153.784L403.176 154H401.016V151.408H403.59V153.298C403.59 154.186 403.392 154.942 402.996 155.566C402.612 156.19 401.958 156.628 401.034 156.88ZM409.902 154.18C408.846 154.18 407.91 153.898 407.094 153.334C406.278 152.758 405.636 151.966 405.168 150.958C404.712 149.938 404.484 148.774 404.484 147.466C404.484 146.158 404.712 145.012 405.168 144.028C405.624 143.032 406.26 142.258 407.076 141.706C407.904 141.142 408.846 140.86 409.902 140.86C410.97 140.86 411.912 141.142 412.728 141.706C413.544 142.258 414.18 143.032 414.636 144.028C415.104 145.012 415.338 146.158 415.338 147.466C415.338 148.786 415.104 149.95 414.636 150.958C414.18 151.966 413.544 152.758 412.728 153.334C411.912 153.898 410.97 154.18 409.902 154.18ZM409.902 152.218C410.562 152.218 411.108 152.008 411.54 151.588C411.972 151.168 412.296 150.598 412.512 149.878C412.74 149.158 412.854 148.348 412.854 147.448C412.854 146.548 412.746 145.75 412.53 145.054C412.314 144.358 411.984 143.812 411.54 143.416C411.108 143.02 410.562 142.822 409.902 142.822C409.254 142.822 408.708 143.026 408.264 143.434C407.832 143.83 407.508 144.376 407.292 145.072C407.076 145.768 406.968 146.56 406.968 147.448C406.968 148.36 407.076 149.176 407.292 149.896C407.508 150.616 407.838 151.186 408.282 151.606C408.726 152.014 409.266 152.218 409.902 152.218ZM422.078 154.18C420.434 154.18 419.162 153.628 418.262 152.524C417.374 151.408 416.93 149.824 416.93 147.772C416.93 146.332 417.14 145.096 417.56 144.064C417.992 143.032 418.604 142.24 419.396 141.688C420.2 141.136 421.142 140.86 422.222 140.86C423.434 140.86 424.424 141.19 425.192 141.85C425.96 142.498 426.434 143.404 426.614 144.568H424.238C424.166 143.968 423.944 143.512 423.572 143.2C423.212 142.876 422.756 142.714 422.204 142.714C421.268 142.714 420.56 143.116 420.08 143.92C419.612 144.724 419.378 145.96 419.378 147.628V148.798L418.874 148.636C418.994 148.06 419.228 147.562 419.576 147.142C419.924 146.722 420.362 146.398 420.89 146.17C421.418 145.942 422 145.828 422.636 145.828C423.464 145.828 424.19 146.002 424.814 146.35C425.438 146.698 425.924 147.184 426.272 147.808C426.632 148.42 426.812 149.146 426.812 149.986C426.812 150.826 426.614 151.564 426.218 152.2C425.822 152.824 425.27 153.31 424.562 153.658C423.854 154.006 423.026 154.18 422.078 154.18ZM421.952 152.326C422.636 152.326 423.2 152.122 423.644 151.714C424.088 151.306 424.31 150.73 424.31 149.986C424.31 149.23 424.088 148.654 423.644 148.258C423.2 147.85 422.624 147.646 421.916 147.646C421.22 147.646 420.632 147.844 420.152 148.24C419.684 148.624 419.45 149.182 419.45 149.914C419.45 150.406 419.564 150.838 419.792 151.21C420.02 151.57 420.32 151.846 420.692 152.038C421.076 152.23 421.496 152.326 421.952 152.326ZM432.807 154.18C431.919 154.18 431.121 154.018 430.413 153.694C429.717 153.37 429.147 152.89 428.703 152.254C428.271 151.618 428.019 150.85 427.947 149.95H430.287C430.395 150.742 430.659 151.336 431.079 151.732C431.499 152.128 432.057 152.326 432.753 152.326C433.377 152.326 433.881 152.152 434.265 151.804C434.661 151.456 434.859 150.958 434.859 150.31C434.859 149.662 434.667 149.14 434.283 148.744C433.911 148.348 433.323 148.15 432.519 148.15H431.205V146.332H432.465C433.173 146.332 433.695 146.164 434.031 145.828C434.379 145.48 434.553 145.036 434.553 144.496C434.553 143.956 434.397 143.524 434.085 143.2C433.785 142.876 433.323 142.714 432.699 142.714C432.123 142.714 431.625 142.888 431.205 143.236C430.797 143.572 430.551 144.076 430.467 144.748H428.091C428.187 143.944 428.433 143.254 428.829 142.678C429.237 142.102 429.777 141.658 430.449 141.346C431.121 141.022 431.895 140.86 432.771 140.86C433.635 140.86 434.385 141.004 435.021 141.292C435.657 141.568 436.149 141.964 436.497 142.48C436.857 142.984 437.037 143.59 437.037 144.298C437.037 144.91 436.899 145.444 436.623 145.9C436.347 146.356 435.987 146.716 435.543 146.98C435.111 147.232 434.655 147.358 434.175 147.358L434.121 146.98C434.793 146.98 435.369 147.136 435.849 147.448C436.329 147.748 436.695 148.156 436.947 148.672C437.211 149.188 437.343 149.77 437.343 150.418C437.343 151.174 437.145 151.84 436.749 152.416C436.365 152.98 435.831 153.418 435.147 153.73C434.463 154.03 433.683 154.18 432.807 154.18Z" fill="#FCFCFC"/>
<defs>
<clipPath id="clip0_40003404_75436">
<path d="M160 110C160 105.582 163.582 102 168 102H248C252.418 102 256 105.582 256 110V166C256 170.418 252.418 174 248 174H168C163.582 174 160 170.418 160 166V110Z" fill="white"/>
</clipPath>
</defs>
</svg>
