<svg width="110" height="24" viewBox="0 0 110 24" fill="none" xmlns="http://www.w3.org/2000/svg">
<g id="Logotype">
<path id="Vector" d="M19.3631 0H7.95082C7.14876 0 6.40762 0.423379 6.0066 1.11066L0.300766 10.8892C-0.10025 11.5765 -0.100256 12.4232 0.300752 13.1105L6.0066 22.8893C6.40763 23.5766 7.14877 24 7.95084 24H19.3631C20.1651 24 20.9063 23.5766 21.3073 22.8893L27.0132 13.1105C27.4142 12.4232 27.4142 11.5765 27.0131 10.8892L21.3073 1.11066C20.9063 0.423382 20.1651 0 19.3631 0ZM15.115 12.8328H25.2311L20.1732 21.5012L15.115 12.8328ZM25.2311 11.1669H15.439C14.637 11.1669 13.8958 10.7435 13.4948 10.0563L8.59878 1.66588H18.391C19.1931 1.66588 19.9342 2.08926 20.3353 2.77653L25.2311 11.1669ZM12.1988 11.1669H2.08283L7.14071 2.49879L12.1988 11.1669ZM2.08281 12.8328H11.8747C12.6768 12.8328 13.4179 13.2561 13.8189 13.9434L18.7151 22.3341H8.92289C8.12081 22.3341 7.37967 21.9107 6.97865 21.2234L2.08281 12.8328Z" fill="white"/>
<g id="TORQUE">
<path id="Vector_2" d="M99.9258 19.0997V5.24622H102.454V19.0997H99.9258ZM101.131 19.0997V17.1179H109.999V19.0997H101.131ZM101.131 12.9426V10.9993H109.318V12.9426H101.131ZM101.131 7.22804V5.24622H109.785V7.22804H101.131Z" fill="white"/>
<path id="Vector_3" d="M92.0491 19.2921C90.1563 19.2921 88.7238 18.7598 87.7514 17.6951C86.7791 16.6305 86.293 15.104 86.293 13.1158V5.24622H88.821V13.4814C88.821 14.7513 89.1062 15.7005 89.6766 16.329C90.2471 16.9447 91.0444 17.2526 92.0685 17.2526C93.0927 17.2526 93.89 16.9447 94.4604 16.329C95.0308 15.7005 95.3161 14.7577 95.3161 13.5006V5.24622H97.8441V13.135C97.8441 15.1104 97.3514 16.6305 96.3662 17.6951C95.3939 18.7598 93.9548 19.2921 92.0491 19.2921Z" fill="white"/>
<path id="Vector_4" d="M77.6642 19.2921C76.2511 19.2921 75.0066 18.9906 73.9305 18.3877C72.8675 17.772 72.0378 16.9254 71.4414 15.8479C70.8451 14.7704 70.5469 13.5262 70.5469 12.1152C70.5469 10.717 70.8451 9.49197 71.4414 8.44013C72.0378 7.37546 72.861 6.5481 73.9111 5.95804C74.9742 5.35515 76.1798 5.05371 77.5281 5.05371C78.9023 5.05371 80.1145 5.35515 81.1646 5.95804C82.2276 6.5481 83.0573 7.37546 83.6537 8.44013C84.25 9.5048 84.5482 10.7362 84.5482 12.1344C84.5482 13.0708 84.3927 13.9559 84.0815 14.7897C83.7704 15.6106 83.2907 16.3097 82.6425 16.8869C81.9943 17.4642 81.1516 17.881 80.1145 18.1376L77.6642 19.2921ZM77.5281 17.3487C78.4097 17.3487 79.181 17.1371 79.8422 16.7138C80.5164 16.2776 81.0414 15.6619 81.4174 14.8666C81.7933 14.0713 81.9813 13.1478 81.9813 12.0959C81.9813 11.0954 81.7933 10.2231 81.4174 9.47914C81.0544 8.72233 80.5358 8.13868 79.8617 7.72821C79.2005 7.30491 78.4226 7.09326 77.5281 7.09326C76.6465 7.09326 75.8687 7.30491 75.1945 7.72821C74.5334 8.13868 74.0213 8.71591 73.6583 9.4599C73.2953 10.2039 73.1138 11.0826 73.1138 12.0959C73.1138 13.1606 73.2953 14.0906 73.6583 14.8859C74.0342 15.6683 74.5528 16.2776 75.214 16.7138C75.8881 17.1371 76.6595 17.3487 77.5281 17.3487ZM77.6642 19.2921L77.5475 17.5604L85.2094 17.1178V19.0996C84.3927 19.0996 83.6731 19.1061 83.0509 19.1189C82.4415 19.1445 81.8646 19.1702 81.3201 19.1958C80.7886 19.2215 80.2311 19.2407 79.6477 19.2536C79.0644 19.2792 78.4032 19.2921 77.6642 19.2921Z" fill="white"/>
<path id="Vector_5" d="M58.4629 19.0997V5.24622H64.3746C65.3728 5.24622 66.2414 5.41297 66.9804 5.74648C67.7193 6.07999 68.2833 6.54819 68.6722 7.15107C69.0741 7.75396 69.275 8.45946 69.275 9.26759C69.275 10.0629 69.0741 10.762 68.6722 11.3649C68.2833 11.9677 67.7193 12.4359 66.9804 12.7694C66.2414 13.103 65.3728 13.2697 64.3746 13.2697H60.4464V11.3649H64.2968C65.1135 11.3649 65.7358 11.1789 66.1636 10.8069C66.6044 10.4349 66.8248 9.92178 66.8248 9.26759C66.8248 8.61339 66.6109 8.11313 66.1831 7.76679C65.7553 7.40762 65.1265 7.22804 64.2968 7.22804H60.9909V19.0997H58.4629ZM66.4748 19.0997L60.2325 12.019H63.0717L69.9751 19.0997H66.4748Z" fill="white"/>
<path id="Vector_6" d="M49.7917 19.2921C48.7805 19.2921 47.8471 19.1189 46.9914 18.7725C46.1358 18.4262 45.3903 17.9324 44.7551 17.291C44.1328 16.6496 43.6467 15.8928 43.2966 15.0205C42.9596 14.1355 42.791 13.167 42.791 12.1152C42.791 10.717 43.0892 9.49197 43.6855 8.44013C44.2819 7.37546 45.1051 6.5481 46.1552 5.95804C47.2183 5.35515 48.424 5.05371 49.7722 5.05371C51.1464 5.05371 52.3586 5.35515 53.4087 5.95804C54.4718 6.5481 55.3015 7.37546 55.8978 8.44013C56.4942 9.5048 56.7924 10.7362 56.7924 12.1344C56.7924 13.1862 56.6173 14.1483 56.2673 15.0205C55.9302 15.8928 55.4441 16.6496 54.8088 17.291C54.1866 17.9324 53.4476 18.4262 52.592 18.7725C51.7363 19.1189 50.8029 19.2921 49.7917 19.2921ZM49.7722 17.2525C50.6538 17.2525 51.4252 17.0344 52.0864 16.5983C52.7605 16.1622 53.2855 15.5593 53.6615 14.7897C54.0375 14.0072 54.2254 13.1093 54.2254 12.0959C54.2254 11.0954 54.0375 10.2231 53.6615 9.47914C53.2985 8.72233 52.7799 8.13868 52.1058 7.72821C51.4446 7.30491 50.6668 7.09326 49.7722 7.09326C48.8907 7.09326 48.1128 7.30491 47.4387 7.72821C46.7775 8.13868 46.2654 8.71591 45.9024 9.4599C45.5394 10.2039 45.3579 11.0826 45.3579 12.0959C45.3579 13.1221 45.5394 14.02 45.9024 14.7897C46.2784 15.5593 46.797 16.1622 47.4581 16.5983C48.1323 17.0344 48.9036 17.2525 49.7722 17.2525Z" fill="white"/>
<path id="Vector_7" d="M35.5891 19.0996V7.22792H30.9414V5.24609H42.7648V7.22792H38.1171V19.0996H35.5891Z" fill="white"/>
</g>
</g>
</svg>
