<svg width="217" height="56" viewBox="0 0 217 56" fill="none" xmlns="http://www.w3.org/2000/svg">
<path d="M0 8C0 3.58172 3.58172 0 8 0H209C213.418 0 217 3.58172 217 8V48C217 52.4183 213.418 56 209 56H8C3.58172 56 0 52.4183 0 48V8Z" fill="#070707"/>
<path d="M13.2773 33.9492V30.6914L19.7227 28.1484L13.2773 25.6055V22.2539L23.6133 26.7773V29.4258L13.2773 33.9492ZM26.6602 36V18.9375H31.5352L35.4141 29.6953C35.5078 29.9609 35.5859 30.2148 35.6484 30.457C35.7188 30.6914 35.7812 30.9531 35.8359 31.2422H35.9062C35.9531 30.9531 36.0117 30.6914 36.082 30.457C36.1523 30.2148 36.2344 29.9609 36.3281 29.6953L40.207 18.9375H45.1406V36H41.4609V25.3125C41.4609 25.0469 41.4648 24.7578 41.4727 24.4453C41.4883 24.125 41.5078 23.8359 41.5312 23.5781H41.4492C41.4102 23.8359 41.3516 24.125 41.2734 24.4453C41.1953 24.7578 41.1094 25.0469 41.0156 25.3125L37.207 36H34.0898L30.293 25.3125C30.1992 25.0469 30.1133 24.75 30.0352 24.4219C29.957 24.0938 29.8984 23.8125 29.8594 23.5781H29.7773C29.8008 23.8125 29.8164 24.0938 29.8242 24.4219C29.832 24.75 29.8359 25.0469 29.8359 25.3125V36H26.6602ZM47.543 30.1758V29.8008C47.543 27.9492 48.1094 26.4648 49.2422 25.3477C50.3828 24.2227 51.8516 23.6602 53.6484 23.6602C55.4531 23.6602 56.8594 24.1875 57.8672 25.2422C58.8828 26.2969 59.3906 27.7539 59.3906 29.6133V30.8203H49.8516V28.6992H55.8516V28.4766C55.8516 27.8438 55.6602 27.3125 55.2773 26.8828C54.9023 26.4453 54.3555 26.2266 53.6367 26.2266C52.8164 26.2266 52.1914 26.5312 51.7617 27.1406C51.3398 27.7422 51.1289 28.5469 51.1289 29.5547V30.3281C51.1289 31.375 51.3594 32.2031 51.8203 32.8125C52.2812 33.4141 52.957 33.7148 53.8477 33.7148C54.4727 33.7148 55.0078 33.5664 55.4531 33.2695C55.9062 32.9727 56.2695 32.6172 56.543 32.2031L59.2031 33.6445C58.8203 34.4414 58.1719 35.0898 57.2578 35.5898C56.3438 36.0898 55.2266 36.3398 53.9062 36.3398C51.9141 36.3398 50.3555 35.7812 49.2305 34.6641C48.1055 33.5391 47.543 32.043 47.543 30.1758ZM60.0586 26.625V24.0117H67.7461V26.625H60.0586ZM61.8633 32.3906V25.1367L61.8984 24.8438V20.9414H65.4375V32.0977C65.4375 32.707 65.5391 33.1211 65.7422 33.3398C65.9453 33.5508 66.2422 33.6562 66.6328 33.6562C66.8203 33.6562 67.0039 33.6367 67.1836 33.5977C67.3633 33.5586 67.5391 33.5039 67.7109 33.4336V35.9766C67.5156 36.0625 67.2383 36.1406 66.8789 36.2109C66.5195 36.2812 66.1094 36.3164 65.6484 36.3164C64.4922 36.3164 63.5703 36.0039 62.8828 35.3789C62.2031 34.7461 61.8633 33.75 61.8633 32.3906ZM69.0117 32.4844C69.0117 31.1719 69.5195 30.1797 70.5352 29.5078C71.5508 28.8281 72.8477 28.4844 74.4258 28.4766H76.8984V27.7852C76.8984 27.2461 76.7617 26.8164 76.4883 26.4961C76.2148 26.168 75.7383 26.0039 75.0586 26.0039C74.3867 26.0039 73.9023 26.1406 73.6055 26.4141C73.3086 26.6797 73.1602 27.0195 73.1602 27.4336V27.6328L69.6797 27.6211V27.4219C69.6797 26.3281 70.1914 25.4297 71.2148 24.7266C72.2383 24.0234 73.5781 23.6719 75.2344 23.6719C76.9062 23.6719 78.1992 24.0078 79.1133 24.6797C80.0352 25.3516 80.4961 26.4023 80.4961 27.832V33.293C80.4961 33.7852 80.5391 34.2539 80.625 34.6992C80.7188 35.1367 80.8398 35.5078 80.9883 35.8125V36H77.4492C77.3477 35.8203 77.2617 35.5898 77.1914 35.3086C77.1211 35.0195 77.0703 34.7344 77.0391 34.4531C76.7969 34.9062 76.3398 35.3125 75.668 35.6719C74.9961 36.0312 74.1602 36.2109 73.1602 36.2109C71.957 36.2109 70.9648 35.9023 70.1836 35.2852C69.4023 34.6602 69.0117 33.7266 69.0117 32.4844ZM72.6094 32.1797C72.6094 32.7031 72.7578 33.1211 73.0547 33.4336C73.3594 33.7383 73.8281 33.8906 74.4609 33.8906C75.1484 33.8906 75.7266 33.668 76.1953 33.2227C76.6641 32.7773 76.8984 32.2539 76.8984 31.6523V30.5508H75.0938C74.25 30.5508 73.625 30.6875 73.2188 30.9609C72.8125 31.2344 72.6094 31.6406 72.6094 32.1797ZM83.332 40.9102V24.0117H86.7422L86.8008 25.3828H86.8594C87.125 24.9141 87.5703 24.5273 88.1953 24.2227C88.8203 23.9102 89.5195 23.7539 90.293 23.7539C91.832 23.7539 93.0742 24.2969 94.0195 25.3828C94.9648 26.4688 95.4375 27.9414 95.4375 29.8008V30.1758C95.4375 32.0117 94.9688 33.4805 94.0312 34.582C93.1016 35.6836 91.8789 36.2344 90.3633 36.2344C89.5898 36.2344 88.9023 36.1055 88.3008 35.8477C87.707 35.5898 87.25 35.2383 86.9297 34.793V40.9102H83.332ZM86.9297 31.957C87.1016 32.3945 87.3984 32.7773 87.8203 33.1055C88.25 33.4258 88.7539 33.5859 89.332 33.5859C90.1523 33.5859 90.7617 33.3008 91.1602 32.7305C91.5664 32.1523 91.7695 31.3594 91.7695 30.3516V29.625C91.7695 28.6094 91.5664 27.8203 91.1602 27.2578C90.7617 26.6953 90.1484 26.4141 89.3203 26.4141C88.7188 26.4141 88.2148 26.5742 87.8086 26.8945C87.4102 27.207 87.1172 27.5742 86.9297 27.9961V31.957ZM97.6289 36V18.2578H101.25V36H97.6289ZM103.441 30.1758V29.8008C103.441 27.9492 104.008 26.4648 105.141 25.3477C106.281 24.2227 107.75 23.6602 109.547 23.6602C111.352 23.6602 112.758 24.1875 113.766 25.2422C114.781 26.2969 115.289 27.7539 115.289 29.6133V30.8203H105.75V28.6992H111.75V28.4766C111.75 27.8438 111.559 27.3125 111.176 26.8828C110.801 26.4453 110.254 26.2266 109.535 26.2266C108.715 26.2266 108.09 26.5312 107.66 27.1406C107.238 27.7422 107.027 28.5469 107.027 29.5547V30.3281C107.027 31.375 107.258 32.2031 107.719 32.8125C108.18 33.4141 108.855 33.7148 109.746 33.7148C110.371 33.7148 110.906 33.5664 111.352 33.2695C111.805 32.9727 112.168 32.6172 112.441 32.2031L115.102 33.6445C114.719 34.4414 114.07 35.0898 113.156 35.5898C112.242 36.0898 111.125 36.3398 109.805 36.3398C107.812 36.3398 106.254 35.7812 105.129 34.6641C104.004 33.5391 103.441 32.043 103.441 30.1758ZM115.945 36L120.586 29.0742L121.23 29.0625L124.395 24.0117H127.746L123.387 30.7266L122.707 30.7383L119.297 36H115.945ZM116.25 24.0117H120.258L123.469 29.0742L123.609 29.0977L128.215 36H124.207L120.82 30.6797L120.68 30.6562L116.25 24.0117ZM134.824 30.1758V29.8008C134.824 27.9023 135.387 26.4023 136.512 25.3008C137.645 24.1992 139.148 23.6484 141.023 23.6484C142.82 23.6484 144.191 24.082 145.137 24.9492C146.09 25.8086 146.598 26.8789 146.66 28.1602L146.672 28.3828H143.168V28.2305C143.168 27.668 142.988 27.2031 142.629 26.8359C142.277 26.4688 141.746 26.2852 141.035 26.2852C140.199 26.2852 139.566 26.5859 139.137 27.1875C138.715 27.7812 138.504 28.5938 138.504 29.625V30.3516C138.504 31.3828 138.711 32.2031 139.125 32.8125C139.539 33.4141 140.172 33.7148 141.023 33.7148C141.797 33.7148 142.348 33.5234 142.676 33.1406C143.004 32.75 143.168 32.2891 143.168 31.7578V31.6172H146.672V31.793C146.664 33.0586 146.172 34.1328 145.195 35.0156C144.219 35.8984 142.828 36.3398 141.023 36.3398C139.156 36.3398 137.656 35.7891 136.523 34.6875C135.391 33.5781 134.824 32.0742 134.824 30.1758ZM148.84 36V18.9375H152.566V25.7344H158.918V18.9375H162.633V36H158.918V28.6641H152.566V36H148.84ZM165.082 32.4844C165.082 31.1719 165.59 30.1797 166.605 29.5078C167.621 28.8281 168.918 28.4844 170.496 28.4766H172.969V27.7852C172.969 27.2461 172.832 26.8164 172.559 26.4961C172.285 26.168 171.809 26.0039 171.129 26.0039C170.457 26.0039 169.973 26.1406 169.676 26.4141C169.379 26.6797 169.23 27.0195 169.23 27.4336V27.6328L165.75 27.6211V27.4219C165.75 26.3281 166.262 25.4297 167.285 24.7266C168.309 24.0234 169.648 23.6719 171.305 23.6719C172.977 23.6719 174.27 24.0078 175.184 24.6797C176.105 25.3516 176.566 26.4023 176.566 27.832V33.293C176.566 33.7852 176.609 34.2539 176.695 34.6992C176.789 35.1367 176.91 35.5078 177.059 35.8125V36H173.52C173.418 35.8203 173.332 35.5898 173.262 35.3086C173.191 35.0195 173.141 34.7344 173.109 34.4531C172.867 34.9062 172.41 35.3125 171.738 35.6719C171.066 36.0312 170.23 36.2109 169.23 36.2109C168.027 36.2109 167.035 35.9023 166.254 35.2852C165.473 34.6602 165.082 33.7266 165.082 32.4844ZM168.68 32.1797C168.68 32.7031 168.828 33.1211 169.125 33.4336C169.43 33.7383 169.898 33.8906 170.531 33.8906C171.219 33.8906 171.797 33.668 172.266 33.2227C172.734 32.7773 172.969 32.2539 172.969 31.6523V30.5508H171.164C170.32 30.5508 169.695 30.6875 169.289 30.9609C168.883 31.2344 168.68 31.6406 168.68 32.1797ZM178.77 30.1758V29.8008C178.77 27.9023 179.332 26.4023 180.457 25.3008C181.59 24.1992 183.094 23.6484 184.969 23.6484C186.766 23.6484 188.137 24.082 189.082 24.9492C190.035 25.8086 190.543 26.8789 190.605 28.1602L190.617 28.3828H187.113V28.2305C187.113 27.668 186.934 27.2031 186.574 26.8359C186.223 26.4688 185.691 26.2852 184.98 26.2852C184.145 26.2852 183.512 26.5859 183.082 27.1875C182.66 27.7812 182.449 28.5938 182.449 29.625V30.3516C182.449 31.3828 182.656 32.2031 183.07 32.8125C183.484 33.4141 184.117 33.7148 184.969 33.7148C185.742 33.7148 186.293 33.5234 186.621 33.1406C186.949 32.75 187.113 32.2891 187.113 31.7578V31.6172H190.617V31.793C190.609 33.0586 190.117 34.1328 189.141 35.0156C188.164 35.8984 186.773 36.3398 184.969 36.3398C183.102 36.3398 181.602 35.7891 180.469 34.6875C179.336 33.5781 178.77 32.0742 178.77 30.1758ZM192.551 36V18.2578H196.16V28.2422L200.039 24H204.047L196.16 32.3672V36H192.551ZM200.332 36L196.254 30.3867L198.539 27.8555L204.574 36H200.332Z" fill="white"/>
</svg>
