<svg width="318" height="200" viewBox="0 0 318 200" fill="none" xmlns="http://www.w3.org/2000/svg">
<g clip-path="url(#clip0_40003352_68082)">
<path d="M0 16C0 7.16344 7.16344 0 16 0H301.333C310.17 0 317.333 7.16344 317.333 16V184C317.333 192.837 310.17 200 301.333 200H16C7.16346 200 0 192.837 0 184V16Z" fill="#F6F6F6" fill-opacity="0.8"/>
<path d="M171.621 34.085C226.256 34.7768 270.333 79.2819 270.333 134.081L270.324 135.373C269.633 190.008 225.128 234.085 170.329 234.085L169.036 234.076C114.832 233.389 71.0198 189.578 70.3333 135.373C70.3289 134.661 70.9052 134.081 71.6175 134.081H93.3254C94.43 134.081 95.3228 134.982 95.3517 136.086C96.4149 176.583 129.577 209.085 170.329 209.085C211.753 209.085 245.333 175.504 245.333 134.081C245.333 92.9814 212.275 59.6023 171.299 59.083C170.763 59.0798 170.329 58.6439 170.329 58.1074V35.3692C170.329 34.6569 170.909 34.0807 171.621 34.085Z" fill="#C2FFD2"/>
<path d="M170.284 21.584C170.75 21.1176 171.39 20.9318 171.996 21.0225V71.9971C171.39 72.0878 170.75 71.902 170.284 71.4355L146.773 47.9238C145.992 47.1428 145.992 45.8767 146.773 45.0957L170.284 21.584Z" fill="#C2FFD2"/>
</g>
<path d="M16 2.5H301.333C308.789 2.5 314.833 8.54416 314.833 16V184C314.833 191.456 308.789 197.5 301.333 197.5H16C8.54416 197.5 2.5 191.456 2.5 184V16C2.5 8.54416 8.54416 2.5 16 2.5Z" stroke="#F8F8F8" stroke-width="5"/>
<defs>
<clipPath id="clip0_40003352_68082">
<path d="M0 16C0 7.16344 7.16344 0 16 0H301.333C310.17 0 317.333 7.16344 317.333 16V184C317.333 192.837 310.17 200 301.333 200H16C7.16346 200 0 192.837 0 184V16Z" fill="white"/>
</clipPath>
</defs>
</svg>
