<svg width="41" height="38" viewBox="0 0 41 38" fill="none" xmlns="http://www.w3.org/2000/svg">
<g id="Vector" filter="url(#filter0_d_1630_10763)">
<path d="M32.4701 25.3457L28.4093 29.6999C28.3215 29.7945 28.2151 29.87 28.0968 29.9216C27.9785 29.9733 27.8509 30 27.7218 30.0001H8.47182C8.38001 30.0001 8.2902 29.9732 8.2134 29.9229C8.1366 29.8726 8.07613 29.801 8.03941 29.7168C8.00269 29.6327 7.9913 29.5397 8.00664 29.4491C8.02198 29.3586 8.06338 29.2745 8.12578 29.2072L12.182 24.853C12.2699 24.7584 12.3762 24.683 12.4945 24.6313C12.6128 24.5797 12.7405 24.5529 12.8695 24.5528H32.1195C32.2122 24.5509 32.3033 24.5764 32.3815 24.6262C32.4597 24.676 32.5214 24.7478 32.5589 24.8325C32.5964 24.9173 32.6079 25.0112 32.5921 25.1025C32.5764 25.1939 32.5339 25.2785 32.4701 25.3457ZM28.4093 16.5755C28.3211 16.4814 28.2147 16.4062 28.0965 16.3546C27.9783 16.303 27.8508 16.276 27.7218 16.2753H8.47182C8.38001 16.2754 8.2902 16.3022 8.2134 16.3525C8.1366 16.4028 8.07613 16.4744 8.03941 16.5586C8.00269 16.6427 7.9913 16.7357 8.00664 16.8263C8.02198 16.9168 8.06338 17.0009 8.12578 17.0682L12.182 21.4247C12.2702 21.5188 12.3766 21.594 12.4948 21.6456C12.6131 21.6972 12.7405 21.7242 12.8695 21.7249H32.1195C32.2111 21.7244 32.3006 21.6973 32.3771 21.6468C32.4535 21.5963 32.5137 21.5247 32.5501 21.4406C32.5865 21.3565 32.5977 21.2637 32.5823 21.1734C32.5669 21.0831 32.5255 20.9992 32.4633 20.932L28.4093 16.5755ZM8.47182 13.4474H27.7218C27.8509 13.4473 27.9786 13.4206 28.0968 13.3689C28.2151 13.3173 28.3215 13.2418 28.4093 13.1472L32.4701 8.79302C32.5177 8.7427 32.5536 8.68248 32.5753 8.61667C32.5969 8.55086 32.6037 8.48109 32.5952 8.41234C32.5868 8.34359 32.5632 8.27757 32.5263 8.21898C32.4893 8.16039 32.4399 8.11069 32.3815 8.07343C32.3033 8.02369 32.2122 7.99818 32.1195 8.0001H12.8695C12.7405 8.00024 12.6128 8.02696 12.4945 8.07861C12.3762 8.13027 12.2699 8.20573 12.182 8.30031L8.12578 12.6545C8.06338 12.7218 8.02198 12.8059 8.00664 12.8964C7.9913 12.987 8.00269 13.08 8.03941 13.1641C8.07613 13.2483 8.1366 13.3199 8.2134 13.3702C8.2902 13.4205 8.38001 13.4473 8.47182 13.4474Z" fill="#A1FFFF"/>
</g>
<defs>
<filter id="filter0_d_1630_10763" x="0" y="0" width="40.5996" height="38" filterUnits="userSpaceOnUse" color-interpolation-filters="sRGB">
<feFlood flood-opacity="0" result="BackgroundImageFix"/>
<feColorMatrix in="SourceAlpha" type="matrix" values="0 0 0 0 0 0 0 0 0 0 0 0 0 0 0 0 0 0 127 0" result="hardAlpha"/>
<feOffset/>
<feGaussianBlur stdDeviation="4"/>
<feComposite in2="hardAlpha" operator="out"/>
<feColorMatrix type="matrix" values="0 0 0 0 0.631373 0 0 0 0 1 0 0 0 0 1 0 0 0 0.5 0"/>
<feBlend mode="normal" in2="BackgroundImageFix" result="effect1_dropShadow_1630_10763"/>
<feBlend mode="normal" in="SourceGraphic" in2="effect1_dropShadow_1630_10763" result="shape"/>
</filter>
</defs>
</svg>
