<svg width="318" height="200" viewBox="0 0 318 200" fill="none" xmlns="http://www.w3.org/2000/svg">
<g clip-path="url(#clip0_40003352_68094)">
<path d="M0 16C0 7.16344 7.16344 0 16 0H301.333C310.17 0 317.333 7.16344 317.333 16V184C317.333 192.837 310.17 200 301.333 200H16C7.16346 200 0 192.837 0 184V16Z" fill="#F6F6F6" fill-opacity="0.8"/>
<path d="M-0.333496 123C-0.333496 118.582 3.24823 115 7.6665 115H41.6665C46.0848 115 49.6665 118.582 49.6665 123V139C49.6665 143.418 46.0848 147 41.6665 147H7.6665C3.24823 147 -0.333496 143.418 -0.333496 139V123Z" fill="#B8B8BC"/>
<path d="M-0.333496 167C-0.333496 162.582 3.24823 159 7.6665 159H241.667C246.085 159 249.667 162.582 249.667 167V183C249.667 187.418 246.085 191 241.667 191H7.6665C3.24823 191 -0.333496 187.418 -0.333496 183V167Z" fill="#D1D5FF"/>
</g>
<path d="M16 2.5H301.333C308.789 2.5 314.833 8.54416 314.833 16V184C314.833 191.456 308.789 197.5 301.333 197.5H16C8.54416 197.5 2.5 191.456 2.5 184V16C2.5 8.54416 8.54416 2.5 16 2.5Z" stroke="#F8F8F8" stroke-width="5"/>
<defs>
<clipPath id="clip0_40003352_68094">
<path d="M0 16C0 7.16344 7.16344 0 16 0H301.333C310.17 0 317.333 7.16344 317.333 16V184C317.333 192.837 310.17 200 301.333 200H16C7.16346 200 0 192.837 0 184V16Z" fill="white"/>
</clipPath>
</defs>
</svg>
