<svg width="124" height="28" viewBox="0 0 124 28" fill="none" xmlns="http://www.w3.org/2000/svg">
<path d="M22.3517 0H9.17802C8.25216 0 7.39663 0.493942 6.93371 1.29577L0.347189 12.7041C-0.115723 13.5059 -0.115731 14.4937 0.347173 15.2955L6.93371 26.7042C7.39664 27.506 8.25217 28 9.17805 28H22.3517C23.2776 28 24.1331 27.506 24.5961 26.7042L31.1826 15.2955C31.6455 14.4937 31.6455 13.5059 31.1826 12.7041L24.5961 1.29577C24.1331 0.493946 23.2776 0 22.3517 0ZM17.4479 14.9716H29.1255L23.2869 25.0847L17.4479 14.9716ZM29.1255 13.0281H17.822C16.8962 13.0281 16.0406 12.5341 15.5777 11.7323L9.92599 1.94352H21.2297C22.1555 1.94352 23.0111 2.43746 23.474 3.23929L29.1255 13.0281ZM14.0816 13.0281H2.40431L8.24287 2.91526L14.0816 13.0281ZM2.40429 14.9716H13.7076C14.6334 14.9716 15.4889 15.4655 15.9519 16.2673L21.6038 26.0565H10.3001C9.37425 26.0565 8.51871 25.5625 8.05579 24.7607L2.40429 14.9716Z" fill="#6267F5"/>
<path d="M112.863 21.6288V6.37109H115.618V21.6288H112.863ZM114.177 21.6288V19.4461H123.84V21.6288H114.177ZM114.177 14.8476V12.7073H123.099V14.8476H114.177ZM114.177 8.5538V6.37109H123.607V8.5538H114.177Z" fill="#4D4D50"/>
<path d="M104.278 21.8407C102.216 21.8407 100.655 21.2544 99.5952 20.0819C98.5356 18.9093 98.0059 17.2281 98.0059 15.0383V6.37109H100.761V15.441C100.761 16.8396 101.072 17.885 101.693 18.5773C102.315 19.2554 103.184 19.5945 104.3 19.5945C105.416 19.5945 106.285 19.2554 106.906 18.5773C107.528 17.885 107.839 16.8467 107.839 15.4622V6.37109H110.593V15.0595C110.593 17.2352 110.057 18.9093 108.983 20.0819C107.923 21.2544 106.355 21.8407 104.278 21.8407Z" fill="#4D4D50"/>
<path d="M88.6027 21.8407C87.0628 21.8407 85.7065 21.5087 84.534 20.8447C83.3755 20.1666 82.4713 19.2342 81.8215 18.0475C81.1716 16.8608 80.8467 15.4904 80.8467 13.9364C80.8467 12.3965 81.1716 11.0473 81.8215 9.88884C82.4713 8.71626 83.3684 7.80504 84.5128 7.15517C85.6712 6.49118 86.9851 6.15918 88.4543 6.15918C89.9519 6.15918 91.2728 6.49118 92.4171 7.15517C93.5756 7.80504 94.4797 8.71626 95.1296 9.88884C95.7795 11.0614 96.1044 12.4177 96.1044 13.9576C96.1044 14.9889 95.9349 15.9637 95.5958 16.882C95.2568 17.7861 94.734 18.5561 94.0277 19.1918C93.3213 19.8276 92.403 20.2867 91.2728 20.5692L88.6027 21.8407ZM88.4543 19.7004C89.415 19.7004 90.2556 19.4673 90.9761 19.0011C91.7107 18.5208 92.2829 17.8426 92.6926 16.9667C93.1023 16.0908 93.3072 15.0736 93.3072 13.9152C93.3072 12.8132 93.1023 11.8526 92.6926 11.0332C92.297 10.1997 91.7319 9.55685 90.9973 9.10477C90.2768 8.63856 89.4291 8.40546 88.4543 8.40546C87.4937 8.40546 86.646 8.63856 85.9114 9.10477C85.1909 9.55685 84.6329 10.1926 84.2373 11.012C83.8417 11.8314 83.6439 12.7991 83.6439 13.9152C83.6439 15.0878 83.8417 16.112 84.2373 16.9879C84.647 17.8497 85.2121 18.5208 85.9326 19.0011C86.6672 19.4673 87.5078 19.7004 88.4543 19.7004ZM88.6027 21.8407L88.4755 19.9335L96.8249 19.4461V21.6288C95.9349 21.6288 95.1508 21.6359 94.4727 21.65C93.8087 21.6783 93.18 21.7065 92.5866 21.7348C92.0074 21.763 91.3999 21.7842 90.7642 21.7983C90.1285 21.8266 89.408 21.8407 88.6027 21.8407Z" fill="#4D4D50"/>
<path d="M67.6797 21.6288V6.37109H74.1218C75.2097 6.37109 76.1562 6.55475 76.9615 6.92207C77.7667 7.28938 78.3813 7.80504 78.8051 8.46903C79.2431 9.13302 79.462 9.91004 79.462 10.8001C79.462 11.676 79.2431 12.4459 78.8051 13.1099C78.3813 13.7739 77.7667 14.2896 76.9615 14.6569C76.1562 15.0242 75.2097 15.2079 74.1218 15.2079H69.8412V13.1099H74.0371C74.9271 13.1099 75.6052 12.9051 76.0714 12.4954C76.5518 12.0857 76.7919 11.5206 76.7919 10.8001C76.7919 10.0796 76.5588 9.52859 76.0926 9.14715C75.6264 8.75158 74.9412 8.5538 74.0371 8.5538H70.4346V21.6288H67.6797ZM76.4105 21.6288L69.6081 13.8304H72.702L80.2249 21.6288H76.4105Z" fill="#4D4D50"/>
<path d="M58.2294 21.8407C57.1275 21.8407 56.1103 21.65 55.1779 21.2686C54.2455 20.8871 53.4332 20.3432 52.7409 19.6368C52.0628 18.9305 51.533 18.0969 51.1516 17.1363C50.7842 16.1615 50.6006 15.0948 50.6006 13.9364C50.6006 12.3965 50.9255 11.0473 51.5754 9.88884C52.2253 8.71626 53.1223 7.80504 54.2667 7.15517C55.4251 6.49118 56.739 6.15918 58.2083 6.15918C59.7058 6.15918 61.0267 6.49118 62.171 7.15517C63.3295 7.80504 64.2336 8.71626 64.8835 9.88884C65.5334 11.0614 65.8583 12.4177 65.8583 13.9576C65.8583 15.116 65.6676 16.1756 65.2861 17.1363C64.9188 18.0969 64.389 18.9305 63.6968 19.6368C63.0187 20.3432 62.2134 20.8871 61.281 21.2686C60.3486 21.65 59.3314 21.8407 58.2294 21.8407ZM58.2083 19.5945C59.1689 19.5945 60.0095 19.3543 60.73 18.8739C61.4646 18.3936 62.0368 17.7296 62.4465 16.882C62.8562 16.0202 63.0611 15.0313 63.0611 13.9152C63.0611 12.8132 62.8562 11.8526 62.4465 11.0332C62.0509 10.1997 61.4858 9.55685 60.7512 9.10477C60.0307 8.63856 59.1831 8.40546 58.2083 8.40546C57.2476 8.40546 56.3999 8.63856 55.6653 9.10477C54.9448 9.55685 54.3868 10.1926 53.9912 11.012C53.5956 11.8314 53.3978 12.7991 53.3978 13.9152C53.3978 15.0454 53.5956 16.0343 53.9912 16.882C54.4009 17.7296 54.966 18.3936 55.6865 18.8739C56.4211 19.3543 57.2617 19.5945 58.2083 19.5945Z" fill="#4D4D50"/>
<path d="M42.7527 21.6288V8.5538H37.688V6.37109H50.5723V8.5538H45.5076V21.6288H42.7527Z" fill="#4D4D50"/>
</svg>
