<svg width="32" height="32" viewBox="0 0 32 32" fill="none" xmlns="http://www.w3.org/2000/svg">
<path d="M22.5871 2H9.41337C8.48752 2 7.63199 2.49394 7.16906 3.29577L0.58254 14.7041C0.119628 15.5059 0.119621 16.4937 0.582525 17.2955L7.16907 28.7042C7.63199 29.506 8.48752 30 9.4134 30H22.5871C23.513 30 24.3685 29.506 24.8314 28.7042L31.418 17.2955C31.8809 16.4937 31.8809 15.5059 31.4179 14.7041L24.8314 3.29577C24.3685 2.49395 23.513 2 22.5871 2ZM17.6833 16.9716H29.3608L23.5223 27.0847L17.6833 16.9716ZM29.3608 15.0281H18.0574C17.1315 15.0281 16.276 14.5341 15.8131 13.7323L10.1613 3.94352H21.465C22.3909 3.94352 23.2464 4.43746 23.7093 5.23929L29.3608 15.0281ZM14.317 15.0281H2.63966L8.47822 4.91526L14.317 15.0281ZM2.63964 16.9716H13.9429C14.8688 16.9716 15.7243 17.4655 16.1872 18.2673L21.8391 28.0565H10.5355C9.6096 28.0565 8.75407 27.5625 8.29115 26.7607L2.63964 16.9716Z" fill="#6267F5"/>
</svg>
