<?xml version="1.0" encoding="UTF-8"?>
<svg xmlns="http://www.w3.org/2000/svg" version="1.1" viewBox="0 0 1594.3 1917.4">
  <defs>
    <clipPath id="clippath">
      <rect x="42.2" y="50.8" width="1509.9" height="1815.9"/>
    </clipPath>
  </defs>
  <g clip-path="url(#clippath)">
    <g fill="none" stroke="#4857a3" stroke-width="4">
      <!-- Center hexagon -->
      <path d="M642.4,850.4v200.2l172.5,100.1,172.5-100.1v-200.2l-172.5-100.1-172.5,100.1Z"/>
      <!-- Outer hexagon -->
      <path d="M83.4,525.6v849.9l731.6,425,731.6-425v-849.9L815,100.6,83.4,525.6Z"/>
      <!-- Vertical center line -->
      <path d="M813.7,100.6v1704.9"/>
      <!-- Inner diagonal -->
      <path d="M642.4,1052.5l341.2-200.2"/>
      <!-- Circle -->
      <path d="M1319,951.8c0-279.1-226.2-505.3-505.3-505.3-279.1,0-505.3,226.2-505.3,505.3s226.2,505.3,505.3,505.3,505.3-226.2,505.3-505.3Z"/>
      <!-- Cross diagonals -->
      <path d="M643.2,850.3L85.9,524.9"/>
      <path d="M987.5,1048.8l557.8,326.1"/>
      <path d="M84.6,1374.9l561.7-325.1"/>
      <path d="M1546.5,527.5l-565.4,326.4"/>
    </g>
  </g>
</svg>
