<?xml version="1.0" encoding="UTF-8"?>
<svg xmlns="http://www.w3.org/2000/svg" version="1.1" viewBox="0 0 1594.3 1917.4">
  <defs>
    <clipPath id="clippath">
      <rect x="42.2" y="50.8" width="1509.9" height="1815.9"/>
    </clipPath>
  </defs>
  <g clip-path="url(#clippath)">
    <!-- Left vertex hexagon outline + circles -->
    <path fill="none" stroke="#4857a3" stroke-width="4" d="M43.1,927.2v48.3s41.2,24.2,41.2,24.2l41.2-24.2v-48.3l-41.2-24.2-41.2,24.2Z"/>
    <path fill="#898695" d="M327.6,949.3c0-9.7-7.9-17.6-17.6-17.6s-17.6,7.9-17.6,17.6,7.9,17.6,17.6,17.6,17.6-7.9,17.6-17.6Z"/>
    <path fill="#898695" d="M105.1,950.8c0-11.2-9.1-20.3-20.3-20.3s-20.3,9.1-20.3,20.3,9.1,20.3,20.3,20.3,20.3-9.1,20.3-20.3Z"/>

    <!-- Bottom vertex hexagon outline + circle -->
    <path fill="none" stroke="#898695" stroke-width="4" d="M773.4,1775.9v48.3l41.2,24.2,41.2-24.2v-48.3l-41.2-24.2-41.2,24.2Z"/>
    <path fill="#f2a3a1" d="M835.4,1799.4c0-11.2-9.1-20.3-20.3-20.3s-20.3,9.1-20.3,20.3,9.1,20.3,20.3,20.3,20.3-9.1,20.3-20.3Z"/>

    <!-- Top vertex hexagon outline + circle -->
    <path fill="none" stroke="#f2a3a1" stroke-width="4" d="M773.4,76v48.3l41.2,24.2,41.2-24.2v-48.3l-41.2-24.2-41.2,24.2Z"/>
    <path fill="#5560a9" d="M835.4,99.5c0-11.2-9.1-20.3-20.3-20.3s-20.3,9.1-20.3,20.3,9.1,20.3,20.3,20.3,20.3-9.1,20.3-20.3Z"/>

    <!-- Filled hexagons on vertical axis -->
    <path fill="#4857a3" d="M778.4,1436.2v41.4l35.3,20.7,35.3-20.7v-41.4l-35.3-20.7-35.3,20.7Z"/>
    <path fill="#f2a3a1" d="M778.4,423.8v41.4l35.3,20.7,35.3-20.7v-41.4l-35.3-20.7-35.3,20.7Z"/>

    <!-- Right side circles -->
    <path fill="#f2a3a1" d="M1270.3,1204c0-9.6-8.2-17.4-18.3-17.4s-18.3,7.8-18.3,17.4,8.2,17.4,18.3,17.4,18.3-7.8,18.3-17.4Z"/>
    <path fill="#5560a9" d="M1270.3,698c0-9.6-8.2-17.4-18.3-17.4s-18.3,7.8-18.3,17.4,8.2,17.4,18.3,17.4,18.3-7.8,18.3-17.4Z"/>
  </g>
</svg>
