<svg width="48" height="48" viewBox="0 0 48 48" fill="none" xmlns="http://www.w3.org/2000/svg">
<circle cx="24" cy="24" r="24" fill="black"/>
<path fill-rule="evenodd" clip-rule="evenodd" d="M14.8098 30.6153C14.9002 30.5159 15.0102 30.4366 15.133 30.3822C15.2556 30.3279 15.3884 30.2998 15.5226 30.2997L37.5162 30.3177C37.6099 30.3179 37.7015 30.3453 37.7798 30.3965C37.8583 30.4477 37.9201 30.5207 37.9578 30.6064C37.9956 30.6921 38.0076 30.787 37.9925 30.8794C37.9774 30.9718 37.9357 31.0578 37.8726 31.1271L33.189 36.2841C33.0986 36.3834 32.9885 36.4629 32.8657 36.5172C32.7428 36.5716 32.61 36.5997 32.4756 36.5997L10.4826 36.5817C10.389 36.5814 10.2974 36.5541 10.219 36.5028C10.1406 36.4516 10.0787 36.3786 10.041 36.2929C10.0033 36.2073 9.99122 36.1123 10.0064 36.0199C10.0215 35.9275 10.0631 35.8415 10.1262 35.7723L14.8098 30.6153ZM37.8726 26.3223C37.9357 26.3915 37.9774 26.4775 37.9925 26.5699C38.0076 26.6623 37.9956 26.7573 37.9578 26.8429C37.9201 26.9286 37.8583 27.0016 37.7798 27.0528C37.7015 27.1041 37.6099 27.1314 37.5162 27.1317L15.5232 27.1497C15.3889 27.1497 15.2561 27.1216 15.1332 27.0672C15.0103 27.0129 14.9002 26.9334 14.8098 26.8341L10.1262 21.6741C10.0631 21.6048 10.0215 21.5188 10.0064 21.4264C9.99122 21.334 10.0033 21.2391 10.041 21.1534C10.0787 21.0677 10.1406 20.9947 10.219 20.9435C10.2974 20.8923 10.389 20.8649 10.4826 20.8647L32.4762 20.8467C32.6105 20.8468 32.7432 20.8749 32.866 20.9292C32.9887 20.9836 33.0988 21.0629 33.189 21.1623L37.8726 26.3223ZM14.8098 11.7153C14.9002 11.6159 15.0102 11.5366 15.133 11.4822C15.2556 11.4279 15.3884 11.3997 15.5226 11.3997L37.5162 11.4177C37.6099 11.4179 37.7015 11.4452 37.7798 11.4965C37.8583 11.5477 37.9201 11.6207 37.9578 11.7064C37.9956 11.7921 38.0076 11.8869 37.9925 11.9794C37.9774 12.0718 37.9357 12.1578 37.8726 12.2271L33.189 17.3841C33.0986 17.4834 32.9885 17.5629 32.8657 17.6172C32.7428 17.6716 32.61 17.6997 32.4756 17.6997L10.4826 17.6817C10.389 17.6814 10.2974 17.6541 10.219 17.6028C10.1406 17.5516 10.0787 17.4786 10.041 17.3929C10.0033 17.3073 9.99122 17.2123 10.0064 17.1199C10.0215 17.0275 10.0631 16.9415 10.1262 16.8723L14.8098 11.7153Z" fill="url(#paint0_linear_40002745_43188)"/>
<defs>
<linearGradient id="paint0_linear_40002745_43188" x1="10.8498" y1="37.1493" x2="37.149" y2="10.8501" gradientUnits="userSpaceOnUse">
<stop stop-color="#9945FF"/>
<stop offset="0.2" stop-color="#7962E7"/>
<stop offset="1" stop-color="#00D18C"/>
</linearGradient>
</defs>
</svg>
