<svg width="312" height="60" viewBox="0 0 312 60" fill="none" xmlns="http://www.w3.org/2000/svg">
<g clip-path="url(#clip0_2_62)">
<path d="M40.42 0.819998H1.08C0.48 0.819998 0 1.3 0 1.89V5.99C0 6.58 0.48 7.07 1.08 7.07H16C16.59 7.07 17.08 7.55 17.08 8.15V58.09C17.08 58.68 17.56 59.17 18.16 59.17H23.31C23.9 59.17 24.39 58.69 24.39 58.09V8.14C24.39 7.55 24.87 7.06 25.47 7.06H40.44C41.03 7.06 41.52 6.58 41.52 5.98V1.89C41.52 1.3 41.04 0.809998 40.44 0.809998L40.42 0.819998Z" fill="#1D1D1B"/>
<path d="M70.9801 0C53.9901 0 46.0601 14.39 46.0601 29.67C46.0601 47.15 54.1801 60 70.3001 60C87.3901 60 95.1701 46.38 95.1701 29.62C95.1701 12.86 87.0601 0 70.9801 0ZM70.7001 53.9C59.1301 53.9 53.5901 43.23 53.5901 29.54C53.5901 16.63 58.8401 6.1 70.7101 6.1C82.5801 6.1 87.7701 16.35 87.7701 29.68C87.7701 43.01 82.6701 53.9 70.6901 53.9H70.7001Z" fill="#1D1D1B"/>
<path d="M139.43 28.54C143.23 26.63 146.7 22.86 146.7 15.85C146.7 5.92 139.47 0.809998 129.16 0.809998H109.59C109 0.809998 108.51 1.29 108.51 1.89V58.08C108.51 58.67 108.99 59.16 109.59 59.16H114.62C115.21 59.16 115.7 58.68 115.7 58.08V33.69C115.7 33.1 116.18 32.61 116.78 32.61H125.89C135.5 32.61 138.49 35.87 138.49 44.14V45.31C138.49 50.77 138.65 55.67 139.25 58.32C139.36 58.81 139.8 59.15 140.3 59.15H145.35C146.01 59.15 146.51 58.56 146.41 57.91C145.91 54.55 145.81 50.02 145.81 45.24V44.18C145.81 37.34 143.88 32.82 139.44 30.45C138.67 30.04 138.65 28.93 139.43 28.54ZM126.47 26.62H116.78C116.19 26.62 115.7 26.14 115.7 25.54V7.88C115.7 7.29 116.18 6.8 116.78 6.8H128.18C135.13 6.8 139.32 10.02 139.32 16.26C139.32 24.44 134.08 26.61 126.47 26.61V26.62Z" fill="#1D1D1B"/>
<path d="M182.1 0C165.11 0 157.18 14.39 157.18 29.67C157.18 47.15 165.3 60 181.42 60C198.51 60 206.29 46.38 206.29 29.62C206.29 12.86 198.18 0 182.1 0ZM185.32 53.56V41.61C185.32 41.02 184.84 40.53 184.24 40.53H179.21C178.61 40.53 178.13 41.01 178.13 41.61V53.49C169.07 51.44 164.7 41.68 164.7 29.53C164.7 16.62 169.95 6.09 181.82 6.09C193.69 6.09 198.88 16.34 198.88 29.67C198.88 41.95 194.78 51.67 185.31 53.55L185.32 53.56Z" fill="#1D1D1B"/>
<path d="M260.1 0.819998H254.84C254.24 0.819998 253.76 1.3 253.76 1.9V37.9C253.76 47.51 250.58 53.85 240.3 53.85C230.02 53.85 226.59 47.2 226.59 37.96V1.89C226.59 1.3 226.11 0.809998 225.51 0.809998H220.33C219.73 0.809998 219.25 1.29 219.25 1.89V38.64C219.25 52.2 225.3 60 240.09 60C256.06 60 261.16 50.51 261.16 38.21V1.89C261.16 1.3 260.68 0.809998 260.08 0.809998L260.1 0.819998Z" fill="#1D1D1B"/>
<path d="M285.18 7.01H310.49C311.09 7.01 311.57 6.53 311.57 5.93V1.89C311.57 1.3 311.09 0.809998 310.49 0.809998H278.07C277.47 0.809998 276.99 1.29 276.99 1.89V58.08C276.99 58.67 277.47 59.16 278.07 59.16H310.48C311.07 59.16 311.56 58.68 311.56 58.08V54.07C311.56 53.47 311.08 52.99 310.49 52.99H285.18C284.59 52.99 284.1 52.51 284.1 51.91V32.74C284.1 32.15 284.58 31.66 285.18 31.66H309.26C309.86 31.66 310.34 31.18 310.34 30.58V26.48C310.34 25.89 309.86 25.4 309.26 25.4H285.18C284.58 25.4 284.1 24.92 284.1 24.32V8.09C284.1 7.5 284.58 7.01 285.18 7.01Z" fill="#1D1D1B"/>
</g>
<defs>
<clipPath id="clip0_2_62">
<rect width="311.57" height="60" fill="white"/>
</clipPath>
</defs>
</svg>
