<?xml version="1.0" encoding="UTF-8"?>
<svg id="Layer_1" xmlns="http://www.w3.org/2000/svg" version="1.1" viewBox="0 0 379.7 337.2">
  <!-- Generator: Adobe Illustrator 29.5.1, SVG Export Plug-In . SVG Version: 2.1.0 Build 141)  -->
  <defs>
    <style>
      .st0 {
        fill: #010101;
      }
    </style>
  </defs>
  <path class="st0" d="M269.2,0H110.5c-11.2,0-21.5,5.9-27,15.6L4.2,153c-5.6,9.7-5.6,21.6,0,31.2l79.3,137.4c5.6,9.7,15.9,15.6,27,15.6h158.6c11.1,0,21.5-5.9,27-15.6l79.3-137.4c5.6-9.7,5.6-21.6,0-31.2L296.2,15.6c-5.6-9.7-15.9-15.6-27-15.6ZM210.1,180.3h140.6l-70.3,121.8-70.3-121.8ZM350.7,156.9h-136.1c-11.1,0-21.5-5.9-27-15.6L119.5,23.4h136.1c11.1,0,21.5,5.9,27,15.6l68.1,117.9ZM169.6,156.9H29L99.3,35.1l70.3,121.8ZM29,180.3h136.1c11.1,0,21.5,5.9,27,15.6l68.1,117.9H124c-11.2,0-21.5-5.9-27-15.6L29,180.3Z"/>
</svg>