<?xml version="1.0" encoding="UTF-8"?>
<svg id="Layer_1" xmlns="http://www.w3.org/2000/svg" version="1.1" viewBox="0 0 340.2 340.2">
  <!-- Generator: Adobe Illustrator 29.5.1, SVG Export Plug-In . SVG Version: 2.1.0 Build 141)  -->
  <defs>
    <style>
      .st0 {
        fill: #010101;
      }

      .st1 {
        fill: #fff;
      }
    </style>
  </defs>
  <rect class="st0" y="0" width="340.2" height="340.2" rx="71.3" ry="71.3"/>
  <path class="st1" d="M227.3,48.5h-114.4c-8,0-15.5,4.3-19.5,11.3l-57.2,99.1c-4,7-4,15.5,0,22.5l57.2,99.1c4,7,11.4,11.3,19.5,11.3h114.4c8,0,15.5-4.3,19.5-11.3l57.2-99.1c4-7,4-15.5,0-22.5l-57.2-99.1c-4-7-11.4-11.3-19.5-11.3ZM184.7,178.5h101.4l-50.7,87.8-50.7-87.8ZM286.1,161.6h-98.1c-8,0-15.5-4.3-19.5-11.3l-49.1-85h98.1c8,0,15.5,4.3,19.5,11.3l49.1,85ZM155.5,161.6H54.1l50.7-87.8,50.7,87.8ZM54.1,178.5h98.1c8,0,15.5,4.3,19.5,11.3l49.1,85h-98.1c-8,0-15.5-4.3-19.5-11.3l-49.1-85Z"/>
</svg>