<svg width="255" height="60" viewBox="0 0 255 60" fill="none" xmlns="http://www.w3.org/2000/svg">
<g clip-path="url(#clip0_2_53)">
<path d="M47.94 0.159949L19.78 -5.06007e-05C17.8 -0.0100506 15.97 1.02995 14.97 2.73995L0.760017 27.0399C-0.239983 28.7499 -0.249983 30.86 0.730017 32.58L14.67 57.04C15.65 58.76 17.47 59.83 19.45 59.84L47.6 60C49.58 60.01 51.41 58.9699 52.41 57.2599L66.62 32.9599C67.62 31.2499 67.63 29.1399 66.65 27.4199L52.72 2.95995C51.74 1.23995 49.92 0.169949 47.94 0.159949ZM37.28 32.0999L62.24 32.24L49.64 53.7799L37.28 32.0999ZM62.26 28.0799L38.1 27.9399C36.12 27.9299 34.3 26.8599 33.32 25.1399L21.36 4.15995L45.52 4.29995C47.5 4.30995 49.32 5.37995 50.3 7.09995L62.26 28.0899V28.0799ZM30.11 27.8999L5.15002 27.7599L17.75 6.21995L30.11 27.8999ZM5.13002 31.9099L29.29 32.0499C31.27 32.0599 33.09 33.1299 34.07 34.8499L46.03 55.84L21.87 55.7C19.89 55.69 18.07 54.62 17.09 52.9L5.13002 31.9099Z" fill="#1D1D1B"/>
<path d="M102.61 13.6H80.64C80.31 13.6 80.04 13.87 80.04 14.2V16.49C80.04 16.82 80.31 17.09 80.64 17.09H88.97C89.3 17.09 89.57 17.36 89.57 17.69V45.57C89.57 45.9 89.84 46.17 90.17 46.17H93.05C93.38 46.17 93.65 45.9 93.65 45.57V17.69C93.65 17.36 93.92 17.09 94.25 17.09H102.61C102.94 17.09 103.21 16.82 103.21 16.49V14.2C103.21 13.87 102.94 13.6 102.61 13.6Z" fill="#1D1D1B"/>
<path d="M119.67 13.15C110.18 13.15 105.75 21.19 105.75 29.72C105.75 39.48 110.28 46.66 119.29 46.66C128.83 46.66 133.18 39.05 133.18 29.7C133.18 20.35 128.65 13.16 119.67 13.16V13.15ZM119.51 43.24C113.05 43.24 109.96 37.28 109.96 29.64C109.96 22.43 112.89 16.55 119.52 16.55C126.15 16.55 129.04 22.27 129.04 29.71C129.04 37.15 126.19 43.24 119.51 43.24Z" fill="#1D1D1B"/>
<path d="M157.9 29.08C160.02 28.02 161.96 25.91 161.96 21.99C161.96 16.45 157.92 13.59 152.17 13.59H141.24C140.91 13.59 140.64 13.86 140.64 14.19V45.56C140.64 45.89 140.91 46.16 141.24 46.16H144.05C144.38 46.16 144.65 45.89 144.65 45.56V31.94C144.65 31.61 144.92 31.34 145.25 31.34H150.34C155.7 31.34 157.37 33.16 157.37 37.78V38.43C157.37 41.48 157.46 44.21 157.79 45.69C157.85 45.96 158.1 46.16 158.38 46.16H161.2C161.57 46.16 161.85 45.83 161.79 45.47C161.51 43.6 161.46 41.06 161.46 38.39V37.8C161.46 33.98 160.38 31.46 157.9 30.14C157.47 29.91 157.46 29.29 157.9 29.07V29.08ZM150.66 28.01H145.25C144.92 28.01 144.65 27.74 144.65 27.41V17.55C144.65 17.22 144.92 16.95 145.25 16.95H151.62C155.5 16.95 157.84 18.75 157.84 22.23C157.84 26.8 154.91 28.01 150.66 28.01Z" fill="#1D1D1B"/>
<path d="M181.72 13.15C172.23 13.15 167.8 21.19 167.8 29.72C167.8 39.48 172.33 46.66 181.34 46.66C190.88 46.66 195.23 39.05 195.23 29.7C195.23 20.35 190.7 13.16 181.72 13.16V13.15ZM183.52 43.05V36.38C183.52 36.05 183.25 35.78 182.92 35.78H180.11C179.78 35.78 179.51 36.05 179.51 36.38V43.01C174.45 41.87 172.01 36.41 172.01 29.63C172.01 22.42 174.94 16.54 181.57 16.54C188.2 16.54 191.09 22.26 191.09 29.7C191.09 36.56 188.8 41.98 183.51 43.04L183.52 43.05Z" fill="#1D1D1B"/>
<path d="M225.27 13.6H222.33C222 13.6 221.73 13.87 221.73 14.2V34.3C221.73 39.66 219.96 43.2 214.22 43.2C208.48 43.2 206.56 39.49 206.56 34.33V14.2C206.56 13.87 206.29 13.6 205.96 13.6H203.07C202.74 13.6 202.47 13.87 202.47 14.2V34.72C202.47 42.29 205.85 46.65 214.11 46.65C223.03 46.65 225.88 41.35 225.88 34.48V14.2C225.88 13.87 225.61 13.6 225.28 13.6H225.27Z" fill="#1D1D1B"/>
<path d="M239.28 17.06H253.41C253.74 17.06 254.01 16.79 254.01 16.46V14.2C254.01 13.87 253.74 13.6 253.41 13.6H235.31C234.98 13.6 234.71 13.87 234.71 14.2V45.57C234.71 45.9 234.98 46.17 235.31 46.17H253.41C253.74 46.17 254.01 45.9 254.01 45.57V43.33C254.01 43 253.74 42.73 253.41 42.73H239.28C238.95 42.73 238.68 42.46 238.68 42.13V31.43C238.68 31.1 238.95 30.83 239.28 30.83H252.73C253.06 30.83 253.33 30.56 253.33 30.23V27.94C253.33 27.61 253.06 27.34 252.73 27.34H239.28C238.95 27.34 238.68 27.07 238.68 26.74V17.66C238.68 17.33 238.95 17.06 239.28 17.06Z" fill="#1D1D1B"/>
</g>
<defs>
<clipPath id="clip0_2_53">
<rect width="254.02" height="60" fill="white"/>
</clipPath>
</defs>
</svg>
