<svg width="68" height="60" viewBox="0 0 68 60" fill="none" xmlns="http://www.w3.org/2000/svg">
<g clip-path="url(#clip0_2_70)">
<path d="M47.94 0.159949L19.78 -5.06007e-05C17.8 -0.0100506 15.97 1.02995 14.97 2.73995L0.760017 27.0399C-0.239983 28.7499 -0.249983 30.86 0.730017 32.58L14.67 57.04C15.65 58.76 17.47 59.83 19.45 59.84L47.6 60C49.58 60.01 51.41 58.9699 52.41 57.2599L66.62 32.9599C67.62 31.2499 67.63 29.1399 66.65 27.4199L52.72 2.95995C51.74 1.23995 49.92 0.169949 47.94 0.159949ZM37.28 32.0999L62.24 32.24L49.64 53.7799L37.28 32.0999ZM62.26 28.0799L38.1 27.9399C36.12 27.9299 34.3 26.8599 33.32 25.1399L21.36 4.15995L45.52 4.29995C47.5 4.30995 49.32 5.37995 50.3 7.09995L62.26 28.0899V28.0799ZM30.11 27.8999L5.15002 27.7599L17.75 6.21995L30.11 27.8999ZM5.13002 31.9099L29.29 32.0499C31.27 32.0599 33.09 33.1299 34.07 34.8499L46.03 55.84L21.87 55.7C19.89 55.69 18.07 54.62 17.09 52.9L5.13002 31.9099Z" fill="black"/>
</g>
<defs>
<clipPath id="clip0_2_70">
<rect width="67.38" height="60" fill="white"/>
</clipPath>
</defs>
</svg>
